<?xml version="1.0" encoding="UTF-8"?>
<svg version="1.1" xmlns="http://www.w3.org/2000/svg" width="400" height="400">
<path d="M0 0 C132 0 264 0 400 0 C400 132 400 264 400 400 C268 400 136 400 0 400 C0 268 0 136 0 0 Z " fill="#F0635C" transform="translate(0,0)"/>
<path d="M0 0 C132 0 264 0 400 0 C400 132 400 264 400 400 C268 400 136 400 0 400 C0 268 0 136 0 0 Z M82.03125 54.58203125 C80.2539657 55.99973612 78.45084419 57.38779672 76.59375 58.69921875 C76.0678125 59.12847656 75.541875 59.55773438 75 60 C75 60.66 75 61.32 75 62 C74.42378906 62.25265625 73.84757812 62.5053125 73.25390625 62.765625 C49.3444798 75.85986895 31.07823051 115.38966878 23 140 C17.61953568 158.84701387 14.57108118 177.66809209 14.625 197.25 C14.62587616 198.03247101 14.62675232 198.81494202 14.62765503 199.62112427 C14.70878071 221.73868044 17.87821844 242.35081484 26 263 C26.42369873 264.07749512 26.42369873 264.07749512 26.85595703 265.17675781 C35.19776593 285.95571136 46.50631245 303.98109646 61 321 C61.67933594 321.80308594 62.35867187 322.60617187 63.05859375 323.43359375 C66.70061203 327.64356809 70.45251837 331.50105386 74.71875 335.078125 C76.39520141 336.4904779 78.03639709 337.94495029 79.65625 339.421875 C89.20977824 348.02115816 99.97944339 354.45536911 111 361 C111.84965332 361.52053955 112.69930664 362.0410791 113.57470703 362.57739258 C116.60720948 364.3561717 119.75645713 365.64793235 123 367 C124.48886719 367.69029297 124.48886719 367.69029297 126.0078125 368.39453125 C141.91997231 375.63276936 158.72899855 379.64633706 176 382 C177.77117187 382.27457031 177.77117187 382.27457031 179.578125 382.5546875 C205.67049658 385.71248457 233.26209189 382.66333586 258 374 C258.7007666 373.75942871 259.4015332 373.51885742 260.12353516 373.27099609 C306.38237286 357.13901748 344.13511932 323.78458346 366 280 C385.25228569 240.07944306 390.5663514 192.99894476 379 150 C378.69570068 148.83573486 378.69570068 148.83573486 378.38525391 147.64794922 C366.60942472 103.66321046 337.82385433 67.647775 300.69384766 42.16699219 C299.17387672 41.11979399 297.66980877 40.0496013 296.16796875 38.9765625 C268.56726577 20.47540729 233.19642967 12.75267328 200.4375 12.8125 C199.72391327 12.81376892 199.01032654 12.81503784 198.27511597 12.81634521 C154.61259281 12.96441807 116.00199116 27.39167105 82.03125 54.58203125 Z " fill="#E7E6E6" transform="translate(0,0)"/>
<path d="M0 0 C59.07 0 118.14 0 179 0 C179 13.53 179 27.06 179 41 C157.22 41 135.44 41 113 41 C113 99.74 113 158.48 113 219 C97.16 219 81.32 219 65 219 C65 160.26 65 101.52 65 41 C43.55 41 22.1 41 0 41 C0 27.47 0 13.94 0 0 Z " fill="#FEFDFC" transform="translate(112,102)"/>
<path d="M0 0 C4.95 0 9.9 0 15 0 C15 4.95 15 9.9 15 15 C19.95 15 24.9 15 30 15 C30 19.95 30 24.9 30 30 C34.95 30 39.9 30 45 30 C45 34.95 45 39.9 45 45 C49.95 45 54.9 45 60 45 C60 49.95 60 54.9 60 60 C64.95 60 69.9 60 75 60 C75 64.95 75 69.9 75 75 C79.95 75 84.9 75 90 75 C90 79.95 90 84.9 90 90 C85.05 90 80.1 90 75 90 C75 94.95 75 99.9 75 105 C79.95 105 84.9 105 90 105 C90 109.95 90 114.9 90 120 C86.04 120 82.08 120 78 120 C77.72027344 119.04222656 77.44054687 118.08445312 77.15234375 117.09765625 C66.26501946 80.5963714 43.61546438 39.49556807 9.4296875 19.91015625 C5.95848995 17.86904009 2.84641739 15.89518778 0 13 C-1.13933042 8.1985361 -0.68249225 4.98744334 0 0 Z " fill="#FEFCFC" transform="translate(300,30)"/>
<path d="M0 0 C0 4.95 0 9.9 0 15 C-4.95 15 -9.9 15 -15 15 C-15 19.95 -15 24.9 -15 30 C-10.05 30 -5.1 30 0 30 C0 34.95 0 39.9 0 45 C-4.95 45 -9.9 45 -15 45 C-15 49.95 -15 54.9 -15 60 C-19.95 60 -24.9 60 -30 60 C-30 55.05 -30 50.1 -30 45 C-34.95 45 -39.9 45 -45 45 C-45.33 40.71 -45.66 36.42 -46 32 C-44.89785156 31.42894531 -43.79570312 30.85789062 -42.66015625 30.26953125 C-27.90121757 22.44893363 -14.85240952 12.95741909 -2.6875 1.51171875 C-1 0 -1 0 0 0 Z " fill="#E7E7E7" transform="translate(330,330)"/>
<path d="M0 0 C11.52805322 -1.36773513 11.52805322 -1.36773513 16 0 C19.83867899 3.56485667 22.15557914 7.58815158 24.77734375 12.07958984 C26.77864247 15.22300353 29.25241028 17.86875443 31.8125 20.5625 C32.68519531 21.49191406 33.55789062 22.42132813 34.45703125 23.37890625 C36.94667182 25.94503347 39.46775951 28.47598107 42 31 C42.62261719 31.64582031 43.24523437 32.29164063 43.88671875 32.95703125 C47.55328286 36.73494438 51.12177723 39.75217102 55.5 42.6875 C58.80304606 45.20771405 59.86163924 46.25780556 60.6328125 50.39453125 C60.625 54 60.625 54 60 60 C55.05 60 50.1 60 45 60 C45 55.05 45 50.1 45 45 C40.05 45 35.1 45 30 45 C30 40.05 30 35.1 30 30 C25.05 30 20.1 30 15 30 C15 25.05 15 20.1 15 15 C10.05 15 5.1 15 0 15 C0 10.05 0 5.1 0 0 Z " fill="#FEFDFD" transform="translate(30,300)"/>
<path d="M0 0 C14.85 0 29.7 0 45 0 C45 4.95 45 9.9 45 15 C49.95 15 54.9 15 60 15 C60 16.98 60 18.96 60 21 C55.14279164 20.0444836 50.29319876 19.06878818 45.45703125 18.01171875 C44.64274658 17.83543945 43.82846191 17.65916016 42.98950195 17.47753906 C41.36856576 17.12591497 39.74854987 16.7700123 38.12963867 16.40917969 C27.94325036 14.21072432 17.76795414 13.79088361 7.375 13.4375 C6.18003906 13.39431641 4.98507813 13.35113281 3.75390625 13.30664062 C0.83602594 13.20159693 -2.08192438 13.09944352 -5 13 C-5 12.67 -5 12.34 -5 12 C-3.35 12 -1.7 12 0 12 C0 8.04 0 4.08 0 0 Z " fill="#E6E7E6" transform="translate(195,0)"/>
<path d="M0 0 C2.97 0 5.94 0 9 0 C7.71576122 3.28133892 6.33764151 6.4843866 4.828125 9.66796875 C-0.61106244 21.28411138 -5.18441675 32.74996956 -9 45 C-15.93 45 -22.86 45 -30 45 C-30 40.05 -30 35.1 -30 30 C-25.05 30 -20.1 30 -15 30 C-15 25.05 -15 20.1 -15 15 C-10.05 15 -5.1 15 0 15 C0 10.05 0 5.1 0 0 Z " fill="#E7E7E7" transform="translate(30,105)"/>
<path d="M0 0 C4.95 0 9.9 0 15 0 C15 6.27 15 12.54 15 19 C10.47866783 20.83679119 5.97200961 22.65576839 1.37109375 24.28515625 C-7.01863056 27.25867588 -14.80091691 30.78442535 -22.59204102 35.10424805 C-27.82502078 38 -27.82502078 38 -30 38 C-30 35.36 -30 32.72 -30 30 C-25.05 30 -20.1 30 -15 30 C-15 25.05 -15 20.1 -15 15 C-10.05 15 -5.1 15 0 15 C0 10.05 0 5.1 0 0 Z " fill="#E7E7E7" transform="translate(135,0)"/>
<path d="M0 0 C0 4.95 0 9.9 0 15 C-4.95 15 -9.9 15 -15 15 C-15 19.95 -15 24.9 -15 30 C-19.95 30 -24.9 30 -30 30 C-30 34.95 -30 39.9 -30 45 C-34.95 45 -39.9 45 -45 45 C-45.33 40.71 -45.66 36.42 -46 32 C-44.89785156 31.42894531 -43.79570312 30.85789062 -42.66015625 30.26953125 C-27.90121757 22.44893363 -14.85240952 12.95741909 -2.6875 1.51171875 C-1 0 -1 0 0 0 Z " fill="#E7E5E5" transform="translate(330,330)"/>
<path d="M0 0 C3.63 0 7.26 0 11 0 C11 4.95 11 9.9 11 15 C14.3 15 17.6 15 21 15 C21 19.95 21 24.9 21 30 C17.7 30 14.4 30 11 30 C11 34.95 11 39.9 11 45 C9.35 45 7.7 45 6 45 C6.00523682 45.69561035 6.01047363 46.3912207 6.01586914 47.10791016 C6.03674337 50.28026413 6.04969332 53.45260361 6.0625 56.625 C6.07087891 57.71941406 6.07925781 58.81382812 6.08789062 59.94140625 C6.09111328 61.00488281 6.09433594 62.06835938 6.09765625 63.1640625 C6.10289307 64.13811035 6.10812988 65.1121582 6.11352539 66.11572266 C5.99414506 69.14875321 5.55866724 72.01915268 5 75 C4.67 75 4.34 75 4 75 C4.00888245 74.43497772 4.01776489 73.86995544 4.0269165 73.28781128 C4.11700897 67.28312552 4.17638649 61.2786382 4.21972656 55.2734375 C4.23955869 53.04712093 4.26663284 50.82085437 4.30175781 48.59472656 C4.52625647 33.97590201 3.58463394 20.3479032 0.36322021 6.0630188 C0 4 0 4 0 0 Z " fill="#E7E7E7" transform="translate(379,150)"/>
<path d="M0 0 C4.95 0 9.9 0 15 0 C15 0.66 15 1.32 15 2 C13.6015625 3.33984375 13.6015625 3.33984375 11.625 4.9375 C-1.20822188 15.95024733 -11.89000338 30.19044096 -20 45 C-23.3 45 -26.6 45 -30 45 C-30 40.05 -30 35.1 -30 30 C-25.05 30 -20.1 30 -15 30 C-15 25.05 -15 20.1 -15 15 C-10.05 15 -5.1 15 0 15 C0 10.05 0 5.1 0 0 Z " fill="#FEFAFA" transform="translate(60,60)"/>
<path d="M0 0 C1.76283486 2.64425229 3.07872995 5.14153626 4.42578125 8.0078125 C5.12670898 9.48894531 5.12670898 9.48894531 5.84179688 11 C6.81111055 13.05963065 7.77987375 15.11952047 8.74804688 17.1796875 C11.62483967 23.25597761 14.66750828 29.16055185 18 35 C13.05 35 8.1 35 3 35 C3 30.05 3 25.1 3 20 C-1.95 20 -6.9 20 -12 20 C-12 15.05 -12 10.1 -12 5 C-8.04 5 -4.08 5 0 5 C0 3.35 0 1.7 0 0 Z " fill="#E9E4E4" transform="translate(27,265)"/>
<path d="M0 0 C0 3.96 0 7.92 0 12 C-4.95 12 -9.9 12 -15 12 C-15 16.95 -15 21.9 -15 27 C-19.95 27 -24.9 27 -30 27 C-30 22.05 -30 17.1 -30 12 C-23.48456554 9.0913239 -16.9514481 6.22469937 -10.41015625 3.37475586 C-2.67730889 0 -2.67730889 0 0 0 Z " fill="#FEFEFE" transform="translate(285,363)"/>
<path d="M0 0 C4.29 0 8.58 0 13 0 C13 4.95 13 9.9 13 15 C8.05 15 3.1 15 -2 15 C-2 19.95 -2 24.9 -2 30 C-5.63 30 -9.26 30 -13 30 C-12.27433998 26.37169988 -11.62740762 23.79263882 -10.22265625 20.49609375 C-9.87396484 19.67302734 -9.52527344 18.84996094 -9.16601562 18.00195312 C-8.80185547 17.15568359 -8.43769531 16.30941406 -8.0625 15.4375 C-7.70220703 14.58736328 -7.34191406 13.73722656 -6.97070312 12.86132812 C-5.40563335 9.18644053 -3.81519598 5.55943475 -2 2 C-1.34 2 -0.68 2 0 2 C0 1.34 0 0.68 0 0 Z " fill="#FEFEFE" transform="translate(377,255)"/>
<path d="M0 0 C4.95 0 9.9 0 15 0 C16.03552685 5.52280985 16.03552685 5.52280985 15 9 C11.92002756 11.81502858 8.40993245 13.74134507 4.82324219 15.84765625 C0.88207397 18.33859278 -2.66465356 21.38343447 -6.27783203 24.31982422 C-9.1392193 26.62099764 -11.68729546 28.34364773 -15 30 C-15 25.05 -15 20.1 -15 15 C-10.05 15 -5.1 15 0 15 C0 10.05 0 5.1 0 0 Z " fill="#FEFAFA" transform="translate(90,30)"/>
<path d="M0 0 C4.95 0 9.9 0 15 0 C15 4.95 15 9.9 15 15 C19.95 15 24.9 15 30 15 C30 18.96 30 22.92 30 27 C27.64875 25.700625 27.64875 25.700625 25.25 24.375 C16.70515415 19.72317272 8.2098143 15.18801264 -1 12 C-0.67 8.04 -0.34 4.08 0 0 Z " fill="#E8E4E3" transform="translate(270,15)"/>
<path d="M0 0 C4.91836869 0.72096569 9.29539595 2.59137062 13.875 4.4375 C19.20177697 6.57969472 24.4471214 8.52663621 30 10 C30 14.62 30 19.24 30 24 C25.05 24 20.1 24 15 24 C15 19.05 15 14.1 15 9 C10.05 9 5.1 9 0 9 C0 6.03 0 3.06 0 0 Z " fill="#FEFEFD" transform="translate(120,366)"/>
<path d="M0 0 C3.46644644 1.38657858 6.07483636 2.53429572 9.14453125 4.4609375 C10.28438477 5.16863281 10.28438477 5.16863281 11.44726562 5.890625 C12.22779297 6.38046875 13.00832031 6.8703125 13.8125 7.375 C19.42504439 10.89401358 25.02762496 14.12617757 31 17 C30.67 20.3 30.34 23.6 30 27 C25.05 27 20.1 27 15 27 C15 22.05 15 17.1 15 12 C10.05 12 5.1 12 0 12 C0 8.04 0 4.08 0 0 Z " fill="#E9E3E2" transform="translate(90,348)"/>
<path d="M0 0 C0.33 0.66 0.66 1.32 1 2 C2.32 2 3.64 2 5 2 C5 6.95 5 11.9 5 17 C0.05 17 -4.9 17 -10 17 C-10 21.95 -10 26.9 -10 32 C-14.95 32 -19.9 32 -25 32 C-24.195625 31.071875 -23.39125 30.14375 -22.5625 29.1875 C-14.53093902 19.78286186 -7.08330629 10.12957163 0 0 Z " fill="#E8E5E6" transform="translate(355,298)"/>
<path d="M0 0 C2.97 0 5.94 0 9 0 C7.64745515 3.44811864 6.19684944 6.82902661 4.65234375 10.1953125 C4.21212891 11.15824219 3.77191406 12.12117188 3.31835938 13.11328125 C2.39414813 15.12902911 1.46966685 17.14465318 0.54492188 19.16015625 C0.10599609 20.12050781 -0.33292969 21.08085938 -0.78515625 22.0703125 C-1.18613525 22.94445801 -1.58711426 23.81860352 -2.00024414 24.71923828 C-3.08034343 27.08896338 -3.08034343 27.08896338 -4 30 C-7.63 30 -11.26 30 -15 30 C-15 25.05 -15 20.1 -15 15 C-10.05 15 -5.1 15 0 15 C0 10.05 0 5.1 0 0 Z " fill="#E9E4E4" transform="translate(30,105)"/>
<path d="M0 0 C4.95 0 9.9 0 15 0 C15 2.97 15 5.94 15 9 C8.875 12.0625 8.875 12.0625 6.98730469 13.00415039 C3.65967825 14.66504464 0.33700566 16.33465016 -2.9765625 18.0234375 C-3.92571533 18.50478149 -3.92571533 18.50478149 -4.89404297 18.99584961 C-6.67543164 19.89966651 -8.45494575 20.80717524 -10.234375 21.71484375 C-13 23 -13 23 -15 23 C-15 20.36 -15 17.72 -15 15 C-10.05 15 -5.1 15 0 15 C0 10.05 0 5.1 0 0 Z " fill="#EBE3E3" transform="translate(120,15)"/>
<path d="M0 0 C-0.99 0 -1.98 0 -3 0 C-3 2.64 -3 5.28 -3 8 C-7.95 8 -12.9 8 -18 8 C-18 6.02 -18 4.04 -18 2 C-22.95 2 -27.9 2 -33 2 C-33 3.98 -33 5.96 -33 8 C-37.95 8 -42.9 8 -48 8 C-48 5.36 -48 2.72 -48 0 C-46.95134766 0.00523682 -45.90269531 0.01047363 -44.82226562 0.01586914 C-40.90105048 0.03408185 -36.97983901 0.04549105 -33.05859375 0.05493164 C-31.36718109 0.05993487 -29.67577269 0.06673952 -27.984375 0.07543945 C-25.54165589 0.08768185 -23.09899438 0.09326855 -20.65625 0.09765625 C-19.91008423 0.10281754 -19.16391846 0.10797882 -18.3951416 0.11329651 C-14.75005927 0.11367882 -11.23053376 -0.0489738 -7.61523438 -0.53344727 C-4.54178829 -0.93008121 -2.83937319 -1.06476494 0 0 Z " fill="#EEE1DF" transform="translate(228,382)"/>
<path d="M0 0 C0.33 0 0.66 0 1 0 C1 7.92 1 15.84 1 24 C-3.95 24 -8.9 24 -14 24 C-14 19.05 -14 14.1 -14 9 C-9.38 9 -4.76 9 0 9 C0 6.03 0 3.06 0 0 Z " fill="#EAE3E3" transform="translate(14,186)"/>
<path d="M0 0 C4.95 0 9.9 0 15 0 C15 4.95 15 9.9 15 15 C10.05 15 5.1 15 0 15 C0 10.05 0 5.1 0 0 Z " fill="#FEFEFE" transform="translate(375,375)"/>
<path d="M0 0 C4.95 0 9.9 0 15 0 C15 4.95 15 9.9 15 15 C10.05 15 5.1 15 0 15 C0 10.05 0 5.1 0 0 Z " fill="#E7E7E7" transform="translate(360,375)"/>
<path d="M0 0 C4.95 0 9.9 0 15 0 C15 4.95 15 9.9 15 15 C10.05 15 5.1 15 0 15 C0 10.05 0 5.1 0 0 Z " fill="#FEFEFE" transform="translate(345,375)"/>
<path d="M0 0 C4.95 0 9.9 0 15 0 C15 4.95 15 9.9 15 15 C10.05 15 5.1 15 0 15 C0 10.05 0 5.1 0 0 Z " fill="#E7E7E7" transform="translate(330,375)"/>
<path d="M0 0 C4.95 0 9.9 0 15 0 C15 4.95 15 9.9 15 15 C10.05 15 5.1 15 0 15 C0 10.05 0 5.1 0 0 Z " fill="#FEFEFE" transform="translate(315,375)"/>
<path d="M0 0 C4.95 0 9.9 0 15 0 C15 4.95 15 9.9 15 15 C10.05 15 5.1 15 0 15 C0 10.05 0 5.1 0 0 Z " fill="#E7E7E7" transform="translate(300,375)"/>
<path d="M0 0 C4.95 0 9.9 0 15 0 C15 4.95 15 9.9 15 15 C10.05 15 5.1 15 0 15 C0 10.05 0 5.1 0 0 Z " fill="#FEFEFE" transform="translate(285,375)"/>
<path d="M0 0 C4.95 0 9.9 0 15 0 C15 4.95 15 9.9 15 15 C10.05 15 5.1 15 0 15 C0 10.05 0 5.1 0 0 Z " fill="#E7E7E7" transform="translate(270,375)"/>
<path d="M0 0 C4.95 0 9.9 0 15 0 C15 4.95 15 9.9 15 15 C10.05 15 5.1 15 0 15 C0 10.05 0 5.1 0 0 Z " fill="#E7E7E7" transform="translate(120,375)"/>
<path d="M0 0 C4.95 0 9.9 0 15 0 C15 4.95 15 9.9 15 15 C10.05 15 5.1 15 0 15 C0 10.05 0 5.1 0 0 Z " fill="#FEFEFE" transform="translate(105,375)"/>
<path d="M0 0 C4.95 0 9.9 0 15 0 C15 4.95 15 9.9 15 15 C10.05 15 5.1 15 0 15 C0 10.05 0 5.1 0 0 Z " fill="#E7E7E7" transform="translate(90,375)"/>
<path d="M0 0 C4.95 0 9.9 0 15 0 C15 4.95 15 9.9 15 15 C10.05 15 5.1 15 0 15 C0 10.05 0 5.1 0 0 Z " fill="#FEFEFE" transform="translate(75,375)"/>
<path d="M0 0 C4.95 0 9.9 0 15 0 C15 4.95 15 9.9 15 15 C10.05 15 5.1 15 0 15 C0 10.05 0 5.1 0 0 Z " fill="#E7E7E7" transform="translate(60,375)"/>
<path d="M0 0 C4.95 0 9.9 0 15 0 C15 4.95 15 9.9 15 15 C10.05 15 5.1 15 0 15 C0 10.05 0 5.1 0 0 Z " fill="#FEFEFE" transform="translate(45,375)"/>
<path d="M0 0 C4.95 0 9.9 0 15 0 C15 4.95 15 9.9 15 15 C10.05 15 5.1 15 0 15 C0 10.05 0 5.1 0 0 Z " fill="#E6E6E6" transform="translate(30,375)"/>
<path d="M0 0 C4.95 0 9.9 0 15 0 C15 4.95 15 9.9 15 15 C10.05 15 5.1 15 0 15 C0 10.05 0 5.1 0 0 Z " fill="#FEFEFE" transform="translate(15,375)"/>
<path d="M0 0 C4.95 0 9.9 0 15 0 C15 4.95 15 9.9 15 15 C10.05 15 5.1 15 0 15 C0 10.05 0 5.1 0 0 Z " fill="#E7E7E7" transform="translate(375,360)"/>
<path d="M0 0 C4.95 0 9.9 0 15 0 C15 4.95 15 9.9 15 15 C10.05 15 5.1 15 0 15 C0 10.05 0 5.1 0 0 Z " fill="#FEFEFE" transform="translate(360,360)"/>
<path d="M0 0 C4.95 0 9.9 0 15 0 C15 4.95 15 9.9 15 15 C10.05 15 5.1 15 0 15 C0 10.05 0 5.1 0 0 Z " fill="#E7E7E7" transform="translate(345,360)"/>
<path d="M0 0 C4.95 0 9.9 0 15 0 C15 4.95 15 9.9 15 15 C10.05 15 5.1 15 0 15 C0 10.05 0 5.1 0 0 Z " fill="#FEFEFE" transform="translate(330,360)"/>
<path d="M0 0 C4.95 0 9.9 0 15 0 C15 4.95 15 9.9 15 15 C10.05 15 5.1 15 0 15 C0 10.05 0 5.1 0 0 Z " fill="#FEFEFE" transform="translate(300,360)"/>
<path d="M0 0 C4.95 0 9.9 0 15 0 C15 4.95 15 9.9 15 15 C10.05 15 5.1 15 0 15 C0 10.05 0 5.1 0 0 Z " fill="#FEFEFE" transform="translate(90,360)"/>
<path d="M0 0 C4.95 0 9.9 0 15 0 C15 4.95 15 9.9 15 15 C10.05 15 5.1 15 0 15 C0 10.05 0 5.1 0 0 Z " fill="#E7E7E7" transform="translate(75,360)"/>
<path d="M0 0 C4.95 0 9.9 0 15 0 C15 4.95 15 9.9 15 15 C10.05 15 5.1 15 0 15 C0 10.05 0 5.1 0 0 Z " fill="#FEFEFE" transform="translate(60,360)"/>
<path d="M0 0 C4.95 0 9.9 0 15 0 C15 4.95 15 9.9 15 15 C10.05 15 5.1 15 0 15 C0 10.05 0 5.1 0 0 Z " fill="#E7E7E7" transform="translate(45,360)"/>
<path d="M0 0 C4.95 0 9.9 0 15 0 C15 4.95 15 9.9 15 15 C10.05 15 5.1 15 0 15 C0 10.05 0 5.1 0 0 Z " fill="#FEFEFE" transform="translate(30,360)"/>
<path d="M0 0 C4.95 0 9.9 0 15 0 C15 4.95 15 9.9 15 15 C10.05 15 5.1 15 0 15 C0 10.05 0 5.1 0 0 Z " fill="#E7E7E7" transform="translate(15,360)"/>
<path d="M0 0 C4.95 0 9.9 0 15 0 C15 4.95 15 9.9 15 15 C10.05 15 5.1 15 0 15 C0 10.05 0 5.1 0 0 Z " fill="#FEFEFE" transform="translate(0,360)"/>
<path d="M0 0 C4.95 0 9.9 0 15 0 C15 4.95 15 9.9 15 15 C10.05 15 5.1 15 0 15 C0 10.05 0 5.1 0 0 Z " fill="#FEFEFE" transform="translate(375,345)"/>
<path d="M0 0 C4.95 0 9.9 0 15 0 C15 4.95 15 9.9 15 15 C10.05 15 5.1 15 0 15 C0 10.05 0 5.1 0 0 Z " fill="#E7E7E7" transform="translate(360,345)"/>
<path d="M0 0 C4.95 0 9.9 0 15 0 C15 4.95 15 9.9 15 15 C10.05 15 5.1 15 0 15 C0 10.05 0 5.1 0 0 Z " fill="#FEFEFE" transform="translate(345,345)"/>
<path d="M0 0 C4.95 0 9.9 0 15 0 C15 4.95 15 9.9 15 15 C10.05 15 5.1 15 0 15 C0 10.05 0 5.1 0 0 Z " fill="#FEFEFE" transform="translate(315,345)"/>
<path d="M0 0 C4.95 0 9.9 0 15 0 C15 4.95 15 9.9 15 15 C10.05 15 5.1 15 0 15 C0 10.05 0 5.1 0 0 Z " fill="#E6E6E6" transform="translate(60,345)"/>
<path d="M0 0 C4.95 0 9.9 0 15 0 C15 4.95 15 9.9 15 15 C10.05 15 5.1 15 0 15 C0 10.05 0 5.1 0 0 Z " fill="#FEFEFE" transform="translate(45,345)"/>
<path d="M0 0 C4.95 0 9.9 0 15 0 C15 4.95 15 9.9 15 15 C10.05 15 5.1 15 0 15 C0 10.05 0 5.1 0 0 Z " fill="#E6E6E6" transform="translate(30,345)"/>
<path d="M0 0 C4.95 0 9.9 0 15 0 C15 4.95 15 9.9 15 15 C10.05 15 5.1 15 0 15 C0 10.05 0 5.1 0 0 Z " fill="#FEFEFE" transform="translate(15,345)"/>
<path d="M0 0 C4.95 0 9.9 0 15 0 C15 4.95 15 9.9 15 15 C10.05 15 5.1 15 0 15 C0 10.05 0 5.1 0 0 Z " fill="#E6E6E6" transform="translate(0,345)"/>
<path d="M0 0 C4.95 0 9.9 0 15 0 C15 4.95 15 9.9 15 15 C10.05 15 5.1 15 0 15 C0 10.05 0 5.1 0 0 Z " fill="#E7E7E7" transform="translate(375,330)"/>
<path d="M0 0 C4.95 0 9.9 0 15 0 C15 4.95 15 9.9 15 15 C10.05 15 5.1 15 0 15 C0 10.05 0 5.1 0 0 Z " fill="#FEFEFE" transform="translate(360,330)"/>
<path d="M0 0 C4.95 0 9.9 0 15 0 C15 4.95 15 9.9 15 15 C10.05 15 5.1 15 0 15 C0 10.05 0 5.1 0 0 Z " fill="#E6E6E6" transform="translate(345,330)"/>
<path d="M0 0 C4.95 0 9.9 0 15 0 C15 4.95 15 9.9 15 15 C10.05 15 5.1 15 0 15 C0 10.05 0 5.1 0 0 Z " fill="#FEFEFE" transform="translate(330,330)"/>
<path d="M0 0 C4.95 0 9.9 0 15 0 C15 4.95 15 9.9 15 15 C10.05 15 5.1 15 0 15 C0 10.05 0 5.1 0 0 Z " fill="#E7E7E7" transform="translate(45,330)"/>
<path d="M0 0 C4.95 0 9.9 0 15 0 C15 4.95 15 9.9 15 15 C10.05 15 5.1 15 0 15 C0 10.05 0 5.1 0 0 Z " fill="#FEFEFE" transform="translate(30,330)"/>
<path d="M0 0 C4.95 0 9.9 0 15 0 C15 4.95 15 9.9 15 15 C10.05 15 5.1 15 0 15 C0 10.05 0 5.1 0 0 Z " fill="#E7E7E7" transform="translate(15,330)"/>
<path d="M0 0 C4.95 0 9.9 0 15 0 C15 4.95 15 9.9 15 15 C10.05 15 5.1 15 0 15 C0 10.05 0 5.1 0 0 Z " fill="#FEFEFE" transform="translate(0,330)"/>
<path d="M0 0 C4.95 0 9.9 0 15 0 C15 4.95 15 9.9 15 15 C10.05 15 5.1 15 0 15 C0 10.05 0 5.1 0 0 Z " fill="#FEFEFE" transform="translate(375,315)"/>
<path d="M0 0 C4.95 0 9.9 0 15 0 C15 4.95 15 9.9 15 15 C10.05 15 5.1 15 0 15 C0 10.05 0 5.1 0 0 Z " fill="#FEFEFE" transform="translate(345,315)"/>
<path d="M0 0 C4.95 0 9.9 0 15 0 C15 4.95 15 9.9 15 15 C10.05 15 5.1 15 0 15 C0 10.05 0 5.1 0 0 Z " fill="#E7E7E7" transform="translate(30,315)"/>
<path d="M0 0 C4.95 0 9.9 0 15 0 C15 4.95 15 9.9 15 15 C10.05 15 5.1 15 0 15 C0 10.05 0 5.1 0 0 Z " fill="#FEFEFE" transform="translate(15,315)"/>
<path d="M0 0 C4.95 0 9.9 0 15 0 C15 4.95 15 9.9 15 15 C10.05 15 5.1 15 0 15 C0 10.05 0 5.1 0 0 Z " fill="#E7E7E7" transform="translate(0,315)"/>
<path d="M0 0 C4.95 0 9.9 0 15 0 C15 4.95 15 9.9 15 15 C10.05 15 5.1 15 0 15 C0 10.05 0 5.1 0 0 Z " fill="#E7E7E7" transform="translate(375,300)"/>
<path d="M0 0 C4.95 0 9.9 0 15 0 C15 4.95 15 9.9 15 15 C10.05 15 5.1 15 0 15 C0 10.05 0 5.1 0 0 Z " fill="#FEFEFE" transform="translate(360,300)"/>
<path d="M0 0 C4.95 0 9.9 0 15 0 C15 4.95 15 9.9 15 15 C10.05 15 5.1 15 0 15 C0 10.05 0 5.1 0 0 Z " fill="#FEFEFE" transform="translate(30,300)"/>
<path d="M0 0 C4.95 0 9.9 0 15 0 C15 4.95 15 9.9 15 15 C10.05 15 5.1 15 0 15 C0 10.05 0 5.1 0 0 Z " fill="#E7E7E7" transform="translate(15,300)"/>
<path d="M0 0 C4.95 0 9.9 0 15 0 C15 4.95 15 9.9 15 15 C10.05 15 5.1 15 0 15 C0 10.05 0 5.1 0 0 Z " fill="#FEFEFE" transform="translate(0,300)"/>
<path d="M0 0 C4.95 0 9.9 0 15 0 C15 4.95 15 9.9 15 15 C10.05 15 5.1 15 0 15 C0 10.05 0 5.1 0 0 Z " fill="#FEFEFE" transform="translate(375,285)"/>
<path d="M0 0 C4.95 0 9.9 0 15 0 C15 4.95 15 9.9 15 15 C10.05 15 5.1 15 0 15 C0 10.05 0 5.1 0 0 Z " fill="#FEFEFE" transform="translate(15,285)"/>
<path d="M0 0 C4.95 0 9.9 0 15 0 C15 4.95 15 9.9 15 15 C10.05 15 5.1 15 0 15 C0 10.05 0 5.1 0 0 Z " fill="#E6E6E6" transform="translate(0,285)"/>
<path d="M0 0 C4.95 0 9.9 0 15 0 C15 4.95 15 9.9 15 15 C10.05 15 5.1 15 0 15 C0 10.05 0 5.1 0 0 Z " fill="#E7E7E7" transform="translate(375,270)"/>
<path d="M0 0 C4.95 0 9.9 0 15 0 C15 4.95 15 9.9 15 15 C10.05 15 5.1 15 0 15 C0 10.05 0 5.1 0 0 Z " fill="#FEFEFE" transform="translate(0,270)"/>
<path d="M0 0 C4.95 0 9.9 0 15 0 C15 4.95 15 9.9 15 15 C10.05 15 5.1 15 0 15 C0 10.05 0 5.1 0 0 Z " fill="#E6E6E6" transform="translate(0,255)"/>
<path d="M0 0 C4.95 0 9.9 0 15 0 C15 4.95 15 9.9 15 15 C10.05 15 5.1 15 0 15 C0 10.05 0 5.1 0 0 Z " fill="#FEFEFE" transform="translate(0,240)"/>
<path d="M0 0 C4.95 0 9.9 0 15 0 C15 4.95 15 9.9 15 15 C10.05 15 5.1 15 0 15 C0 10.05 0 5.1 0 0 Z " fill="#FEFEFE" transform="translate(0,210)"/>
<path d="M0 0 C4.95 0 9.9 0 15 0 C15 4.95 15 9.9 15 15 C10.05 15 5.1 15 0 15 C0 10.05 0 5.1 0 0 Z " fill="#FEFEFE" transform="translate(0,150)"/>
<path d="M0 0 C4.95 0 9.9 0 15 0 C15 4.95 15 9.9 15 15 C10.05 15 5.1 15 0 15 C0 10.05 0 5.1 0 0 Z " fill="#E6E6E6" transform="translate(375,120)"/>
<path d="M0 0 C4.95 0 9.9 0 15 0 C15 4.95 15 9.9 15 15 C10.05 15 5.1 15 0 15 C0 10.05 0 5.1 0 0 Z " fill="#FEFEFE" transform="translate(0,120)"/>
<path d="M0 0 C4.95 0 9.9 0 15 0 C15 4.95 15 9.9 15 15 C10.05 15 5.1 15 0 15 C0 10.05 0 5.1 0 0 Z " fill="#FEFEFE" transform="translate(375,105)"/>
<path d="M0 0 C4.95 0 9.9 0 15 0 C15 4.95 15 9.9 15 15 C10.05 15 5.1 15 0 15 C0 10.05 0 5.1 0 0 Z " fill="#FEFEFE" transform="translate(15,105)"/>
<path d="M0 0 C4.95 0 9.9 0 15 0 C15 4.95 15 9.9 15 15 C10.05 15 5.1 15 0 15 C0 10.05 0 5.1 0 0 Z " fill="#E6E6E6" transform="translate(0,105)"/>
<path d="M0 0 C4.95 0 9.9 0 15 0 C15 4.95 15 9.9 15 15 C10.05 15 5.1 15 0 15 C0 10.05 0 5.1 0 0 Z " fill="#E7E7E7" transform="translate(375,90)"/>
<path d="M0 0 C4.95 0 9.9 0 15 0 C15 4.95 15 9.9 15 15 C10.05 15 5.1 15 0 15 C0 10.05 0 5.1 0 0 Z " fill="#FEFEFE" transform="translate(360,90)"/>
<path d="M0 0 C4.95 0 9.9 0 15 0 C15 4.95 15 9.9 15 15 C10.05 15 5.1 15 0 15 C0 10.05 0 5.1 0 0 Z " fill="#E7E7E7" transform="translate(15,90)"/>
<path d="M0 0 C4.95 0 9.9 0 15 0 C15 4.95 15 9.9 15 15 C10.05 15 5.1 15 0 15 C0 10.05 0 5.1 0 0 Z " fill="#FEFEFE" transform="translate(0,90)"/>
<path d="M0 0 C4.95 0 9.9 0 15 0 C15 4.95 15 9.9 15 15 C10.05 15 5.1 15 0 15 C0 10.05 0 5.1 0 0 Z " fill="#FEFEFE" transform="translate(375,75)"/>
<path d="M0 0 C4.95 0 9.9 0 15 0 C15 4.95 15 9.9 15 15 C10.05 15 5.1 15 0 15 C0 10.05 0 5.1 0 0 Z " fill="#E6E6E6" transform="translate(360,75)"/>
<path d="M0 0 C4.95 0 9.9 0 15 0 C15 4.95 15 9.9 15 15 C10.05 15 5.1 15 0 15 C0 10.05 0 5.1 0 0 Z " fill="#E6E6E6" transform="translate(30,75)"/>
<path d="M0 0 C4.95 0 9.9 0 15 0 C15 4.95 15 9.9 15 15 C10.05 15 5.1 15 0 15 C0 10.05 0 5.1 0 0 Z " fill="#FEFEFE" transform="translate(15,75)"/>
<path d="M0 0 C4.95 0 9.9 0 15 0 C15 4.95 15 9.9 15 15 C10.05 15 5.1 15 0 15 C0 10.05 0 5.1 0 0 Z " fill="#E7E7E7" transform="translate(0,75)"/>
<path d="M0 0 C4.95 0 9.9 0 15 0 C15 4.95 15 9.9 15 15 C10.05 15 5.1 15 0 15 C0 10.05 0 5.1 0 0 Z " fill="#E7E7E7" transform="translate(375,60)"/>
<path d="M0 0 C4.95 0 9.9 0 15 0 C15 4.95 15 9.9 15 15 C10.05 15 5.1 15 0 15 C0 10.05 0 5.1 0 0 Z " fill="#FEFEFE" transform="translate(360,60)"/>
<path d="M0 0 C4.95 0 9.9 0 15 0 C15 4.95 15 9.9 15 15 C10.05 15 5.1 15 0 15 C0 10.05 0 5.1 0 0 Z " fill="#E6E6E6" transform="translate(345,60)"/>
<path d="M0 0 C4.95 0 9.9 0 15 0 C15 4.95 15 9.9 15 15 C10.05 15 5.1 15 0 15 C0 10.05 0 5.1 0 0 Z " fill="#E7E7E7" transform="translate(45,60)"/>
<path d="M0 0 C4.95 0 9.9 0 15 0 C15 4.95 15 9.9 15 15 C10.05 15 5.1 15 0 15 C0 10.05 0 5.1 0 0 Z " fill="#FEFEFE" transform="translate(30,60)"/>
<path d="M0 0 C4.95 0 9.9 0 15 0 C15 4.95 15 9.9 15 15 C10.05 15 5.1 15 0 15 C0 10.05 0 5.1 0 0 Z " fill="#E7E7E7" transform="translate(15,60)"/>
<path d="M0 0 C4.95 0 9.9 0 15 0 C15 4.95 15 9.9 15 15 C10.05 15 5.1 15 0 15 C0 10.05 0 5.1 0 0 Z " fill="#FEFEFE" transform="translate(0,60)"/>
<path d="M0 0 C4.95 0 9.9 0 15 0 C15 4.95 15 9.9 15 15 C10.05 15 5.1 15 0 15 C0 10.05 0 5.1 0 0 Z " fill="#FEFEFE" transform="translate(375,45)"/>
<path d="M0 0 C4.95 0 9.9 0 15 0 C15 4.95 15 9.9 15 15 C10.05 15 5.1 15 0 15 C0 10.05 0 5.1 0 0 Z " fill="#E7E7E7" transform="translate(360,45)"/>
<path d="M0 0 C4.95 0 9.9 0 15 0 C15 4.95 15 9.9 15 15 C10.05 15 5.1 15 0 15 C0 10.05 0 5.1 0 0 Z " fill="#FEFEFE" transform="translate(345,45)"/>
<path d="M0 0 C4.95 0 9.9 0 15 0 C15 4.95 15 9.9 15 15 C10.05 15 5.1 15 0 15 C0 10.05 0 5.1 0 0 Z " fill="#E6E6E6" transform="translate(330,45)"/>
<path d="M0 0 C4.95 0 9.9 0 15 0 C15 4.95 15 9.9 15 15 C10.05 15 5.1 15 0 15 C0 10.05 0 5.1 0 0 Z " fill="#E7E7E7" transform="translate(60,45)"/>
<path d="M0 0 C4.95 0 9.9 0 15 0 C15 4.95 15 9.9 15 15 C10.05 15 5.1 15 0 15 C0 10.05 0 5.1 0 0 Z " fill="#FEFEFE" transform="translate(45,45)"/>
<path d="M0 0 C4.95 0 9.9 0 15 0 C15 4.95 15 9.9 15 15 C10.05 15 5.1 15 0 15 C0 10.05 0 5.1 0 0 Z " fill="#E6E6E6" transform="translate(30,45)"/>
<path d="M0 0 C4.95 0 9.9 0 15 0 C15 4.95 15 9.9 15 15 C10.05 15 5.1 15 0 15 C0 10.05 0 5.1 0 0 Z " fill="#FEFEFE" transform="translate(15,45)"/>
<path d="M0 0 C4.95 0 9.9 0 15 0 C15 4.95 15 9.9 15 15 C10.05 15 5.1 15 0 15 C0 10.05 0 5.1 0 0 Z " fill="#E6E6E6" transform="translate(0,45)"/>
<path d="M0 0 C4.95 0 9.9 0 15 0 C15 4.95 15 9.9 15 15 C10.05 15 5.1 15 0 15 C0 10.05 0 5.1 0 0 Z " fill="#E7E7E7" transform="translate(375,30)"/>
<path d="M0 0 C4.95 0 9.9 0 15 0 C15 4.95 15 9.9 15 15 C10.05 15 5.1 15 0 15 C0 10.05 0 5.1 0 0 Z " fill="#FEFEFE" transform="translate(360,30)"/>
<path d="M0 0 C4.95 0 9.9 0 15 0 C15 4.95 15 9.9 15 15 C10.05 15 5.1 15 0 15 C0 10.05 0 5.1 0 0 Z " fill="#E6E6E6" transform="translate(345,30)"/>
<path d="M0 0 C4.95 0 9.9 0 15 0 C15 4.95 15 9.9 15 15 C10.05 15 5.1 15 0 15 C0 10.05 0 5.1 0 0 Z " fill="#FEFEFE" transform="translate(330,30)"/>
<path d="M0 0 C4.95 0 9.9 0 15 0 C15 4.95 15 9.9 15 15 C10.05 15 5.1 15 0 15 C0 10.05 0 5.1 0 0 Z " fill="#E7E7E7" transform="translate(315,30)"/>
<path d="M0 0 C4.95 0 9.9 0 15 0 C15 4.95 15 9.9 15 15 C10.05 15 5.1 15 0 15 C0 10.05 0 5.1 0 0 Z " fill="#E7E7E7" transform="translate(75,30)"/>
<path d="M0 0 C4.95 0 9.9 0 15 0 C15 4.95 15 9.9 15 15 C10.05 15 5.1 15 0 15 C0 10.05 0 5.1 0 0 Z " fill="#FEFEFE" transform="translate(60,30)"/>
<path d="M0 0 C4.95 0 9.9 0 15 0 C15 4.95 15 9.9 15 15 C10.05 15 5.1 15 0 15 C0 10.05 0 5.1 0 0 Z " fill="#E7E7E7" transform="translate(45,30)"/>
<path d="M0 0 C4.95 0 9.9 0 15 0 C15 4.95 15 9.9 15 15 C10.05 15 5.1 15 0 15 C0 10.05 0 5.1 0 0 Z " fill="#FFFFFF" transform="translate(30,30)"/>
<path d="M0 0 C4.95 0 9.9 0 15 0 C15 4.95 15 9.9 15 15 C10.05 15 5.1 15 0 15 C0 10.05 0 5.1 0 0 Z " fill="#E7E7E7" transform="translate(15,30)"/>
<path d="M0 0 C4.95 0 9.9 0 15 0 C15 4.95 15 9.9 15 15 C10.05 15 5.1 15 0 15 C0 10.05 0 5.1 0 0 Z " fill="#FEFEFE" transform="translate(0,30)"/>
<path d="M0 0 C4.95 0 9.9 0 15 0 C15 4.95 15 9.9 15 15 C10.05 15 5.1 15 0 15 C0 10.05 0 5.1 0 0 Z " fill="#FEFEFE" transform="translate(375,15)"/>
<path d="M0 0 C4.95 0 9.9 0 15 0 C15 4.95 15 9.9 15 15 C10.05 15 5.1 15 0 15 C0 10.05 0 5.1 0 0 Z " fill="#E7E7E7" transform="translate(360,15)"/>
<path d="M0 0 C4.95 0 9.9 0 15 0 C15 4.95 15 9.9 15 15 C10.05 15 5.1 15 0 15 C0 10.05 0 5.1 0 0 Z " fill="#FEFEFE" transform="translate(345,15)"/>
<path d="M0 0 C4.95 0 9.9 0 15 0 C15 4.95 15 9.9 15 15 C10.05 15 5.1 15 0 15 C0 10.05 0 5.1 0 0 Z " fill="#E6E6E6" transform="translate(330,15)"/>
<path d="M0 0 C4.95 0 9.9 0 15 0 C15 4.95 15 9.9 15 15 C10.05 15 5.1 15 0 15 C0 10.05 0 5.1 0 0 Z " fill="#FEFEFE" transform="translate(315,15)"/>
<path d="M0 0 C4.95 0 9.9 0 15 0 C15 4.95 15 9.9 15 15 C10.05 15 5.1 15 0 15 C0 10.05 0 5.1 0 0 Z " fill="#E7E7E7" transform="translate(300,15)"/>
<path d="M0 0 C4.95 0 9.9 0 15 0 C15 4.95 15 9.9 15 15 C10.05 15 5.1 15 0 15 C0 10.05 0 5.1 0 0 Z " fill="#FEFEFE" transform="translate(285,15)"/>
<path d="M0 0 C4.95 0 9.9 0 15 0 C15 4.95 15 9.9 15 15 C10.05 15 5.1 15 0 15 C0 10.05 0 5.1 0 0 Z " fill="#FEFEFE" transform="translate(105,15)"/>
<path d="M0 0 C4.95 0 9.9 0 15 0 C15 4.95 15 9.9 15 15 C10.05 15 5.1 15 0 15 C0 10.05 0 5.1 0 0 Z " fill="#E6E6E6" transform="translate(90,15)"/>
<path d="M0 0 C4.95 0 9.9 0 15 0 C15 4.95 15 9.9 15 15 C10.05 15 5.1 15 0 15 C0 10.05 0 5.1 0 0 Z " fill="#FEFEFE" transform="translate(75,15)"/>
<path d="M0 0 C4.95 0 9.9 0 15 0 C15 4.95 15 9.9 15 15 C10.05 15 5.1 15 0 15 C0 10.05 0 5.1 0 0 Z " fill="#E7E7E7" transform="translate(60,15)"/>
<path d="M0 0 C4.95 0 9.9 0 15 0 C15 4.95 15 9.9 15 15 C10.05 15 5.1 15 0 15 C0 10.05 0 5.1 0 0 Z " fill="#FEFEFE" transform="translate(45,15)"/>
<path d="M0 0 C4.95 0 9.9 0 15 0 C15 4.95 15 9.9 15 15 C10.05 15 5.1 15 0 15 C0 10.05 0 5.1 0 0 Z " fill="#E7E7E7" transform="translate(30,15)"/>
<path d="M0 0 C4.95 0 9.9 0 15 0 C15 4.95 15 9.9 15 15 C10.05 15 5.1 15 0 15 C0 10.05 0 5.1 0 0 Z " fill="#FEFEFE" transform="translate(15,15)"/>
<path d="M0 0 C4.95 0 9.9 0 15 0 C15 4.95 15 9.9 15 15 C10.05 15 5.1 15 0 15 C0 10.05 0 5.1 0 0 Z " fill="#E6E6E6" transform="translate(0,15)"/>
<path d="M0 0 C4.95 0 9.9 0 15 0 C15 4.95 15 9.9 15 15 C10.05 15 5.1 15 0 15 C0 10.05 0 5.1 0 0 Z " fill="#FEFEFE" transform="translate(360,0)"/>
<path d="M0 0 C4.95 0 9.9 0 15 0 C15 4.95 15 9.9 15 15 C10.05 15 5.1 15 0 15 C0 10.05 0 5.1 0 0 Z " fill="#E7E7E7" transform="translate(345,0)"/>
<path d="M0 0 C4.95 0 9.9 0 15 0 C15 4.95 15 9.9 15 15 C10.05 15 5.1 15 0 15 C0 10.05 0 5.1 0 0 Z " fill="#FEFEFE" transform="translate(330,0)"/>
<path d="M0 0 C4.95 0 9.9 0 15 0 C15 4.95 15 9.9 15 15 C10.05 15 5.1 15 0 15 C0 10.05 0 5.1 0 0 Z " fill="#E7E7E7" transform="translate(315,0)"/>
<path d="M0 0 C4.95 0 9.9 0 15 0 C15 4.95 15 9.9 15 15 C10.05 15 5.1 15 0 15 C0 10.05 0 5.1 0 0 Z " fill="#FEFEFE" transform="translate(300,0)"/>
<path d="M0 0 C4.95 0 9.9 0 15 0 C15 4.95 15 9.9 15 15 C10.05 15 5.1 15 0 15 C0 10.05 0 5.1 0 0 Z " fill="#E7E7E7" transform="translate(285,0)"/>
<path d="M0 0 C4.95 0 9.9 0 15 0 C15 4.95 15 9.9 15 15 C10.05 15 5.1 15 0 15 C0 10.05 0 5.1 0 0 Z " fill="#FEFEFE" transform="translate(270,0)"/>
<path d="M0 0 C4.95 0 9.9 0 15 0 C15 4.95 15 9.9 15 15 C10.05 15 5.1 15 0 15 C0 10.05 0 5.1 0 0 Z " fill="#FEFEFE" transform="translate(240,0)"/>
<path d="M0 0 C4.95 0 9.9 0 15 0 C15 4.95 15 9.9 15 15 C10.05 15 5.1 15 0 15 C0 10.05 0 5.1 0 0 Z " fill="#FEFEFE" transform="translate(150,0)"/>
<path d="M0 0 C4.95 0 9.9 0 15 0 C15 4.95 15 9.9 15 15 C10.05 15 5.1 15 0 15 C0 10.05 0 5.1 0 0 Z " fill="#FEFEFE" transform="translate(120,0)"/>
<path d="M0 0 C4.95 0 9.9 0 15 0 C15 4.95 15 9.9 15 15 C10.05 15 5.1 15 0 15 C0 10.05 0 5.1 0 0 Z " fill="#E7E7E7" transform="translate(105,0)"/>
<path d="M0 0 C4.95 0 9.9 0 15 0 C15 4.95 15 9.9 15 15 C10.05 15 5.1 15 0 15 C0 10.05 0 5.1 0 0 Z " fill="#FEFEFE" transform="translate(90,0)"/>
<path d="M0 0 C4.95 0 9.9 0 15 0 C15 4.95 15 9.9 15 15 C10.05 15 5.1 15 0 15 C0 10.05 0 5.1 0 0 Z " fill="#E7E7E7" transform="translate(75,0)"/>
<path d="M0 0 C4.95 0 9.9 0 15 0 C15 4.95 15 9.9 15 15 C10.05 15 5.1 15 0 15 C0 10.05 0 5.1 0 0 Z " fill="#FEFEFE" transform="translate(60,0)"/>
<path d="M0 0 C4.95 0 9.9 0 15 0 C15 4.95 15 9.9 15 15 C10.05 15 5.1 15 0 15 C0 10.05 0 5.1 0 0 Z " fill="#E7E7E7" transform="translate(45,0)"/>
<path d="M0 0 C4.95 0 9.9 0 15 0 C15 4.95 15 9.9 15 15 C10.05 15 5.1 15 0 15 C0 10.05 0 5.1 0 0 Z " fill="#FEFEFE" transform="translate(30,0)"/>
<path d="M0 0 C4.95 0 9.9 0 15 0 C15 4.95 15 9.9 15 15 C10.05 15 5.1 15 0 15 C0 10.05 0 5.1 0 0 Z " fill="#FEFEFE" transform="translate(0,0)"/>
<path d="M0 0 C9.9609375 -0.1953125 9.9609375 -0.1953125 13 0 C15 2 15 2 15.1953125 5.0390625 C15.13020833 8.359375 15.06510417 11.6796875 15 15 C10.05 15 5.1 15 0 15 C0 10.05 0 5.1 0 0 Z " fill="#FEFEFD" transform="translate(75,345)"/>
<path d="M0 0 C4.95 0 9.9 0 15 0 C14.67 4.95 14.34 9.9 14 15 C9.38 15 4.76 15 0 15 C0 10.05 0 5.1 0 0 Z " fill="#FEFEFD" transform="translate(0,180)"/>
<path d="M0 0 C4.95 0 9.9 0 15 0 C15 4.95 15 9.9 15 15 C9.47322267 15.19392201 5.24385089 14.7479503 0 13 C0 8.71 0 4.42 0 0 Z " fill="#FEFEFE" transform="translate(300,30)"/>
<path d="M0 0 C0 4.95 0 9.9 0 15 C-4.95 15 -9.9 15 -15 15 C-15 11.7 -15 8.4 -15 5 C-16.32 4.67 -17.64 4.34 -19 4 C-16.39688008 3.32900016 -13.79264602 2.66304662 -11.1875 2 C-10.44951172 1.80921875 -9.71152344 1.6184375 -8.95117188 1.421875 C-5.89464659 0.64737086 -3.16626522 0 0 0 Z " fill="#E7E5E4" transform="translate(255,375)"/>
<path d="M0 0 C4.95 0 9.9 0 15 0 C15 4.29 15 8.58 15 13 C8.4 13 1.8 13 -5 13 C-5 12.67 -5 12.34 -5 12 C-3.35 12 -1.7 12 0 12 C0 8.04 0 4.08 0 0 Z " fill="#EAE2E1" transform="translate(195,0)"/>
<path d="M0 0 C4.95 0 9.9 0 15 0 C15 4.29 15 8.58 15 13 C10.05 13 5.1 13 0 13 C0 8.71 0 4.42 0 0 Z " fill="#FEFEFD" transform="translate(210,0)"/>
<path d="M0 0 C0.33 0.66 0.66 1.32 1 2 C3.97 2 6.94 2 10 2 C10 6.95 10 11.9 10 17 C5.71 17 1.42 17 -3 17 C-3 17.66 -3 18.32 -3 19 C-3.66 19 -4.32 19 -5 19 C-4.35720991 16.20760027 -3.71091335 13.41609416 -3.0625 10.625 C-2.88009766 9.8309375 -2.69769531 9.036875 -2.50976562 8.21875 C-2.33251953 7.45820313 -2.15527344 6.69765625 -1.97265625 5.9140625 C-1.81031494 5.2123291 -1.64797363 4.5105957 -1.48071289 3.78759766 C-1 2 -1 2 0 0 Z " fill="#EAE2E1" transform="translate(380,238)"/>
<path d="M0 0 C4.95 0 9.9 0 15 0 C15 3.96 15 7.92 15 12 C9.74364995 13.05127001 5.33678117 13.07115708 0 13 C0 8.71 0 4.42 0 0 Z " fill="#FEFDFD" transform="translate(180,0)"/>
<path d="M0 0 C0 3.96 0 7.92 0 12 C-9.57 12 -19.14 12 -29 12 C-26.93904566 9.93904566 -25.75348568 9.37895827 -23.078125 8.37890625 C-22.29953125 8.08306641 -21.5209375 7.78722656 -20.71875 7.48242188 C-19.9040625 7.17884766 -19.089375 6.87527344 -18.25 6.5625 C-11.82871175 4.15544441 -11.82871175 4.15544441 -5.609375 1.27734375 C-3 0 -3 0 0 0 Z " fill="#FEF9F8" transform="translate(285,363)"/>
<path d="M0 0 C6.08233706 0.67581523 12.01314152 1.73638028 18 3 C17.01 3.33 16.02 3.66 15 4 C15 6.97 15 9.94 15 13 C10.05 13 5.1 13 0 13 C0 8.71 0 4.42 0 0 Z " fill="#E9E4E4" transform="translate(150,377)"/>
<path d="M0 0 C4.95 0 9.9 0 15 0 C15 4.95 15 9.9 15 15 C12.69 15.66 10.38 16.32 8 17 C4.04 8.585 4.04 8.585 0 0 Z " fill="#EAE3E3" transform="translate(360,105)"/>
<path d="M0 0 C2.97 0 5.94 0 9 0 C11.25684543 5.36000789 12.36263859 9.1977825 12 15 C8.04 15 4.08 15 0 15 C0 10.05 0 5.1 0 0 Z " fill="#FEFCFB" transform="translate(15,255)"/>
<path d="M0 0 C1.05932236 0.00040787 1.05932236 0.00040787 2.14004517 0.00082397 C17.02070315 0.0271756 30.7750395 1.46961631 45.25 5.1875 C45.25 5.5175 45.25 5.8475 45.25 6.1875 C40.33123854 6.4712747 36.43343128 6.05769741 31.68969727 4.69628906 C25.5160765 3.10606323 19.81450111 2.78101376 13.46484375 2.859375 C12.40133194 2.86124817 11.33782013 2.86312134 10.24208069 2.86505127 C8.01950899 2.87171495 5.79694785 2.88551394 3.57446289 2.90625 C0.16476607 2.93770976 -3.24446853 2.94725989 -6.65429688 2.953125 C-8.82292234 2.96228464 -10.9915431 2.97265708 -13.16015625 2.984375 C-14.17884293 2.98862488 -15.1975296 2.99287476 -16.24708557 2.99725342 C-17.18914352 3.00686096 -18.13120148 3.01646851 -19.10180664 3.02636719 C-19.92943008 3.03319519 -20.75705353 3.04002319 -21.60975647 3.04705811 C-23.93678522 3.10896701 -23.93678522 3.10896701 -26.75 4.1875 C-28.47795352 4.25552967 -30.20835365 4.27245645 -31.9375 4.25 C-32.83855469 4.24097656 -33.73960937 4.23195313 -34.66796875 4.22265625 C-35.35503906 4.21105469 -36.04210937 4.19945312 -36.75 4.1875 C-36.75 4.8475 -36.75 5.5075 -36.75 6.1875 C-38.80078125 6.41536458 -40.8515625 6.64322917 -42.90234375 6.87109375 C-44.76140229 7.00636614 -44.76140229 7.00636614 -45.75 8.1875 C-48.42058851 8.32865161 -51.07432238 8.22997107 -53.75 8.1875 C-49.42391513 5.30344342 -44.85383417 4.70095289 -39.8125 3.625 C-38.82958984 3.40392578 -37.84667969 3.18285156 -36.83398438 2.95507812 C-24.6094064 0.30868486 -12.465899 -0.01809221 0 0 Z " fill="#E1726E" transform="translate(199.75,12.8125)"/>
<path d="M0 0 C0.33 0 0.66 0 1 0 C1 8.91 1 17.82 1 27 C-2.63 27 -6.26 27 -10 27 C-9.26884347 23.34421734 -8.61600019 20.77537095 -7.1875 17.4609375 C-6.65769531 16.21957031 -6.65769531 16.21957031 -6.1171875 14.953125 C-5.74851562 14.10234375 -5.37984375 13.2515625 -5 12.375 C-4.26991545 10.67487304 -3.54071082 8.97436787 -2.8125 7.2734375 C-2.48894531 6.52497559 -2.16539062 5.77651367 -1.83203125 5.00537109 C-1.15115291 3.36431045 -0.56184298 1.68552895 0 0 Z " fill="#FEF9F9" transform="translate(374,258)"/>
<path d="M0 0 C4.95 0 9.9 0 15 0 C15 3.3 15 6.6 15 10 C10.05 10 5.1 10 0 10 C0 6.7 0 3.4 0 0 Z " fill="#FEFEFE" transform="translate(360,390)"/>
<path d="M0 0 C4.95 0 9.9 0 15 0 C15 3.3 15 6.6 15 10 C10.05 10 5.1 10 0 10 C0 6.7 0 3.4 0 0 Z " fill="#E7E7E7" transform="translate(345,390)"/>
<path d="M0 0 C4.95 0 9.9 0 15 0 C15 3.3 15 6.6 15 10 C10.05 10 5.1 10 0 10 C0 6.7 0 3.4 0 0 Z " fill="#FEFEFE" transform="translate(330,390)"/>
<path d="M0 0 C4.95 0 9.9 0 15 0 C15 3.3 15 6.6 15 10 C10.05 10 5.1 10 0 10 C0 6.7 0 3.4 0 0 Z " fill="#E7E7E7" transform="translate(315,390)"/>
<path d="M0 0 C4.95 0 9.9 0 15 0 C15 3.3 15 6.6 15 10 C10.05 10 5.1 10 0 10 C0 6.7 0 3.4 0 0 Z " fill="#FEFEFE" transform="translate(300,390)"/>
<path d="M0 0 C4.95 0 9.9 0 15 0 C15 3.3 15 6.6 15 10 C10.05 10 5.1 10 0 10 C0 6.7 0 3.4 0 0 Z " fill="#E7E7E7" transform="translate(285,390)"/>
<path d="M0 0 C4.95 0 9.9 0 15 0 C15 3.3 15 6.6 15 10 C10.05 10 5.1 10 0 10 C0 6.7 0 3.4 0 0 Z " fill="#FEFEFE" transform="translate(270,390)"/>
<path d="M0 0 C4.95 0 9.9 0 15 0 C15 3.3 15 6.6 15 10 C10.05 10 5.1 10 0 10 C0 6.7 0 3.4 0 0 Z " fill="#E7E7E7" transform="translate(255,390)"/>
<path d="M0 0 C4.95 0 9.9 0 15 0 C15 3.3 15 6.6 15 10 C10.05 10 5.1 10 0 10 C0 6.7 0 3.4 0 0 Z " fill="#FEFEFE" transform="translate(240,390)"/>
<path d="M0 0 C4.95 0 9.9 0 15 0 C15 3.3 15 6.6 15 10 C10.05 10 5.1 10 0 10 C0 6.7 0 3.4 0 0 Z " fill="#FEFEFE" transform="translate(210,390)"/>
<path d="M0 0 C4.95 0 9.9 0 15 0 C15 3.3 15 6.6 15 10 C10.05 10 5.1 10 0 10 C0 6.7 0 3.4 0 0 Z " fill="#FEFEFE" transform="translate(180,390)"/>
<path d="M0 0 C4.95 0 9.9 0 15 0 C15 3.3 15 6.6 15 10 C10.05 10 5.1 10 0 10 C0 6.7 0 3.4 0 0 Z " fill="#FEFEFE" transform="translate(150,390)"/>
<path d="M0 0 C4.95 0 9.9 0 15 0 C15 3.3 15 6.6 15 10 C10.05 10 5.1 10 0 10 C0 6.7 0 3.4 0 0 Z " fill="#E7E7E7" transform="translate(135,390)"/>
<path d="M0 0 C4.95 0 9.9 0 15 0 C15 3.3 15 6.6 15 10 C10.05 10 5.1 10 0 10 C0 6.7 0 3.4 0 0 Z " fill="#FEFEFE" transform="translate(120,390)"/>
<path d="M0 0 C4.95 0 9.9 0 15 0 C15 3.3 15 6.6 15 10 C10.05 10 5.1 10 0 10 C0 6.7 0 3.4 0 0 Z " fill="#E7E7E7" transform="translate(105,390)"/>
<path d="M0 0 C4.95 0 9.9 0 15 0 C15 3.3 15 6.6 15 10 C10.05 10 5.1 10 0 10 C0 6.7 0 3.4 0 0 Z " fill="#FEFEFE" transform="translate(90,390)"/>
<path d="M0 0 C4.95 0 9.9 0 15 0 C15 3.3 15 6.6 15 10 C10.05 10 5.1 10 0 10 C0 6.7 0 3.4 0 0 Z " fill="#E7E7E7" transform="translate(75,390)"/>
<path d="M0 0 C4.95 0 9.9 0 15 0 C15 3.3 15 6.6 15 10 C10.05 10 5.1 10 0 10 C0 6.7 0 3.4 0 0 Z " fill="#FEFEFE" transform="translate(60,390)"/>
<path d="M0 0 C4.95 0 9.9 0 15 0 C15 3.3 15 6.6 15 10 C10.05 10 5.1 10 0 10 C0 6.7 0 3.4 0 0 Z " fill="#E7E7E7" transform="translate(45,390)"/>
<path d="M0 0 C4.95 0 9.9 0 15 0 C15 3.3 15 6.6 15 10 C10.05 10 5.1 10 0 10 C0 6.7 0 3.4 0 0 Z " fill="#FEFEFE" transform="translate(30,390)"/>
<path d="M0 0 C4.95 0 9.9 0 15 0 C15 3.3 15 6.6 15 10 C10.05 10 5.1 10 0 10 C0 6.7 0 3.4 0 0 Z " fill="#E7E7E7" transform="translate(15,390)"/>
<path d="M0 0 C4.95 0 9.9 0 15 0 C15 3.3 15 6.6 15 10 C10.05 10 5.1 10 0 10 C0 6.7 0 3.4 0 0 Z " fill="#FEFEFE" transform="translate(0,390)"/>
<path d="M0 0 C3.3 0 6.6 0 10 0 C10 4.95 10 9.9 10 15 C6.7 15 3.4 15 0 15 C0 10.05 0 5.1 0 0 Z " fill="#E6E6E6" transform="translate(390,375)"/>
<path d="M0 0 C3.3 0 6.6 0 10 0 C10 4.95 10 9.9 10 15 C6.7 15 3.4 15 0 15 C0 10.05 0 5.1 0 0 Z " fill="#FEFEFE" transform="translate(390,360)"/>
<path d="M0 0 C3.3 0 6.6 0 10 0 C10 4.95 10 9.9 10 15 C6.7 15 3.4 15 0 15 C0 10.05 0 5.1 0 0 Z " fill="#E6E6E6" transform="translate(390,345)"/>
<path d="M0 0 C3.3 0 6.6 0 10 0 C10 4.95 10 9.9 10 15 C6.7 15 3.4 15 0 15 C0 10.05 0 5.1 0 0 Z " fill="#FEFEFE" transform="translate(390,330)"/>
<path d="M0 0 C3.3 0 6.6 0 10 0 C10 4.95 10 9.9 10 15 C6.7 15 3.4 15 0 15 C0 10.05 0 5.1 0 0 Z " fill="#E7E7E7" transform="translate(390,315)"/>
<path d="M0 0 C3.3 0 6.6 0 10 0 C10 4.95 10 9.9 10 15 C6.7 15 3.4 15 0 15 C0 10.05 0 5.1 0 0 Z " fill="#FEFEFE" transform="translate(390,300)"/>
<path d="M0 0 C3.3 0 6.6 0 10 0 C10 4.95 10 9.9 10 15 C6.7 15 3.4 15 0 15 C0 10.05 0 5.1 0 0 Z " fill="#E6E6E6" transform="translate(390,285)"/>
<path d="M0 0 C3.3 0 6.6 0 10 0 C10 4.95 10 9.9 10 15 C6.7 15 3.4 15 0 15 C0 10.05 0 5.1 0 0 Z " fill="#FEFEFE" transform="translate(390,270)"/>
<path d="M0 0 C3.3 0 6.6 0 10 0 C10 4.95 10 9.9 10 15 C6.7 15 3.4 15 0 15 C0 10.05 0 5.1 0 0 Z " fill="#E6E6E6" transform="translate(390,255)"/>
<path d="M0 0 C3.3 0 6.6 0 10 0 C10 4.95 10 9.9 10 15 C6.7 15 3.4 15 0 15 C0 10.05 0 5.1 0 0 Z " fill="#FEFEFE" transform="translate(390,240)"/>
<path d="M0 0 C3.3 0 6.6 0 10 0 C10 4.95 10 9.9 10 15 C6.7 15 3.4 15 0 15 C0 10.05 0 5.1 0 0 Z " fill="#E6E7E7" transform="translate(390,225)"/>
<path d="M0 0 C3.3 0 6.6 0 10 0 C10 4.95 10 9.9 10 15 C6.7 15 3.4 15 0 15 C0 10.05 0 5.1 0 0 Z " fill="#FEFEFE" transform="translate(390,210)"/>
<path d="M0 0 C3.3 0 6.6 0 10 0 C10 4.95 10 9.9 10 15 C6.7 15 3.4 15 0 15 C0 10.05 0 5.1 0 0 Z " fill="#FEFEFE" transform="translate(390,180)"/>
<path d="M0 0 C3.3 0 6.6 0 10 0 C10 4.95 10 9.9 10 15 C6.7 15 3.4 15 0 15 C0 10.05 0 5.1 0 0 Z " fill="#FEFEFE" transform="translate(390,150)"/>
<path d="M0 0 C3.3 0 6.6 0 10 0 C10 4.95 10 9.9 10 15 C6.7 15 3.4 15 0 15 C0 10.05 0 5.1 0 0 Z " fill="#E6E6E6" transform="translate(390,135)"/>
<path d="M0 0 C3.3 0 6.6 0 10 0 C10 4.95 10 9.9 10 15 C6.7 15 3.4 15 0 15 C0 10.05 0 5.1 0 0 Z " fill="#FEFEFE" transform="translate(390,120)"/>
<path d="M0 0 C3.3 0 6.6 0 10 0 C10 4.95 10 9.9 10 15 C6.7 15 3.4 15 0 15 C0 10.05 0 5.1 0 0 Z " fill="#E6E6E6" transform="translate(390,105)"/>
<path d="M0 0 C3.3 0 6.6 0 10 0 C10 4.95 10 9.9 10 15 C6.7 15 3.4 15 0 15 C0 10.05 0 5.1 0 0 Z " fill="#FEFEFE" transform="translate(390,90)"/>
<path d="M0 0 C3.3 0 6.6 0 10 0 C10 4.95 10 9.9 10 15 C6.7 15 3.4 15 0 15 C0 10.05 0 5.1 0 0 Z " fill="#E6E6E6" transform="translate(390,75)"/>
<path d="M0 0 C3.3 0 6.6 0 10 0 C10 4.95 10 9.9 10 15 C6.7 15 3.4 15 0 15 C0 10.05 0 5.1 0 0 Z " fill="#FEFEFE" transform="translate(390,60)"/>
<path d="M0 0 C3.3 0 6.6 0 10 0 C10 4.95 10 9.9 10 15 C6.7 15 3.4 15 0 15 C0 10.05 0 5.1 0 0 Z " fill="#E6E6E6" transform="translate(390,45)"/>
<path d="M0 0 C3.3 0 6.6 0 10 0 C10 4.95 10 9.9 10 15 C6.7 15 3.4 15 0 15 C0 10.05 0 5.1 0 0 Z " fill="#FEFEFE" transform="translate(390,30)"/>
<path d="M0 0 C3.3 0 6.6 0 10 0 C10 4.95 10 9.9 10 15 C6.7 15 3.4 15 0 15 C0 10.05 0 5.1 0 0 Z " fill="#E6E6E6" transform="translate(390,15)"/>
<path d="M0 0 C3.3 0 6.6 0 10 0 C10 4.95 10 9.9 10 15 C6.7 15 3.4 15 0 15 C0 10.05 0 5.1 0 0 Z " fill="#FEFEFE" transform="translate(390,0)"/>
<path d="M0 0 C0 3.3 0 6.6 0 10 C-4.95 10 -9.9 10 -15 10 C-15 7.36 -15 4.72 -15 2 C-10.07365343 -0.62738484 -5.44399329 -0.14517315 0 0 Z " fill="#FEFCFB" transform="translate(240,380)"/>
<path d="M0 0 C2.1519437 3.22791555 2.20086443 4.28400809 2 8 C3.65 8 5.3 8 7 8 C7 12.95 7 17.9 7 23 C5.35 23 3.7 23 2 23 C2.00523682 23.69561035 2.01047363 24.3912207 2.01586914 25.10791016 C2.03674337 28.28026413 2.04969332 31.45260361 2.0625 34.625 C2.07087891 35.71941406 2.07925781 36.81382812 2.08789062 37.94140625 C2.09111328 39.00488281 2.09433594 40.06835938 2.09765625 41.1640625 C2.10289307 42.13811035 2.10812988 43.1121582 2.11352539 44.11572266 C1.99414506 47.14875321 1.55866724 50.01915268 1 53 C0.67 53 0.34 53 0 53 C0 35.51 0 18.02 0 0 Z " fill="#EFD7D5" transform="translate(383,172)"/>
<path d="M0 0 C4.95 0 9.9 0 15 0 C15 3.63 15 7.26 15 11 C9.45949887 10.43174347 4.96284034 8.37113483 0 6 C0 4.02 0 2.04 0 0 Z " fill="#FEF8F8" transform="translate(255,15)"/>
<path d="M0 0 C1.74991334 -0.02715383 3.49994945 -0.04646551 5.25 -0.0625 C6.71179688 -0.07990234 6.71179688 -0.07990234 8.203125 -0.09765625 C10.65758678 -0.01195577 12.66168914 0.29293934 15 1 C15 3.64 15 6.28 15 9 C10.05 9 5.1 9 0 9 C0 6.03 0 3.06 0 0 Z " fill="#FEFCFB" transform="translate(165,381)"/>
<path d="M0 0 C2.64 0 5.28 0 8 0 C8 4.95 8 9.9 8 15 C5.03 15 2.06 15 -1 15 C-1.09038099 9.84828377 -0.84681133 5.08086796 0 0 Z " fill="#FEFAF9" transform="translate(382,225)"/>
<path d="M0 0 C3.3 0 6.6 0 10 0 C8 10.71428571 8 10.71428571 6 15 C4.02 15 2.04 15 0 15 C0 10.05 0 5.1 0 0 Z " fill="#FEFAF9" transform="translate(15,135)"/>
<path d="M0 0 C5.05485927 0.73094706 9.59903179 2.68380904 14.3125 4.5625 C15.56643555 5.0565332 15.56643555 5.0565332 16.84570312 5.56054688 C18.89863546 6.36998877 20.94997286 7.18323457 23 8 C23 8.33 23 8.66 23 9 C15.41 9 7.82 9 0 9 C0 6.03 0 3.06 0 0 Z " fill="#FEFAFA" transform="translate(120,366)"/>
<path d="M0 0 C6.27 0 12.54 0 19 0 C19 0.66 19 1.32 19 2 C25.6 2 32.2 2 39 2 C39 3.98 39 5.96 39 8 C34.14279164 7.0444836 29.29319876 6.06878818 24.45703125 5.01171875 C16.30971699 3.24049295 8.34062905 1.54692649 0 1 C0 0.67 0 0.34 0 0 Z " fill="#F0E9E9" transform="translate(216,13)"/>
<path d="M0 0 C3.3 0 6.6 0 10 0 C10 3.3 10 6.6 10 10 C6.7 10 3.4 10 0 10 C0 6.7 0 3.4 0 0 Z " fill="#FEFEFE" transform="translate(390,390)"/>
<path d="M0 0 C4.95 0 9.9 0 15 0 C14.67 1.65 14.34 3.3 14 5 C12.0429132 5.67031719 10.08428887 6.33614683 8.125 7 C7.03445312 7.37125 5.94390625 7.7425 4.8203125 8.125 C2 9 2 9 0 9 C0 6.03 0 3.06 0 0 Z " fill="#FEFAF9" transform="translate(135,15)"/>
<path d="M0 0 C2.31 0 4.62 0 7 0 C7 4.95 7 9.9 7 15 C5.35 15 3.7 15 2 15 C0.53329887 9.77487721 -0.22577402 5.4185766 0 0 Z " fill="#FEFEFE" transform="translate(383,165)"/>
<path d="M0 0 C1.98 0 3.96 0 6 0 C4.35 9.9 2.7 19.8 1 30 C0.34 30 -0.32 30 -1 30 C-0.67 20.1 -0.34 10.2 0 0 Z " fill="#F1DFDE" transform="translate(15,150)"/>
<path d="M0 0 C4.95 0 9.9 0 15 0 C15 1.98 15 3.96 15 6 C10.05 6 5.1 6 0 6 C0 4.02 0 2.04 0 0 Z " fill="#FEFDFD" transform="translate(195,384)"/>
<path d="M0 0 C4.95 0 9.9 0 15 0 C15 1.98 15 3.96 15 6 C10.05 6 5.1 6 0 6 C0 4.02 0 2.04 0 0 Z " fill="#E7E5E5" transform="translate(180,384)"/>
<path d="M0 0 C2.59397469 3.24246836 5.18566096 6.48430327 7.75 9.75 C8.36359375 10.52859375 8.9771875 11.3071875 9.609375 12.109375 C11 14 11 14 11 15 C7.37 15 3.74 15 0 15 C0 10.05 0 5.1 0 0 Z " fill="#ECDFDE" transform="translate(45,300)"/>
<path d="M0 0 C1.65 0 3.3 0 5 0 C5 4.95 5 9.9 5 15 C3.02 15 1.04 15 -1 15 C-0.67 10.05 -0.34 5.1 0 0 Z " fill="#E8E5E4" transform="translate(385,210)"/>
<path d="M0 0 C1.65 0 3.3 0 5 0 C5 4.95 5 9.9 5 15 C3.35 15 1.7 15 0 15 C0 10.05 0 5.1 0 0 Z " fill="#FEFBFB" transform="translate(385,195)"/>
<path d="M0 0 C2.97 0 5.94 0 9 0 C9 4.62 9 9.24 9 14 C6.14282277 11.14282277 4.28127071 9.17268022 2.25 5.875 C1.82203125 5.19179687 1.3940625 4.50859375 0.953125 3.8046875 C0 2 0 2 0 0 Z " fill="#ECDFDE" transform="translate(351,90)"/>
<path d="M0 0 C6.27 0 12.54 0 19 0 C19 0.33 19 0.66 19 1 C17.38544922 1.16435547 17.38544922 1.16435547 15.73828125 1.33203125 C7.54308345 2.20796895 -0.36356253 3.34499313 -8.36328125 5.4140625 C-11 6 -11 6 -15 6 C-15 4.68 -15 3.36 -15 2 C-10.05 2 -5.1 2 0 2 C0 1.34 0 0.68 0 0 Z " fill="#F4D5D6" transform="translate(165,13)"/>
<path d="M0 0 C4.70133003 3.42639308 9.01437117 6.76526936 13 11 C9.04 11 5.08 11 1 11 C0.67 7.37 0.34 3.74 0 0 Z " fill="#EDDEDF" transform="translate(74,334)"/>
<path d="M0 0 C1.65 0 3.3 0 5 0 C5 5.28 5 10.56 5 16 C2.78475999 13.04634666 1.50246281 11.27173958 0.25 8 C-0.01296875 7.34 -0.2759375 6.68 -0.546875 6 C-1.07564333 3.66612598 -0.7428952 2.24876386 0 0 Z " fill="#FDF5F3" transform="translate(370,120)"/>
<path d="M0 0 C0.33 0 0.66 0 1 0 C1.50612064 2.8740422 2.00506541 5.74902873 2.5 8.625 C2.64308594 9.43324219 2.78617188 10.24148437 2.93359375 11.07421875 C3.67876251 15.43877864 4.17272306 19.55238129 4 24 C2.68 24 1.36 24 0 24 C0 16.08 0 8.16 0 0 Z " fill="#FDEAE7" transform="translate(15,216)"/>
<path d="M0 0 C-4.20872298 2.17692568 -7.43483879 3.12422287 -12.1875 3.0625 C-13.08855469 3.05347656 -13.98960937 3.04445313 -14.91796875 3.03515625 C-15.60503906 3.02355469 -16.29210937 3.01195312 -17 3 C-17 3.66 -17 4.32 -17 5 C-19.05078125 5.22786458 -21.1015625 5.45572917 -23.15234375 5.68359375 C-25.01140229 5.81886614 -25.01140229 5.81886614 -26 7 C-28.67058851 7.14115161 -31.32432238 7.04247107 -34 7 C-29.61484518 4.07656345 -24.92162576 3.4686772 -19.8125 2.375 C-18.28786133 2.03082031 -18.28786133 2.03082031 -16.73242188 1.6796875 C-11.02437577 0.4415316 -5.83888554 -0.26572174 0 0 Z " fill="#E47976" transform="translate(180,14)"/>
<path d="M0 0 C6.75 5.5 6.75 5.5 9 10 C6.03 10 3.06 10 0 10 C0 6.7 0 3.4 0 0 Z " fill="#EDDDDB" transform="translate(60,320)"/>
<path d="M0 0 C4.29 0.66 8.58 1.32 13 2 C13 4.64 13 7.28 13 10 C11.57943722 9.08938284 10.16372295 8.17120011 8.75 7.25 C7.96109375 6.73953125 7.1721875 6.2290625 6.359375 5.703125 C4 4 4 4 0 0 Z " fill="#F7D6D2" transform="translate(302,43)"/>
<path d="M0 0 C0 0.99 0 1.98 0 3 C-0.99 3.33 -1.98 3.66 -3 4 C-4.20882096 6.00016466 -4.20882096 6.00016466 -5 8 C-5.66 8 -6.32 8 -7 8 C-7.2371875 8.60199219 -7.474375 9.20398438 -7.71875 9.82421875 C-9.29415598 12.49952708 -10.78308246 13.35259788 -13.5 14.8125 C-14.2940625 15.25207031 -15.088125 15.69164062 -15.90625 16.14453125 C-16.5971875 16.42683594 -17.288125 16.70914062 -18 17 C-18.66 16.67 -19.32 16.34 -20 16 C-19.14277344 15.34773438 -18.28554688 14.69546875 -17.40234375 14.0234375 C-11.46677723 9.49176904 -5.59890079 4.94786582 0 0 Z " fill="#F6D7D5" transform="translate(326,333)"/>
<path d="M0 0 C-0.33 1.65 -0.66 3.3 -1 5 C-5.62 5 -10.24 5 -15 5 C-12.62383533 2.62383533 -10.64650479 1.95931819 -7.5 0.8125 C-6.5203125 0.44769531 -5.540625 0.08289063 -4.53125 -0.29296875 C-2 -1 -2 -1 0 0 Z " fill="#F0DAD7" transform="translate(271,370)"/>
<path d="M0 0 C0 2 0 2 -2.125 4.25 C-3.07375 5.1575 -4.0225 6.065 -5 7 C-5.50402344 7.55945312 -6.00804688 8.11890625 -6.52734375 8.6953125 C-8.0625 10.375 -8.0625 10.375 -11 13 C-13.18359375 12.6640625 -13.18359375 12.6640625 -15 12 C-13.37660195 10.29115995 -11.70680947 8.62553283 -10 7 C-9.34 7 -8.68 7 -8 7 C-8 6.34 -8 5.68 -8 5 C-2.52380952 0 -2.52380952 0 0 0 Z " fill="#E87570" transform="translate(83,55)"/>
<path d="M0 0 C1.66611905 -0.042721 3.33382885 -0.04063832 5 0 C5.33 0.33 5.66 0.66 6 1 C7.32781878 1.20604085 8.66295895 1.3662959 10 1.5 C13.88888889 1.88888889 13.88888889 1.88888889 15 3 C16.34747084 3.23075082 17.70377565 3.41153063 19.0625 3.5625 C20.361875 3.706875 21.66125 3.85125 23 4 C23 4.66 23 5.32 23 6 C14.88861071 5.63379732 7.66964333 3.58459767 0 1 C0 0.67 0 0.34 0 0 Z " fill="#E17C77" transform="translate(141,373)"/>
<path d="M0 0 C3 1 3 1 4.1875 2.8125 C5 5 5 5 5 9 C3.35 9 1.7 9 0 9 C0 6.03 0 3.06 0 0 Z " fill="#FEF4F2" transform="translate(30,276)"/>
<path d="M0 0 C-0.1875 1.8125 -0.1875 1.8125 -1 4 C-4.66125071 6.92900057 -7.3824571 7.32215416 -12 7 C-9.20232475 3.70861735 -4.40323273 0 0 0 Z " fill="#E5706A" transform="translate(116,33)"/>
<path d="M0 0 C0.33 0 0.66 0 1 0 C1.29690629 4.19475303 0.40420965 6.81125569 -1.4375 10.5625 C-2.96538487 13.70097576 -4.29828898 16.57210133 -5 20 C-5.66 20 -6.32 20 -7 20 C-6.41161801 15.15888235 -4.92346884 11.03928805 -2.9375 6.625 C-2.65583984 5.98433594 -2.37417969 5.34367187 -2.08398438 4.68359375 C-1.39540579 3.11970341 -0.69855289 1.55946059 0 0 Z " fill="#E37772" transform="translate(32,118)"/>
<path d="M0 0 C2.16385601 3.24578402 2.7744171 5.65283567 3.625 9.4375 C3.88539063 10.57058594 4.14578125 11.70367187 4.4140625 12.87109375 C5 16 5 16 5 20 C4.34 20 3.68 20 3 20 C2.855625 18.865625 2.71125 17.73125 2.5625 16.5625 C2.38828522 13.19222799 2.38828522 13.19222799 1 12 C0.76572222 9.98405418 0.58663876 7.961526 0.4375 5.9375 C0.35371094 4.83277344 0.26992188 3.72804687 0.18359375 2.58984375 C0.09271484 1.30787109 0.09271484 1.30787109 0 0 Z " fill="#E17973" transform="translate(376,143)"/>
<path d="M0 0 C0.33 0 0.66 0 1 0 C1 3.96 1 7.92 1 12 C-0.65 12 -2.3 12 -4 12 C-2.68 8.04 -1.36 4.08 0 0 Z " fill="#F1D6D4" transform="translate(374,258)"/>
<path d="M0 0 C0.66 0 1.32 0 2 0 C3.7879537 6.8165735 4.23668569 12.96517526 4 20 C3.67 20 3.34 20 3 20 C2.49550598 17.41747107 1.99625699 14.83411297 1.5 12.25 C1.35691406 11.52039063 1.21382813 10.79078125 1.06640625 10.0390625 C0.41111121 6.60656468 0 3.50830509 0 0 Z " fill="#F7D4D2" transform="translate(379,150)"/>
<path d="M0 0 C4.95 0 9.9 0 15 0 C15 0.99 15 1.98 15 3 C15.99 3.33 16.98 3.66 18 4 C14.67429578 5.66285211 11.31639055 3.98079852 7.875 3.0625 C6.74384766 2.76956055 6.74384766 2.76956055 5.58984375 2.47070312 C3.72491694 1.98676642 1.86223541 1.49419231 0 1 C0 0.67 0 0.34 0 0 Z " fill="#F7CDCA" transform="translate(236,16)"/>
<path d="M0 0 C0.33 1.32 0.66 2.64 1 4 C0.34 4 -0.32 4 -1 4 C-1.268125 4.86625 -1.53625 5.7325 -1.8125 6.625 C-2.97111987 9.91791964 -4.38209839 12.91127875 -6 16 C-6.99 16 -7.98 16 -9 16 C-6.03 10.72 -3.06 5.44 0 0 Z " fill="#E07A74" transform="translate(42,100)"/>
<path d="M0 0 C6.27 0 12.54 0 19 0 C18.67 0.99 18.34 1.98 18 3 C12.06 2.34 6.12 1.68 0 1 C0 0.67 0 0.34 0 0 Z " fill="#F8D7D4" transform="translate(216,13)"/>
<path d="M0 0 C0 1.65 0 3.3 0 5 C-2.97 5 -5.94 5 -9 5 C-6.79132614 1.68698921 -4.18588809 0 0 0 Z " fill="#FEF7F5" transform="translate(300,355)"/>
<path d="M0 0 C1.98 0 3.96 0 6 0 C6 2.64 6 5.28 6 8 C3.33264727 5.51047079 1.44253657 3.36591866 0 0 Z " fill="#EFDFDB" transform="translate(339,75)"/>
<path d="M0 0 C7.42857143 1 7.42857143 1 11 2 C11 2.66 11 3.32 11 4 C12.32 4.66 13.64 5.32 15 6 C11.37149374 6 9.13832722 4.93046332 5.8125 3.5 C4.72582031 3.0359375 3.63914062 2.571875 2.51953125 2.09375 C1.68808594 1.7328125 0.85664063 1.371875 0 1 C0 0.67 0 0.34 0 0 Z " fill="#FADFDC" transform="translate(274,28)"/>
<path d="M0 0 C1 3 1 3 -0.0625 5.5625 C-2.44133938 8.55523341 -4.34410148 9.10633592 -8 10 C-7.59007812 9.52949219 -7.18015625 9.05898438 -6.7578125 8.57421875 C-6.21898437 7.95160156 -5.68015625 7.32898438 -5.125 6.6875 C-4.59132813 6.07261719 -4.05765625 5.45773437 -3.5078125 4.82421875 C-1.8359553 2.86501788 -1.8359553 2.86501788 0 0 Z " fill="#F5D8D6" transform="translate(338,320)"/>
<path d="M0 0 C2.64 0 5.28 0 8 0 C7.67 1.32 7.34 2.64 7 4 C3.73045798 3.43628586 2.17424117 2.50037734 0 0 Z " fill="#E8E6E4" transform="translate(307,45)"/>
<path d="M0 0 C0 0.66 0 1.32 0 2 C0.99 2 1.98 2 3 2 C3 2.66 3 3.32 3 4 C4.65 4 6.3 4 8 4 C7.67 4.66 7.34 5.32 7 6 C5.53932801 5.54917531 4.08151968 5.08906463 2.625 4.625 C1.81289062 4.36976563 1.00078125 4.11453125 0.1640625 3.8515625 C-2 3 -2 3 -4 1 C-2 0 -2 0 0 0 Z " fill="#E67C79" transform="translate(127,365)"/>
<path d="M0 0 C0.66 0.33 1.32 0.66 2 1 C0.4375 3.4375 0.4375 3.4375 -2 6 C-5.75 6.8125 -5.75 6.8125 -9 7 C-6.03716687 4.61327331 -3.05729491 2.2646629 0 0 Z " fill="#F7D9D5" transform="translate(304,350)"/>
<path d="M0 0 C1.98 0 3.96 0 6 0 C6 1.98 6 3.96 6 6 C3.97945196 4.35830472 1.97956942 2.69088222 0 1 C0 0.67 0 0.34 0 0 Z " fill="#F1DCDA" transform="translate(324,60)"/>
<path d="M0 0 C0.99 0 1.98 0 3 0 C2.01 2.97 1.02 5.94 0 9 C-0.33 9 -0.66 9 -1 9 C-0.67 6.03 -0.34 3.06 0 0 Z " fill="#F3D9D7" transform="translate(30,116)"/>
<path d="M0 0 C1.32 0 2.64 0 4 0 C4 1.98 4 3.96 4 6 C2.68 5.34 1.36 4.68 0 4 C0 2.68 0 1.36 0 0 Z " fill="#EAE4E3" transform="translate(251,15)"/>
<path d="M0 0 C-3.08888522 2.05925681 -3.70935927 2.2390374 -7.1875 2.125 C-9.0746875 2.063125 -9.0746875 2.063125 -11 2 C-6.98764085 -0.6749061 -4.6342454 -1.48957888 0 0 Z " fill="#F6CECA" transform="translate(252,377)"/>
<path d="M0 0 C2.97 0.99 5.94 1.98 9 3 C9 3.33 9 3.66 9 4 C6.36 4 3.72 4 1 4 C0.67 2.68 0.34 1.36 0 0 Z " fill="#F6DBD8" transform="translate(134,371)"/>
<path d="M0 0 C0.33 0.99 0.66 1.98 1 3 C-0.65 4.65 -2.3 6.3 -4 8 C-4.66 7.67 -5.32 7.34 -6 7 C-4.02 4.69 -2.04 2.38 0 0 Z " fill="#F6D8D6" transform="translate(345,312)"/>
<path d="M0 0 C0.33 0 0.66 0 1 0 C1 1.98 1 3.96 1 6 C-0.32 6 -1.64 6 -3 6 C-3 4.68 -3 3.36 -3 2 C-2.01 2 -1.02 2 0 2 C0 1.34 0 0.68 0 0 Z " fill="#FDF8F8" transform="translate(359,294)"/>
<path d="M0 0 C0.33 1.32 0.66 2.64 1 4 C-0.9375 6.75 -0.9375 6.75 -3 9 C-3.66 8.67 -4.32 8.34 -5 8 C-3.35 5.36 -1.7 2.72 0 0 Z " fill="#F7D6D1" transform="translate(354,299)"/>
<path d="M0 0 C2.79872437 2.52788007 4.45773019 4.20411134 5 8 C3.68 7.67 2.36 7.34 1 7 C0.67 4.69 0.34 2.38 0 0 Z " fill="#E4756F" transform="translate(356,100)"/>
</svg>
