<?xml version="1.0" encoding="UTF-8"?>
<svg version="1.1" xmlns="http://www.w3.org/2000/svg" width="1024" height="1024">
<path d="M0 0 C337.92 0 675.84 0 1024 0 C1024 337.92 1024 675.84 1024 1024 C686.08 1024 348.16 1024 0 1024 C0 686.08 0 348.16 0 0 Z " fill="#FE665C" transform="translate(0,0)"/>
<path d="M0 0 C337.92 0 675.84 0 1024 0 C1024 337.92 1024 675.84 1024 1024 C686.08 1024 348.16 1024 0 1024 C0 686.08 0 348.16 0 0 Z M362.23828125 82.82421875 C359.78018994 83.71672235 357.32548699 84.55133219 354.83984375 85.359375 C313.81721139 98.95905912 276.27664647 120.9439116 242 147 C240.80776564 147.8938617 239.61509277 148.78713898 238.421875 149.6796875 C227.4073962 157.97234736 217.03794122 167.03136195 206.890625 176.35546875 C205 178 205 178 203 179 C203 179.66 203 180.32 203 181 C202.4225 181.2475 201.845 181.495 201.25 181.75 C198.67060021 183.18299988 196.93878408 184.78424676 195 187 C195 187.66 195 188.32 195 189 C194.34 189 193.68 189 193 189 C191.66999344 190.31583673 191.66999344 190.31583673 190.25 192.125 C187.34627978 195.56106893 184.28190893 198.72619475 181.06225586 201.85961914 C174.12539736 208.61705196 168.06101116 215.68298619 162.22753906 223.40087891 C160.40241513 225.7784767 158.48217103 228.07345893 156.5625 230.375 C145.98716307 243.28368529 136.64434112 256.73166169 128 271 C127.44554199 271.9075 126.89108398 272.815 126.31982422 273.75 C116.82498359 289.35766352 108.60616203 305.39541641 101 322 C100.43273193 323.21671387 100.43273193 323.21671387 99.85400391 324.45800781 C92.03322187 341.3401355 86.61884869 359.29452149 81 377 C80.63455078 378.14807129 80.26910156 379.29614258 79.89257812 380.47900391 C73.91016287 399.60287159 70.17350957 419.24112496 67 439 C66.88293701 439.72644714 66.76587402 440.45289429 66.64526367 441.20135498 C60.04186825 482.89391776 60.11161831 527.81939103 66 569.625 C66.10304443 570.36915161 66.20608887 571.11330322 66.31225586 571.88000488 C68.14884364 584.95659229 70.67066348 597.85459561 73.5 610.75 C73.6851416 611.60023743 73.8702832 612.45047485 74.06103516 613.32647705 C76.49613623 624.419805 79.4461223 635.21538067 83 646 C83.37157227 647.15580566 83.74314453 648.31161133 84.12597656 649.50244141 C90.20734721 668.38424882 96.92162105 686.39952898 105.99707031 704.03369141 C106.98254223 705.9657729 107.9445356 707.90763072 108.8984375 709.85546875 C117.46773542 727.33525163 126.8883627 744.00662167 138 760 C138.51240234 760.74443359 139.02480469 761.48886719 139.55273438 762.25585938 C145.68532235 771.15849964 152.02985065 779.72773484 159 788 C160.4381707 789.79112834 161.87565586 791.58280731 163.3125 793.375 C167.22588095 798.16563622 171.34550462 802.72413967 175.57543945 807.23388672 C178.20552762 810.03925432 180.7699235 812.88094042 183.27734375 815.796875 C187.45534684 820.59505043 191.92963134 825.07611443 196.4375 829.5625 C197.24509766 830.37396484 198.05269531 831.18542969 198.88476562 832.02148438 C203.75979728 836.88865941 208.75187201 841.53862462 214 846 C214.9384375 846.80824219 215.876875 847.61648438 216.84375 848.44921875 C228.80221269 858.52598216 241.42363902 867.75486525 254.21386719 876.74365234 C255.42478631 877.59540054 256.63371321 878.44998681 257.84082031 879.30712891 C322.30860602 925.02884435 400.21860964 952.14602748 479 958 C479.7120459 958.05784668 480.4240918 958.11569336 481.15771484 958.17529297 C531.02127771 962.1338373 579.67057846 956.35477183 628 944 C629.50635958 943.62439455 631.01284596 943.24929679 632.51953125 942.875 C641.21454437 940.65263243 649.7129181 937.94077927 658.18164062 934.98388672 C660.20704827 934.27681873 662.23466558 933.57606859 664.26367188 932.87939453 C704.91458292 918.85157185 741.32122359 898.44051988 776 873 C777.85416667 871.66666667 779.70833333 870.33333333 781.5625 869 C797.78976479 857.17957374 813.33336409 843.93397975 827.3828125 829.58203125 C829.06333379 827.93804303 830.82168656 826.44524962 832.625 824.9375 C841.49562488 817.27259112 849.27732758 808.14713189 856.578125 799.0078125 C858.41625833 796.72496949 860.277546 794.47758518 862.171875 792.2421875 C871.1425826 781.61314686 879.26915374 770.55959964 887 759 C887.5775 758.13777832 888.155 757.27555664 888.75 756.38720703 C901.18093724 737.68183747 912.04232039 718.03577458 921.33984375 697.58984375 C922.81878193 694.39185742 924.4102355 691.2978987 926.0625 688.1875 C930.27467915 679.80855603 933.05931719 670.88324889 936 662 C936.32258789 661.03868164 936.64517578 660.07736328 936.97753906 659.08691406 C947.14281487 628.71032743 953.85341328 598.21232377 958.25 566.5 C958.41330811 565.3452417 958.57661621 564.1904834 958.74487305 563.00073242 C961.18785191 544.50463619 961.16240116 525.90502279 961.13037109 507.27954102 C961.12497289 503.54374196 961.13037075 499.80806124 961.13671875 496.07226562 C961.13605843 493.65364557 961.13477823 491.23502559 961.1328125 488.81640625 C961.13483673 487.72131241 961.13686096 486.62621857 961.13894653 485.49794006 C961.11643632 477.9595007 960.67160546 470.50776394 960 463 C959.34 463 958.68 463 958 463 C958.03552979 462.21705566 958.07105957 461.43411133 958.10766602 460.62744141 C958.37100027 449.93284611 956.81137154 439.87223473 954.9375 429.375 C954.77905609 428.47238434 954.62061218 427.56976868 954.45736694 426.63980103 C940.90134128 349.69004354 908.0582199 278.07765352 858 218 C857.16162598 216.98921387 856.32325195 215.97842773 855.45947266 214.93701172 C848.28180411 206.37362523 840.65364194 198.37151557 832.71679688 190.51098633 C830.73238887 188.54505282 828.7563186 186.5710152 826.78125 184.59570312 C820.69106673 178.52240153 814.59503819 172.53006903 808 167 C806.55367187 165.7315625 806.55367187 165.7315625 805.078125 164.4375 C785.79371834 147.81668542 764.7418471 133.0291747 742.82666016 120.07958984 C741.48241266 119.28511478 740.14140647 118.48514909 738.80224609 117.68212891 C721.11381386 107.10911615 702.634002 98.2298276 683.36669922 90.90625 C680.36408562 89.7564974 677.37241897 88.57949034 674.37890625 87.40625 C651.28637031 78.42029796 628.25185621 72.09461298 604 67 C602.65566895 66.70996094 602.65566895 66.70996094 601.28417969 66.4140625 C589.66627974 63.91967091 577.97533478 62.25628029 566.1875 60.8125 C565.50129578 60.72764343 564.81509155 60.64278687 564.10809326 60.55535889 C496.82663484 52.32138128 425.92820203 59.27432428 362.23828125 82.82421875 Z " fill="#FDFDFD" transform="translate(0,0)"/>
<path d="M0 0 C48.18 0 96.36 0 146 0 C146 212.19 146 424.38 146 643 C97.82 643 49.64 643 0 643 C0 430.81 0 218.62 0 0 Z " fill="#FEFEFE" transform="translate(439,191)"/>
<path d="M0 0 C11.55 0 23.1 0 35 0 C35 11.88 35 23.76 35 36 C46.88 36 58.76 36 71 36 C71 24.12 71 12.24 71 0 C82.88 0 94.76 0 107 0 C107 11.88 107 23.76 107 36 C118.88 36 130.76 36 143 36 C143 47.88 143 59.76 143 72 C108.22197325 73.43119452 108.22197325 73.43119452 91.11230469 63.21728516 C86.47636889 60.54567444 81.40545145 58.81267101 76.41503906 56.92236328 C73.39170217 55.76767598 70.38033757 54.58335425 67.3671875 53.40234375 C44.94950585 44.67841168 22.42508453 38.44010053 -1 33 C-1.14672777 21.94650776 -0.68427315 11.03390458 0 0 Z " fill="#FEFEFE" transform="translate(607,35)"/>
<path d="M0 0 C-0.13857841 3.12536637 -0.28709569 6.25018217 -0.4375 9.375 C-0.47681641 10.26445313 -0.51613281 11.15390625 -0.55664062 12.0703125 C-0.59853516 12.92109375 -0.64042969 13.771875 -0.68359375 14.6484375 C-0.73858032 15.82672119 -0.73858032 15.82672119 -0.79467773 17.02880859 C-1 19 -1 19 -2 21 C-25.43 21 -48.86 21 -73 21 C-73 31.56 -73 42.12 -73 53 C-73.33 53.99 -73.66 54.98 -74 56 C-85.88 56 -97.76 56 -110 56 C-110 44.45 -110 32.9 -110 21 C-121.88 21 -133.76 21 -146 21 C-145.96039927 32.14443325 -145.96039927 32.14443325 -145.90991211 43.28881836 C-145.90699286 44.68082605 -145.90444433 46.07283459 -145.90234375 47.46484375 C-145.89722778 48.19384888 -145.89211182 48.922854 -145.88684082 49.6739502 C-145.88652989 51.44970076 -145.93771485 53.22534208 -146 55 C-147 56 -147 56 -150.32641602 56.11352539 C-151.80225555 56.11327435 -153.27810097 56.10771514 -154.75390625 56.09765625 C-155.44093628 56.09664917 -156.12796631 56.09564209 -156.83581543 56.09460449 C-159.41139384 56.08935776 -161.98694853 56.07539659 -164.5625 56.0625 C-170.316875 56.041875 -176.07125 56.02125 -182 56 C-182 44.45 -182 32.9 -182 21 C-193.88 21 -205.76 21 -218 21 C-218.33 18.03 -218.66 15.06 -219 12 C-212.38010335 11.76497408 -206.313057 12.68194299 -199.8125 13.875 C-188.56515881 15.83852035 -177.3820066 17.15424247 -166 18 C-164.93193115 18.08677002 -164.93193115 18.08677002 -163.84228516 18.17529297 C-109.56313992 22.48437941 -56.75822419 15.18069334 -4.45703125 0.62890625 C-2 0 -2 0 0 0 Z M-142.58178711 55.88647461 C-141.06363012 55.88663372 -139.54546771 55.89232774 -138.02734375 55.90234375 C-137.22970108 55.9037587 -136.43205841 55.90517365 -135.61024475 55.90663147 C-133.05262565 55.91224684 -130.49509282 55.92480188 -127.9375 55.9375 C-126.20768355 55.94251302 -124.47786574 55.94707627 -122.74804688 55.95117188 C-118.49863761 55.96137209 -114.24941584 55.98094432 -110 56 C-110 65.57 -110 75.14 -110 85 C-122.21 85 -134.42 85 -147 85 C-147.020625 80.400625 -147.04125 75.80125 -147.0625 71.0625 C-147.071604 69.60980713 -147.08070801 68.15711426 -147.09008789 66.66040039 C-147.09258545 65.52594482 -147.09508301 64.39148926 -147.09765625 63.22265625 C-147.10289307 62.05484619 -147.10812988 60.88703613 -147.11352539 59.68383789 C-146.94377355 55.67075829 -146.7103021 56.02359049 -142.58178711 55.88647461 Z " fill="#FEFEFE" transform="translate(645,939)"/>
<path d="M0 0 C1.47583954 0.00025104 2.95168496 0.00581025 4.42749023 0.01586914 C5.11452026 0.01687622 5.80155029 0.0178833 6.50939941 0.0189209 C9.08497783 0.02416763 11.66053252 0.0381288 14.23608398 0.05102539 C19.99045898 0.07165039 25.74483398 0.09227539 31.67358398 0.11352539 C32.00358398 11.66352539 32.33358398 23.21352539 32.67358398 35.11352539 C43.89358398 35.44352539 55.11358398 35.77352539 66.67358398 36.11352539 C66.67358398 24.23352539 66.67358398 12.35352539 66.67358398 0.11352539 C94.23070173 -1.01125493 94.23070173 -1.01125493 102.96264648 6.36352539 C103.52725586 6.94102539 104.09186523 7.51852539 104.67358398 8.11352539 C104.01358398 8.44352539 103.35358398 8.77352539 102.67358398 9.11352539 C102.67358398 18.02352539 102.67358398 26.93352539 102.67358398 36.11352539 C91.12358398 36.11352539 79.57358398 36.11352539 67.67358398 36.11352539 C67.71315685 46.88381411 67.71315685 46.88381411 67.76367188 57.65405273 C67.76659201 59.00252198 67.76914034 60.35099211 67.77124023 61.69946289 C67.7763562 62.40176025 67.78147217 63.10405762 67.78674316 63.82763672 C67.78765578 68.88538179 67.78765578 68.88538179 66.67358398 71.11352539 C55.12358398 71.11352539 43.57358398 71.11352539 31.67358398 71.11352539 C31.67358398 59.56352539 31.67358398 48.01352539 31.67358398 36.11352539 C19.79358398 36.11352539 7.91358398 36.11352539 -4.32641602 36.11352539 C-4.34704102 30.35915039 -4.36766602 24.60477539 -4.38891602 18.67602539 C-4.39802002 16.8578833 -4.40712402 15.03974121 -4.41650391 13.16650391 C-4.41942313 11.73348057 -4.42197167 10.30045641 -4.42407227 8.86743164 C-4.42918823 8.11683472 -4.4343042 7.36623779 -4.4395752 6.59289551 C-4.43988594 4.76604938 -4.38872715 2.93930856 -4.32641602 1.11352539 C-3.32641602 0.11352539 -3.32641602 0.11352539 0 0 Z " fill="#FEFEFE" transform="translate(181.326416015625,888.886474609375)"/>
<path d="M0 0 C8.25 0 16.5 0 25 0 C25 21.12 25 42.24 25 64 C5.2 64 -14.6 64 -35 64 C-35 36 -35 36 -34 35 C-31.47931819 34.91153166 -28.98545583 34.88465476 -26.46484375 34.90234375 C-25.46378601 34.90385437 -25.46378601 34.90385437 -24.44250488 34.90539551 C-21.9408192 34.91064192 -19.43915794 34.92460309 -16.9375 34.9375 C-8.5534375 34.9684375 -8.5534375 34.9684375 0 35 C0 23.45 0 11.9 0 0 Z " fill="#EFEFEF" transform="translate(999,960)"/>
<path d="M0 0 C11.88 0 23.76 0 36 0 C36 11.55 36 23.1 36 35 C48.21 35 60.42 35 73 35 C73.12375 38.8775 73.2475 42.755 73.375 46.75 C73.45693604 48.5438916 73.45693604 48.5438916 73.54052734 50.37402344 C73.68617823 59.94939461 71.75623577 62.48752846 67 72 C56.77 71.67 46.54 71.34 36 71 C36 59.45 36 47.9 36 36 C24.12 36 12.24 36 0 36 C0 24.12 0 12.24 0 0 Z " fill="#FEFEFE" transform="translate(35,249)"/>
<path d="M0 0 C11.55 0 23.1 0 35 0 C35 11.55 35 23.1 35 35 C23.78 35.33 12.56 35.66 1 36 C0.67 47.55 0.34 59.1 0 71 C-11.88 71 -23.76 71 -36 71 C-36 59.12 -36 47.24 -36 35 C-24.12 35 -12.24 35 0 35 C0 23.45 0 11.9 0 0 Z " fill="#EFEEEF" transform="translate(71,747)"/>
<path d="M0 0 C11.88 0 23.76 0 36 0 C36 11.88 36 23.76 36 36 C24.12 36 12.24 36 0 36 C0 47.55 0 59.1 0 71 C-11.55 71 -23.1 71 -35 71 C-35 59.45 -35 47.9 -35 36 C-23.78 35.67 -12.56 35.34 -1 35 C-0.67 23.45 -0.34 11.9 0 0 Z " fill="#FEFEFE" transform="translate(142,71)"/>
<path d="M0 0 C11.22 0 22.44 0 34 0 C34 11.88 34 23.76 34 36 C22.78 36 11.56 36 0 36 C0.03957446 47.09938953 0.03957446 47.09938953 0.09008789 58.19873047 C0.09300797 59.58821537 0.09555631 60.97770112 0.09765625 62.3671875 C0.10277222 63.09107666 0.10788818 63.81496582 0.11315918 64.56079102 C0.1140718 69.7718564 0.1140718 69.7718564 -1 72 C-12.55 72 -24.1 72 -36 72 C-36 60.12 -36 48.24 -36 36 C-24.45 36 -12.9 36 -1 36 C-0.67 24.12 -0.34 12.24 0 0 Z " fill="#EFEEEF" transform="translate(107,853)"/>
<path d="M0 0 C11.88 0 23.76 0 36 0 C36 11.55 36 23.1 36 35 C24.12 35 12.24 35 0 35 C0 44.9 0 54.8 0 65 C-5.11814726 67.55907363 -10.17613386 68.51458213 -15.75 69.6875 C-16.80960937 69.92533203 -17.86921875 70.16316406 -18.9609375 70.40820312 C-20.51941406 70.73788086 -20.51941406 70.73788086 -22.109375 71.07421875 C-23.51654785 71.37718872 -23.51654785 71.37718872 -24.95214844 71.6862793 C-28 72 -28 72 -36 71 C-36 59.12 -36 47.24 -36 35 C-24.45 35 -12.9 35 -1 35 C-1.03939724 26.10043247 -1.03939724 26.10043247 -1.09008789 17.20092773 C-1.09258545 16.08145752 -1.09508301 14.9619873 -1.09765625 13.80859375 C-1.10289307 12.67220459 -1.10812988 11.53581543 -1.11352539 10.36499023 C-1 7 -1 7 0 0 Z " fill="#FEFEFE" transform="translate(428,0)"/>
<path d="M0 0 C11.88 0 23.76 0 36 0 C36 11.55 36 23.1 36 35 C18.675 35.495 18.675 35.495 1 36 C0.67 45.24 0.34 54.48 0 64 C-11.88 64 -23.76 64 -36 64 C-36 54.43 -36 44.86 -36 35 C-24.12 35 -12.24 35 0 35 C0 23.45 0 11.9 0 0 Z " fill="#EFEEEF" transform="translate(284,960)"/>
<path d="M0 0 C11.88 0 23.76 0 36 0 C36 11.55 36 23.1 36 35 C24.12 35.33 12.24 35.66 0 36 C0.03931641 42.59586823 0.03931641 42.59586823 0.09008789 49.19165039 C0.09258545 50.02688232 0.09508301 50.86211426 0.09765625 51.72265625 C0.10289307 52.56578369 0.10812988 53.40891113 0.11352539 54.27758789 C-0.02238246 57.53674589 -0.53868488 60.77079419 -1 64 C-12.55 64 -24.1 64 -36 64 C-36 54.43 -36 44.86 -36 35 C-18.675 34.505 -18.675 34.505 -1 34 C-0.67 22.78 -0.34 11.56 0 0 Z " fill="#EFEEEF" transform="translate(499,960)"/>
<path d="M0 0 C0.66 0.33 1.32 0.66 2 1 C4.32416296 1.08586809 6.65083307 1.10711043 8.9765625 1.09765625 C10.85722412 1.09390991 10.85722412 1.09390991 12.77587891 1.09008789 C14.37608887 1.08098389 15.97629883 1.07187988 17.625 1.0625 C22.69875 1.041875 27.7725 1.02125 33 1 C33 12.88 33 24.76 33 37 C21.45 37 9.9 37 -2 37 C-2 48.55 -2 60.1 -2 72 C-12.89 72 -23.78 72 -35 72 C-33.74432284 68.8608071 -32.6732497 66.24442414 -31.0390625 63.3828125 C-30.65580811 62.70484619 -30.27255371 62.02687988 -29.87768555 61.32836914 C-29.46429932 60.60125732 -29.05091309 59.87414551 -28.625 59.125 C-24.52834686 51.8311448 -20.56493015 44.47519854 -16.6875 37.0625 C-16.19652832 36.12873535 -15.70555664 35.1949707 -15.19970703 34.23291016 C-12.32089903 28.70696733 -9.63750979 23.12664952 -7.10742188 17.43237305 C-6.07482469 15.16434708 -4.97092917 12.95585269 -3.8125 10.75 C-2.02428632 7.24596996 -0.95320979 3.81283918 0 0 Z " fill="#EFEEEE" transform="translate(930,675)"/>
<path d="M0 0 C11.55 0 23.1 0 35 0 C35.33 11.55 35.66 23.1 36 35 C47.22 35 58.44 35 70 35 C70 44.57 70 54.14 70 64 C58.45 64 46.9 64 35 64 C35 54.43 35 44.86 35 35 C23.45 35 11.9 35 0 35 C0 23.45 0 11.9 0 0 Z " fill="#EFEEEF" transform="translate(71,960)"/>
<path d="M0 0 C8.25 0 16.5 0 25 0 C25 11.55 25 23.1 25 35 C17.08 35.33 9.16 35.66 1 36 C0.67 47.55 0.34 59.1 0 71 C-11.55 71 -23.1 71 -35 71 C-35 59.12 -35 47.24 -35 35 C-23.45 35 -11.9 35 0 35 C0 23.45 0 11.9 0 0 Z " fill="#EFEEEF" transform="translate(999,249)"/>
<path d="M0 0 C1.40475586 -0.00193359 1.40475586 -0.00193359 2.83789062 -0.00390625 C4.30838867 0.00189453 4.30838867 0.00189453 5.80859375 0.0078125 C6.79279297 0.00394531 7.77699219 0.00007813 8.79101562 -0.00390625 C9.72623047 -0.00261719 10.66144531 -0.00132812 11.625 0 C12.48681885 0.00112793 13.3486377 0.00225586 14.23657227 0.00341797 C16.24609375 0.1328125 16.24609375 0.1328125 17.24609375 1.1328125 C17.33460045 3.72615398 17.36142545 6.29343829 17.34375 8.88671875 C17.34274292 9.57374878 17.34173584 10.26077881 17.34069824 10.96862793 C17.33545151 13.54420634 17.32149034 16.11976103 17.30859375 18.6953125 C17.28796875 24.4496875 17.26734375 30.2040625 17.24609375 36.1328125 C28.79609375 36.1328125 40.34609375 36.1328125 52.24609375 36.1328125 C52.24609375 47.6828125 52.24609375 59.2328125 52.24609375 71.1328125 C43.00609375 71.1328125 33.76609375 71.1328125 24.24609375 71.1328125 C22.48265625 66.151875 22.48265625 66.151875 20.68359375 61.0703125 C17.61971692 52.57682779 14.29289967 44.4007798 10.30322266 36.29589844 C9.02985955 33.69035638 7.78406943 31.07233364 6.5390625 28.453125 C2.18769135 19.30511594 -2.19238851 10.17830464 -6.75390625 1.1328125 C-4.3167441 -0.08576857 -2.72116568 0.00355675 0 0 Z " fill="#EFEEEE" transform="translate(910.75390625,283.8671875)"/>
<path d="M0 0 C1.85398614 2.7809792 3.17773699 5.403646 4.5625 8.4375 C5.09746094 9.6028125 5.63242188 10.768125 6.18359375 11.96875 C7.47354162 14.81161033 8.72947425 17.66765288 9.97265625 20.53125 C15.61067164 33.43473567 22.07836427 45.74168976 29 58 C29.6504126 59.15242187 29.6504126 59.15242187 30.31396484 60.328125 C32.52247455 64.23096615 34.75642836 68.11689524 37 72 C29.41 72 21.82 72 14 72 C13.67 60.78 13.34 49.56 13 38 C1.45 37.67 -10.1 37.34 -22 37 C-22 25.12 -22 13.24 -22 1 C-11.5625 1.0625 -11.5625 1.0625 -8.26782227 1.09008789 C-7.41760498 1.09258545 -6.5673877 1.09508301 -5.69140625 1.09765625 C-4.81685791 1.10289307 -3.94230957 1.10812988 -3.04125977 1.11352539 C-1.00559794 1.22784809 -1.00559794 1.22784809 0 0 Z " fill="#EFEEEE" transform="translate(93,675)"/>
<path d="M0 0 C11.88 0 23.76 0 36 0 C36 11.88 36 23.76 36 36 C24.12 36 12.24 36 0 36 C0 24.12 0 12.24 0 0 Z " fill="#EFEFEF" transform="translate(857,889)"/>
<path d="M0 0 C11.88 0 23.76 0 36 0 C36 11.88 36 23.76 36 36 C24.12 36 12.24 36 0 36 C0 24.12 0 12.24 0 0 Z " fill="#FEFEFE" transform="translate(35,889)"/>
<path d="M0 0 C11.88 0 23.76 0 36 0 C36 11.88 36 23.76 36 36 C24.12 36 12.24 36 0 36 C0 24.12 0 12.24 0 0 Z " fill="#EFEEEF" transform="translate(35,853)"/>
<path d="M0 0 C11.88 0 23.76 0 36 0 C36 11.88 36 23.76 36 36 C24.12 36 12.24 36 0 36 C0 24.12 0 12.24 0 0 Z " fill="#FEFEFE" transform="translate(35,676)"/>
<path d="M0 0 C11.88 0 23.76 0 36 0 C36 11.88 36 23.76 36 36 C24.12 36 12.24 36 0 36 C0 24.12 0 12.24 0 0 Z " fill="#EFEEEE" transform="translate(35,355)"/>
<path d="M0 0 C11.88 0 23.76 0 36 0 C36 11.88 36 23.76 36 36 C24.12 36 12.24 36 0 36 C0 24.12 0 12.24 0 0 Z " fill="#EEEEEF" transform="translate(35,213)"/>
<path d="M0 0 C11.88 0 23.76 0 36 0 C36 11.88 36 23.76 36 36 C24.12 36 12.24 36 0 36 C0 24.12 0 12.24 0 0 Z " fill="#FEFEFE" transform="translate(71,213)"/>
<path d="M0 0 C11.88 0 23.76 0 36 0 C36 11.88 36 23.76 36 36 C24.12 36 12.24 36 0 36 C0 24.12 0 12.24 0 0 Z " fill="#FEFEFE" transform="translate(71,142)"/>
<path d="M0 0 C11.88 0 23.76 0 36 0 C36 11.88 36 23.76 36 36 C24.12 36 12.24 36 0 36 C0 24.12 0 12.24 0 0 Z " fill="#EFEEEE" transform="translate(35,142)"/>
<path d="M0 0 C11.88 0 23.76 0 36 0 C36 11.88 36 23.76 36 36 C24.12 36 12.24 36 0 36 C0 24.12 0 12.24 0 0 Z " fill="#EFEEEF" transform="translate(249,71)"/>
<path d="M0 0 C11.88 0 23.76 0 36 0 C36 11.88 36 23.76 36 36 C24.12 36 12.24 36 0 36 C0 24.12 0 12.24 0 0 Z " fill="#EFEFEF" transform="translate(714,35)"/>
<path d="M0 0 C11.88 0 23.76 0 36 0 C36 11.88 36 23.76 36 36 C24.12 36 12.24 36 0 36 C0 24.12 0 12.24 0 0 Z " fill="#EEEEEE" transform="translate(642,35)"/>
<path d="M0 0 C11.88 0 23.76 0 36 0 C36 11.88 36 23.76 36 36 C24.12 36 12.24 36 0 36 C0 24.12 0 12.24 0 0 Z " fill="#EEEEEE" transform="translate(356,35)"/>
<path d="M0 0 C11.88 0 23.76 0 36 0 C36 11.88 36 23.76 36 36 C24.12 36 12.24 36 0 36 C0 24.12 0 12.24 0 0 Z " fill="#EFEEEF" transform="translate(142,35)"/>
<path d="M0 0 C11.88 0 23.76 0 36 0 C36 11.88 36 23.76 36 36 C24.12 36 12.24 36 0 36 C0 24.12 0 12.24 0 0 Z " fill="#FEFEFE" transform="translate(35,35)"/>
<path d="M0 0 C11.88 0 23.76 0 36 0 C36.020625 5.754375 36.04125 11.50875 36.0625 17.4375 C36.071604 19.25564209 36.08070801 21.07378418 36.09008789 22.94702148 C36.09300711 24.38004482 36.09555566 25.81306898 36.09765625 27.24609375 C36.10277222 27.99669067 36.10788818 28.7472876 36.11315918 29.52062988 C36.11346992 31.34747601 36.06231113 33.17421683 36 35 C35 36 35 36 31.67358398 36.11352539 C30.19774445 36.11327435 28.72189903 36.10771514 27.24609375 36.09765625 C26.55906372 36.09664917 25.87203369 36.09564209 25.16418457 36.09460449 C22.58860616 36.08935776 20.01305147 36.07539659 17.4375 36.0625 C11.683125 36.041875 5.92875 36.02125 0 36 C0 24.12 0 12.24 0 0 Z " fill="#EFEEEE" transform="translate(35,71)"/>
<path d="M0 0 C1.51815699 0.00015911 3.0363194 0.00585313 4.55444336 0.01586914 C5.35208603 0.01728409 6.1497287 0.01869904 6.97154236 0.02015686 C9.52916146 0.02577223 12.08669429 0.03832727 14.64428711 0.05102539 C16.37410356 0.05603841 18.10392137 0.06060166 19.83374023 0.06469727 C24.08312264 0.07574664 28.33244023 0.09302153 32.58178711 0.11352539 C32.46367705 4.91919962 32.33943888 9.72466107 32.20947266 14.5300293 C32.16611173 16.16540192 32.1244375 17.80082016 32.08447266 19.4362793 C32.02679799 21.7845638 31.96309582 24.13261843 31.89819336 26.48071289 C31.87312462 27.58079178 31.87312462 27.58079178 31.84754944 28.70309448 C31.69565882 33.88578198 31.69565882 33.88578198 30.58178711 36.11352539 C19.03178711 36.11352539 7.48178711 36.11352539 -4.41821289 36.11352539 C-4.43883789 30.35915039 -4.45946289 24.60477539 -4.48071289 18.67602539 C-4.48981689 16.8578833 -4.4989209 15.03974121 -4.50830078 13.16650391 C-4.51122001 11.73348057 -4.51376855 10.30045641 -4.51586914 8.86743164 C-4.52098511 8.11683472 -4.52610107 7.36623779 -4.53137207 6.59289551 C-4.53168281 4.76604938 -4.48052402 2.93930856 -4.41821289 1.11352539 C-3.41821289 0.11352539 -3.41821289 0.11352539 0 0 Z " fill="#FEFEFE" transform="translate(75.418212890625,781.886474609375)"/>
<path d="M0 0 C11.55 0 23.1 0 35 0 C36.53306974 3.06613947 36.12141666 6.27080784 36.09765625 9.6328125 C36.09664917 10.29917725 36.09564209 10.96554199 36.09460449 11.65209961 C36.08936955 14.14308389 36.07540829 16.63404366 36.0625 19.125 C36.041875 24.69375 36.02125 30.2625 36 36 C24.12 36 12.24 36 0 36 C0 24.12 0 12.24 0 0 Z " fill="#EFEEEF" transform="translate(821,142)"/>
<path d="M0 0 C4.96622349 -0.02465098 9.93241166 -0.04283649 14.89868164 -0.05493164 C16.58944316 -0.0599719 18.28020029 -0.06680405 19.97094727 -0.07543945 C22.39600707 -0.08751857 24.82100944 -0.09323123 27.24609375 -0.09765625 C28.38672523 -0.10539818 28.38672523 -0.10539818 29.55039978 -0.11329651 C31.3673257 -0.11349238 33.18413127 -0.06197277 35 0 C36 1 36 1 36.11352539 4.32641602 C36.11336629 5.80225556 36.10767314 7.27810069 36.09765625 8.75390625 C36.0962413 9.52935287 36.09482635 10.3047995 36.09336853 11.10374451 C36.08775345 13.59003494 36.07519846 16.0762366 36.0625 18.5625 C36.05748694 20.24413933 36.0529237 21.92578006 36.04882812 23.60742188 C36.03777913 27.73831566 36.02050445 31.86914276 36 36 C31.03377651 36.02465098 26.06758834 36.04283649 21.10131836 36.05493164 C19.41055684 36.0599719 17.71979971 36.06680405 16.02905273 36.07543945 C13.60399293 36.08751857 11.17899056 36.09323123 8.75390625 36.09765625 C7.61327477 36.10539818 7.61327477 36.10539818 6.44960022 36.11329651 C4.6326743 36.11349238 2.81586873 36.06197277 1 36 C0 35 0 35 -0.11352539 31.67358398 C-0.11336629 30.19774444 -0.10767314 28.72189931 -0.09765625 27.24609375 C-0.09553383 26.08292381 -0.09553383 26.08292381 -0.09336853 24.89625549 C-0.08775345 22.40996506 -0.07519846 19.9237634 -0.0625 17.4375 C-0.05748694 15.75586067 -0.0529237 14.07421994 -0.04882812 12.39257812 C-0.03777913 8.26168434 -0.02050445 4.13085724 0 0 Z " fill="#EFEEEF" transform="translate(213,35)"/>
<path d="M0 0 C11.55 0 23.1 0 35 0 C36.50076427 3.00152855 36.14221592 6.0882001 36.1328125 9.37890625 C36.13376923 10.10617416 36.13472595 10.83344208 36.13571167 11.58274841 C36.13639235 13.12018928 36.13454585 14.65763301 36.13037109 16.19506836 C36.12501351 18.556543 36.13032377 20.91782811 36.13671875 23.27929688 C36.1360581 24.77083376 36.13477721 26.26237052 36.1328125 27.75390625 C36.13483673 28.46430557 36.13686096 29.1747049 36.13894653 29.90663147 C36.11495714 34.88504286 36.11495714 34.88504286 35 36 C32.40665852 36.0885067 29.83937421 36.1153317 27.24609375 36.09765625 C26.55906372 36.09664917 25.87203369 36.09564209 25.16418457 36.09460449 C22.58860616 36.08935776 20.01305147 36.07539659 17.4375 36.0625 C11.683125 36.041875 5.92875 36.02125 0 36 C0 24.12 0 12.24 0 0 Z " fill="#EFEEEF" transform="translate(821,71)"/>
<path d="M0 0 C11.88 0 23.76 0 36 0 C36 11.88 36 23.76 36 36 C24.45 36 12.9 36 1 36 C0.835 32.473125 0.67 28.94625 0.5 25.3125 C0.44779297 24.23009033 0.39558594 23.14768066 0.34179688 22.0324707 C0.00983876 14.66286872 0 7.39699782 0 0 Z " fill="#EFEFEF" transform="translate(963,142)"/>
<path d="M0 0 C11.55 0 23.1 0 35 0 C35 11.88 35 23.76 35 36 C21.85278357 37.09560137 11.5218995 37.07486394 -1 33 C-1.14672777 21.94650776 -0.68427315 11.03390458 0 0 Z " fill="#FEFEFE" transform="translate(607,35)"/>
<path d="M0 0 C11.88 0 23.76 0 36 0 C36 11.55 36 23.1 36 35 C24.12 35 12.24 35 0 35 C0 23.45 0 11.9 0 0 Z " fill="#EFEEEF" transform="translate(857,960)"/>
<path d="M0 0 C11.88 0 23.76 0 36 0 C36 11.55 36 23.1 36 35 C24.12 35 12.24 35 0 35 C0 23.45 0 11.9 0 0 Z " fill="#EEEEEE" transform="translate(644,960)"/>
<path d="M0 0 C11.88 0 23.76 0 36 0 C36 11.55 36 23.1 36 35 C24.12 35 12.24 35 0 35 C0 23.45 0 11.9 0 0 Z " fill="#EEEEEE" transform="translate(427,960)"/>
<path d="M0 0 C11.88 0 23.76 0 36 0 C36 11.55 36 23.1 36 35 C24.12 35 12.24 35 0 35 C0 23.45 0 11.9 0 0 Z " fill="#FEFEFE" transform="translate(284,925)"/>
<path d="M0 0 C11.88 0 23.76 0 36 0 C36 11.55 36 23.1 36 35 C24.12 35 12.24 35 0 35 C0 23.45 0 11.9 0 0 Z " fill="#EFEEEE" transform="translate(35,925)"/>
<path d="M0 0 C11.55 0 23.1 0 35 0 C35 11.88 35 23.76 35 36 C23.45 36 11.9 36 0 36 C0 24.12 0 12.24 0 0 Z " fill="#EEEEEE" transform="translate(928,889)"/>
<path d="M0 0 C11.55 0 23.1 0 35 0 C35 11.88 35 23.76 35 36 C23.45 36 11.9 36 0 36 C0 24.12 0 12.24 0 0 Z " fill="#EEEEEE" transform="translate(142,889)"/>
<path d="M0 0 C11.55 0 23.1 0 35 0 C35 11.88 35 23.76 35 36 C23.45 36 11.9 36 0 36 C0 24.12 0 12.24 0 0 Z " fill="#EFEEEE" transform="translate(964,853)"/>
<path d="M0 0 C11.55 0 23.1 0 35 0 C35 11.88 35 23.76 35 36 C23.45 36 11.9 36 0 36 C0 24.12 0 12.24 0 0 Z " fill="#FEFEFE" transform="translate(0,853)"/>
<path d="M0 0 C11.88 0 23.76 0 36 0 C36 11.55 36 23.1 36 35 C24.12 35 12.24 35 0 35 C0 23.45 0 11.9 0 0 Z " fill="#EEEEEE" transform="translate(857,818)"/>
<path d="M0 0 C11.88 0 23.76 0 36 0 C36 11.55 36 23.1 36 35 C24.12 35 12.24 35 0 35 C0 23.45 0 11.9 0 0 Z " fill="#FEFEFE" transform="translate(35,818)"/>
<path d="M0 0 C11.55 0 23.1 0 35 0 C35 11.88 35 23.76 35 36 C23.45 36 11.9 36 0 36 C0 24.12 0 12.24 0 0 Z " fill="#EFEEEE" transform="translate(964,782)"/>
<path d="M0 0 C11.88 0 23.76 0 36 0 C36 11.55 36 23.1 36 35 C24.12 35 12.24 35 0 35 C0 23.45 0 11.9 0 0 Z " fill="#EEEEEE" transform="translate(35,712)"/>
<path d="M0 0 C11.88 0 23.76 0 36 0 C36 11.55 36 23.1 36 35 C24.12 35 12.24 35 0 35 C0 23.45 0 11.9 0 0 Z " fill="#EEEEEE" transform="translate(35,641)"/>
<path d="M0 0 C11.55 0 23.1 0 35 0 C35 11.88 35 23.76 35 36 C23.45 36 11.9 36 0 36 C0 24.12 0 12.24 0 0 Z " fill="#EFEEEF" transform="translate(964,498)"/>
<path d="M0 0 C11.55 0 23.1 0 35 0 C35 11.88 35 23.76 35 36 C23.45 36 11.9 36 0 36 C0 24.12 0 12.24 0 0 Z " fill="#EEEEEE" transform="translate(964,427)"/>
<path d="M0 0 C11.88 0 23.76 0 36 0 C36 11.55 36 23.1 36 35 C24.12 35 12.24 35 0 35 C0 23.45 0 11.9 0 0 Z " fill="#FEFEFE" transform="translate(35,320)"/>
<path d="M0 0 C11.88 0 23.76 0 36 0 C36 11.55 36 23.1 36 35 C24.12 35 12.24 35 0 35 C0 23.45 0 11.9 0 0 Z " fill="#EFEEEE" transform="translate(35,285)"/>
<path d="M0 0 C11.88 0 23.76 0 36 0 C36 11.55 36 23.1 36 35 C24.12 35 12.24 35 0 35 C0 23.45 0 11.9 0 0 Z " fill="#EEEEEE" transform="translate(71,178)"/>
<path d="M0 0 C11.88 0 23.76 0 36 0 C36 11.55 36 23.1 36 35 C24.12 35 12.24 35 0 35 C0 23.45 0 11.9 0 0 Z " fill="#FEFEFE" transform="translate(35,178)"/>
<path d="M0 0 C11.88 0 23.76 0 36 0 C36 11.55 36 23.1 36 35 C24.12 35 12.24 35 0 35 C0 23.45 0 11.9 0 0 Z " fill="#EEEEEE" transform="translate(142,107)"/>
<path d="M0 0 C11.88 0 23.76 0 36 0 C36 11.55 36 23.1 36 35 C24.12 35 12.24 35 0 35 C0 23.45 0 11.9 0 0 Z " fill="#EEEEEE" transform="translate(71,107)"/>
<path d="M0 0 C11.55 0 23.1 0 35 0 C35 11.88 35 23.76 35 36 C23.45 36 11.9 36 0 36 C0 24.12 0 12.24 0 0 Z " fill="#EEEEEE" transform="translate(964,71)"/>
<path d="M0 0 C11.55 0 23.1 0 35 0 C35 11.88 35 23.76 35 36 C23.45 36 11.9 36 0 36 C0 24.12 0 12.24 0 0 Z " fill="#EEEEEE" transform="translate(750,71)"/>
<path d="M0 0 C11.55 0 23.1 0 35 0 C35 11.88 35 23.76 35 36 C23.45 36 11.9 36 0 36 C0 24.12 0 12.24 0 0 Z " fill="#EFEEEF" transform="translate(178,71)"/>
<path d="M0 0 C11.55 0 23.1 0 35 0 C35 11.88 35 23.76 35 36 C23.45 36 11.9 36 0 36 C0 24.12 0 12.24 0 0 Z " fill="#EEEEEE" transform="translate(928,35)"/>
<path d="M0 0 C11.55 0 23.1 0 35 0 C35 11.88 35 23.76 35 36 C23.45 36 11.9 36 0 36 C0 24.12 0 12.24 0 0 Z " fill="#EEEEEE" transform="translate(857,35)"/>
<path d="M0 0 C11.55 0 23.1 0 35 0 C35 11.88 35 23.76 35 36 C23.45 36 11.9 36 0 36 C0 24.12 0 12.24 0 0 Z " fill="#EEEEEE" transform="translate(786,35)"/>
<path d="M0 0 C11.55 0 23.1 0 35 0 C35 11.88 35 23.76 35 36 C23.45 36 11.9 36 0 36 C0 24.12 0 12.24 0 0 Z " fill="#EEEEEE" transform="translate(285,35)"/>
<path d="M0 0 C11.55 0 23.1 0 35 0 C35 11.88 35 23.76 35 36 C23.45 36 11.9 36 0 36 C0 24.12 0 12.24 0 0 Z " fill="#EEEEEE" transform="translate(71,35)"/>
<path d="M0 0 C11.55 0 23.1 0 35 0 C35 11.88 35 23.76 35 36 C23.45 36 11.9 36 0 36 C0 24.12 0 12.24 0 0 Z " fill="#EFEFEF" transform="translate(0,35)"/>
<path d="M0 0 C11.88 0 23.76 0 36 0 C36 11.55 36 23.1 36 35 C24.12 35 12.24 35 0 35 C0 23.45 0 11.9 0 0 Z " fill="#FEFEFE" transform="translate(714,0)"/>
<path d="M0 0 C11.88 0 23.76 0 36 0 C36 11.55 36 23.1 36 35 C24.12 35 12.24 35 0 35 C0 23.45 0 11.9 0 0 Z " fill="#EFEFEF" transform="translate(678,0)"/>
<path d="M0 0 C11.88 0 23.76 0 36 0 C36 11.55 36 23.1 36 35 C24.12 35 12.24 35 0 35 C0 23.45 0 11.9 0 0 Z " fill="#FEFEFE" transform="translate(642,0)"/>
<path d="M0 0 C11.88 0 23.76 0 36 0 C36 11.55 36 23.1 36 35 C24.12 35 12.24 35 0 35 C0 23.45 0 11.9 0 0 Z " fill="#EFEFEF" transform="translate(249,0)"/>
<path d="M0 0 C11.55 0 23.1 0 35 0 C35 11.88 35 23.76 35 36 C29.410625 36.020625 23.82125 36.04125 18.0625 36.0625 C16.29656494 36.071604 14.53062988 36.08070801 12.71118164 36.09008789 C11.31917395 36.09300714 9.92716541 36.09555567 8.53515625 36.09765625 C7.80615112 36.10277222 7.077146 36.10788818 6.3260498 36.11315918 C4.55029924 36.11347011 2.77465792 36.06228515 1 36 C0 35 0 35 -0.11352539 31.67358398 C-0.11327435 30.19774445 -0.10771514 28.72189903 -0.09765625 27.24609375 C-0.09664917 26.55906372 -0.09564209 25.87203369 -0.09460449 25.16418457 C-0.08935776 22.58860616 -0.07539659 20.01305147 -0.0625 17.4375 C-0.041875 11.683125 -0.02125 5.92875 0 0 Z " fill="#EFEEEE" transform="translate(213,889)"/>
<path d="M0 0 C5.589375 -0.020625 11.17875 -0.04125 16.9375 -0.0625 C18.70343506 -0.071604 20.46937012 -0.08070801 22.28881836 -0.09008789 C23.68082605 -0.09300714 25.07283459 -0.09555567 26.46484375 -0.09765625 C27.55835144 -0.1053302 27.55835144 -0.1053302 28.6739502 -0.11315918 C30.44970076 -0.11347011 32.22534208 -0.06228515 34 0 C35 1 35 1 35.11352539 4.32641602 C35.11327435 5.80225555 35.10771514 7.27810097 35.09765625 8.75390625 C35.09664917 9.44093628 35.09564209 10.12796631 35.09460449 10.83581543 C35.08935776 13.41139384 35.07539659 15.98694853 35.0625 18.5625 C35.041875 24.316875 35.02125 30.07125 35 36 C23.45 36 11.9 36 0 36 C0 24.12 0 12.24 0 0 Z " fill="#EFEEEF" transform="translate(178,853)"/>
<path d="M0 0 C5.589375 -0.020625 11.17875 -0.04125 16.9375 -0.0625 C18.70343506 -0.071604 20.46937012 -0.08070801 22.28881836 -0.09008789 C23.68082605 -0.09300714 25.07283459 -0.09555567 26.46484375 -0.09765625 C27.55835144 -0.1053302 27.55835144 -0.1053302 28.6739502 -0.11315918 C30.44970076 -0.11347011 32.22534208 -0.06228515 34 0 C35 1 35 1 35.11352539 4.32641602 C35.11327435 5.80225555 35.10771514 7.27810097 35.09765625 8.75390625 C35.09664917 9.44093628 35.09564209 10.12796631 35.09460449 10.83581543 C35.08935776 13.41139384 35.07539659 15.98694853 35.0625 18.5625 C35.041875 24.316875 35.02125 30.07125 35 36 C23.45 36 11.9 36 0 36 C0 24.12 0 12.24 0 0 Z " fill="#EFEFEF" transform="translate(964,213)"/>
<path d="M0 0 C0.71353638 0.00202423 1.42707275 0.00404846 2.16223145 0.00613403 C2.89091431 0.00517731 3.61959717 0.00422058 4.37036133 0.00323486 C5.91377855 0.00255318 7.45719861 0.00440666 9.00061035 0.00857544 C11.37095544 0.01392391 13.74111104 0.00863011 16.1114502 0.00222778 C17.60754437 0.00288857 19.10363842 0.00416973 20.59973145 0.00613403 C21.31326782 0.0041098 22.0268042 0.00208557 22.76196289 0 C27.76602953 0.02399462 27.76602953 0.02399462 28.88098145 1.13894653 C28.96948815 3.73228801 28.99631314 6.29957232 28.9786377 8.89285278 C28.97763062 9.57988281 28.97662354 10.26691284 28.97558594 10.97476196 C28.97033921 13.55034037 28.95637803 16.12589507 28.94348145 18.70144653 C28.92285645 24.45582153 28.90223145 30.21019653 28.88098145 36.13894653 C17.33098145 36.13894653 5.78098145 36.13894653 -6.11901855 36.13894653 C-6.13964355 30.38457153 -6.16026855 24.63019653 -6.18151855 18.70144653 C-6.19062256 16.88330444 -6.19972656 15.06516235 -6.20910645 13.19192505 C-6.21202567 11.75890171 -6.21457421 10.32587755 -6.2166748 8.89285278 C-6.22179077 8.14225586 -6.22690674 7.39165894 -6.23217773 6.61831665 C-6.23248848 4.79147052 -6.18132969 2.96472971 -6.11901855 1.13894653 C-4.41408974 -0.56598228 -2.27367595 0.01090233 0 0 Z " fill="#EFEEEE" transform="translate(828.1190185546875,852.8610534667969)"/>
<path d="M0 0 C5.589375 -0.020625 11.17875 -0.04125 16.9375 -0.0625 C18.70343506 -0.071604 20.46937012 -0.08070801 22.28881836 -0.09008789 C23.68082605 -0.09300714 25.07283459 -0.09555567 26.46484375 -0.09765625 C27.55835144 -0.1053302 27.55835144 -0.1053302 28.6739502 -0.11315918 C30.44970076 -0.11347011 32.22534208 -0.06228515 34 0 C35 1 35 1 35.11352539 4.32641602 C35.11327435 5.80225555 35.10771514 7.27810097 35.09765625 8.75390625 C35.09664917 9.44093628 35.09564209 10.12796631 35.09460449 10.83581543 C35.08935776 13.41139384 35.07539659 15.98694853 35.0625 18.5625 C35.041875 24.316875 35.02125 30.07125 35 36 C23.45 36 11.9 36 0 36 C0 24.12 0 12.24 0 0 Z " fill="#EFEFEF" transform="translate(893,213)"/>
<path d="M0 0 C-0.33 0.33 -0.66 0.66 -1 1 C6.59 1.33 14.18 1.66 22 2 C22.73081501 5.65407504 23.12797059 8.39397824 23.1328125 12.01953125 C23.13474609 13.43008789 23.13474609 13.43008789 23.13671875 14.86914062 C23.13285156 15.84044922 23.12898437 16.81175781 23.125 17.8125 C23.13080078 19.25206055 23.13080078 19.25206055 23.13671875 20.72070312 C23.13542969 21.66494141 23.13414062 22.60917969 23.1328125 23.58203125 C23.13168457 24.42999268 23.13055664 25.2779541 23.12939453 26.15161133 C22.96440597 29.78353885 22.45094975 33.39240203 22 37 C10.45 37 -1.1 37 -13 37 C-13 26.44 -13 15.88 -13 5 C-13.66 4.67 -14.32 4.34 -15 4 C-12.87875034 3.13656176 -10.75286928 2.28449352 -8.625 1.4375 C-6.84996094 0.72400391 -6.84996094 0.72400391 -5.0390625 -0.00390625 C-2 -1 -2 -1 0 0 Z " fill="#EFEEEE" transform="translate(693,923)"/>
<path d="M0 0 C11.55 0 23.1 0 35 0 C35.020625 5.011875 35.04125 10.02375 35.0625 15.1875 C35.071604 16.76039795 35.08070801 18.3332959 35.09008789 19.95385742 C35.09258545 21.20013916 35.09508301 22.4464209 35.09765625 23.73046875 C35.10289307 25.00301514 35.10812988 26.27556152 35.11352539 27.58666992 C35 31 35 31 34 36 C22.78 36 11.56 36 0 36 C0 24.12 0 12.24 0 0 Z " fill="#EFEEEF" transform="translate(107,142)"/>
<path d="M0 0 C11.88 0 23.76 0 36 0 C36.020625 5.40375 36.04125 10.8075 36.0625 16.375 C36.071604 18.07962402 36.08070801 19.78424805 36.09008789 21.54052734 C36.09300802 22.88899659 36.09555635 24.23746672 36.09765625 25.5859375 C36.10277222 26.28823486 36.10788818 26.99053223 36.11315918 27.71411133 C36.1140718 32.7718564 36.1140718 32.7718564 35 35 C23.45 35 11.9 35 0 35 C0 23.45 0 11.9 0 0 Z " fill="#EFEFEF" transform="translate(535,0)"/>
<path d="M0 0 C11.55 0 23.1 0 35 0 C35.495 6.9609375 35.495 6.9609375 36 14.0625 C36.12503906 15.51277588 36.25007813 16.96305176 36.37890625 18.45727539 C36.86471311 27.75931396 36.86471311 27.75931396 34.28515625 31.46044922 C29.55953134 35.64023454 26.40712355 37.15370928 20.1171875 36.87890625 C19.06644043 36.83580322 18.01569336 36.7927002 16.93310547 36.74829102 C15.59393066 36.68697998 14.25475586 36.62566895 12.875 36.5625 C8.62625 36.376875 4.3775 36.19125 0 36 C0 24.12 0 12.24 0 0 Z " fill="#EFEEEE" transform="translate(178,142)"/>
<path d="M0 0 C11.88 0 23.76 0 36 0 C35.67 11.55 35.34 23.1 35 35 C23.45 35 11.9 35 0 35 C0 23.45 0 11.9 0 0 Z " fill="#EFEEEF" transform="translate(392,0)"/>
<path d="M0 0 C11.55 0 23.1 0 35 0 C35 11.55 35 23.1 35 35 C23.12 35 11.24 35 -1 35 C-0.67 23.45 -0.34 11.9 0 0 Z " fill="#EEEEEE" transform="translate(572,960)"/>
<path d="M0 0 C11.55 0 23.1 0 35 0 C35 11.55 35 23.1 35 35 C23.12 35 11.24 35 -1 35 C-0.67 23.45 -0.34 11.9 0 0 Z " fill="#EEEEEE" transform="translate(857,178)"/>
<path d="M0 0 C11.55 0 23.1 0 35 0 C35 11.55 35 23.1 35 35 C23.45 35 11.9 35 0 35 C0 23.45 0 11.9 0 0 Z " fill="#EEEEEE" transform="translate(928,960)"/>
<path d="M0 0 C11.55 0 23.1 0 35 0 C35 11.55 35 23.1 35 35 C23.45 35 11.9 35 0 35 C0 23.45 0 11.9 0 0 Z " fill="#EEEEEE" transform="translate(716,960)"/>
<path d="M0 0 C11.55 0 23.1 0 35 0 C35 11.55 35 23.1 35 35 C23.45 35 11.9 35 0 35 C0 23.45 0 11.9 0 0 Z " fill="#EEEEEE" transform="translate(213,960)"/>
<path d="M0 0 C11.55 0 23.1 0 35 0 C35 11.55 35 23.1 35 35 C23.45 35 11.9 35 0 35 C0 23.45 0 11.9 0 0 Z " fill="#EEEEEE" transform="translate(142,960)"/>
<path d="M0 0 C11.55 0 23.1 0 35 0 C35 11.55 35 23.1 35 35 C23.45 35 11.9 35 0 35 C0 23.45 0 11.9 0 0 Z " fill="#EEEEEE" transform="translate(0,960)"/>
<path d="M0 0 C11.55 0 23.1 0 35 0 C35 11.55 35 23.1 35 35 C23.45 35 11.9 35 0 35 C0 23.45 0 11.9 0 0 Z " fill="#EEEEEE" transform="translate(964,925)"/>
<path d="M0 0 C11.55 0 23.1 0 35 0 C35 11.55 35 23.1 35 35 C23.45 35 11.9 35 0 35 C0 23.45 0 11.9 0 0 Z " fill="#EEEEEE" transform="translate(249,925)"/>
<path d="M0 0 C11.55 0 23.1 0 35 0 C35 11.55 35 23.1 35 35 C23.45 35 11.9 35 0 35 C0 23.45 0 11.9 0 0 Z " fill="#EFEEEE" transform="translate(178,925)"/>
<path d="M0 0 C11.55 0 23.1 0 35 0 C35 11.55 35 23.1 35 35 C23.45 35 11.9 35 0 35 C0 23.45 0 11.9 0 0 Z " fill="#EFEEEF" transform="translate(893,925)"/>
<path d="M0 0 C11.55 0 23.1 0 35 0 C35 11.55 35 23.1 35 35 C23.45 35 11.9 35 0 35 C0 23.45 0 11.9 0 0 Z " fill="#EEEEEE" transform="translate(822,925)"/>
<path d="M0 0 C11.55 0 23.1 0 35 0 C35 11.55 35 23.1 35 35 C23.45 35 11.9 35 0 35 C0 23.45 0 11.9 0 0 Z " fill="#FEFEFE" transform="translate(0,925)"/>
<path d="M0 0 C11.55 0 23.1 0 35 0 C35 11.55 35 23.1 35 35 C23.45 35 11.9 35 0 35 C0 23.45 0 11.9 0 0 Z " fill="#EEEEEE" transform="translate(928,818)"/>
<path d="M0 0 C11.55 0 23.1 0 35 0 C35 11.55 35 23.1 35 35 C23.45 35 11.9 35 0 35 C0 23.45 0 11.9 0 0 Z " fill="#FEFEFE" transform="translate(893,818)"/>
<path d="M0 0 C11.55 0 23.1 0 35 0 C35 11.55 35 23.1 35 35 C23.45 35 11.9 35 0 35 C0 23.45 0 11.9 0 0 Z " fill="#EEEEEE" transform="translate(142,818)"/>
<path d="M0 0 C11.55 0 23.1 0 35 0 C35 11.55 35 23.1 35 35 C23.45 35 11.9 35 0 35 C0 23.45 0 11.9 0 0 Z " fill="#EEEEEE" transform="translate(71,818)"/>
<path d="M0 0 C11.55 0 23.1 0 35 0 C35 11.55 35 23.1 35 35 C23.45 35 11.9 35 0 35 C0 23.45 0 11.9 0 0 Z " fill="#EEEEEF" transform="translate(0,818)"/>
<path d="M0 0 C11.55 0 23.1 0 35 0 C35 11.55 35 23.1 35 35 C23.45 35 11.9 35 0 35 C0 23.45 0 11.9 0 0 Z " fill="#EEEEEE" transform="translate(928,747)"/>
<path d="M0 0 C11.55 0 23.1 0 35 0 C35 11.55 35 23.1 35 35 C23.45 35 11.9 35 0 35 C0 23.45 0 11.9 0 0 Z " fill="#EEEEEE" transform="translate(964,712)"/>
<path d="M0 0 C11.55 0 23.1 0 35 0 C35 11.55 35 23.1 35 35 C23.45 35 11.9 35 0 35 C0 23.45 0 11.9 0 0 Z " fill="#EEEEEE" transform="translate(964,641)"/>
<path d="M0 0 C11.55 0 23.1 0 35 0 C35 11.55 35 23.1 35 35 C23.45 35 11.9 35 0 35 C0 23.45 0 11.9 0 0 Z " fill="#FEFEFE" transform="translate(0,641)"/>
<path d="M0 0 C11.55 0 23.1 0 35 0 C35 11.55 35 23.1 35 35 C23.45 35 11.9 35 0 35 C0 23.45 0 11.9 0 0 Z " fill="#EEEEEE" transform="translate(964,570)"/>
<path d="M0 0 C11.55 0 23.1 0 35 0 C35 11.55 35 23.1 35 35 C23.45 35 11.9 35 0 35 C0 23.45 0 11.9 0 0 Z " fill="#EFEEEE" transform="translate(0,391)"/>
<path d="M0 0 C11.55 0 23.1 0 35 0 C35 11.55 35 23.1 35 35 C23.45 35 11.9 35 0 35 C0 23.45 0 11.9 0 0 Z " fill="#EEEEEE" transform="translate(964,356)"/>
<path d="M0 0 C11.55 0 23.1 0 35 0 C35 11.55 35 23.1 35 35 C23.45 35 11.9 35 0 35 C0 23.45 0 11.9 0 0 Z " fill="#EFEEEF" transform="translate(0,320)"/>
<path d="M0 0 C11.55 0 23.1 0 35 0 C35 11.55 35 23.1 35 35 C23.45 35 11.9 35 0 35 C0 23.45 0 11.9 0 0 Z " fill="#EEEEEE" transform="translate(928,249)"/>
<path d="M0 0 C11.55 0 23.1 0 35 0 C35 11.55 35 23.1 35 35 C23.45 35 11.9 35 0 35 C0 23.45 0 11.9 0 0 Z " fill="#EEEEEE" transform="translate(71,249)"/>
<path d="M0 0 C11.55 0 23.1 0 35 0 C35 11.55 35 23.1 35 35 C23.45 35 11.9 35 0 35 C0 23.45 0 11.9 0 0 Z " fill="#EEEEEE" transform="translate(0,249)"/>
<path d="M0 0 C11.55 0 23.1 0 35 0 C35 11.55 35 23.1 35 35 C23.45 35 11.9 35 0 35 C0 23.45 0 11.9 0 0 Z " fill="#EEEEEE" transform="translate(928,178)"/>
<path d="M0 0 C11.55 0 23.1 0 35 0 C35 11.55 35 23.1 35 35 C23.45 35 11.9 35 0 35 C0 23.45 0 11.9 0 0 Z " fill="#EFEEEE" transform="translate(0,178)"/>
<path d="M0 0 C11.55 0 23.1 0 35 0 C35 11.55 35 23.1 35 35 C23.45 35 11.9 35 0 35 C0 23.45 0 11.9 0 0 Z " fill="#EEEEEE" transform="translate(786,107)"/>
<path d="M0 0 C11.55 0 23.1 0 35 0 C35 11.55 35 23.1 35 35 C23.45 35 11.9 35 0 35 C0 23.45 0 11.9 0 0 Z " fill="#EEEEEE" transform="translate(0,107)"/>
<path d="M0 0 C11.55 0 23.1 0 35 0 C35 11.55 35 23.1 35 35 C23.45 35 11.9 35 0 35 C0 23.45 0 11.9 0 0 Z " fill="#EEEEEE" transform="translate(928,107)"/>
<path d="M0 0 C11.55 0 23.1 0 35 0 C35 11.55 35 23.1 35 35 C23.45 35 11.9 35 0 35 C0 23.45 0 11.9 0 0 Z " fill="#EEEEEE" transform="translate(857,107)"/>
<path d="M0 0 C11.55 0 23.1 0 35 0 C35 11.55 35 23.1 35 35 C23.45 35 11.9 35 0 35 C0 23.45 0 11.9 0 0 Z " fill="#FEFEFE" transform="translate(178,107)"/>
<path d="M0 0 C11.55 0 23.1 0 35 0 C35 11.55 35 23.1 35 35 C23.45 35 11.9 35 0 35 C0 23.45 0 11.9 0 0 Z " fill="#EFEEEE" transform="translate(821,0)"/>
<path d="M0 0 C11.55 0 23.1 0 35 0 C35 11.55 35 23.1 35 35 C23.45 35 11.9 35 0 35 C0 23.45 0 11.9 0 0 Z " fill="#EFEEEF" transform="translate(750,0)"/>
<path d="M0 0 C11.55 0 23.1 0 35 0 C35 11.55 35 23.1 35 35 C23.45 35 11.9 35 0 35 C0 23.45 0 11.9 0 0 Z " fill="#EEEEEE" transform="translate(607,0)"/>
<path d="M0 0 C11.55 0 23.1 0 35 0 C35 11.55 35 23.1 35 35 C23.45 35 11.9 35 0 35 C0 23.45 0 11.9 0 0 Z " fill="#EFEEEF" transform="translate(178,0)"/>
<path d="M0 0 C11.55 0 23.1 0 35 0 C35 11.55 35 23.1 35 35 C23.45 35 11.9 35 0 35 C0 23.45 0 11.9 0 0 Z " fill="#EFEFEF" transform="translate(107,0)"/>
<path d="M0 0 C11.55 0 23.1 0 35 0 C35 11.55 35 23.1 35 35 C23.45 35 11.9 35 0 35 C0 23.45 0 11.9 0 0 Z " fill="#FEFEFE" transform="translate(0,0)"/>
<path d="M0 0 C11.22 0 22.44 0 34 0 C34 11.88 34 23.76 34 36 C22.78 36 11.56 36 0 36 C0 24.12 0 12.24 0 0 Z " fill="#EFEEEE" transform="translate(787,889)"/>
<path d="M0 0 C5.589375 -0.020625 11.17875 -0.04125 16.9375 -0.0625 C18.70343506 -0.071604 20.46937012 -0.08070801 22.28881836 -0.09008789 C23.68082605 -0.09300714 25.07283459 -0.09555567 26.46484375 -0.09765625 C27.55835144 -0.1053302 27.55835144 -0.1053302 28.6739502 -0.11315918 C30.44970076 -0.11347011 32.22534208 -0.06228515 34 0 C35 1 35 1 35.11352539 4.23461914 C35.11327438 5.66814125 35.10771608 7.10166942 35.09765625 8.53515625 C35.09664917 9.20252808 35.09564209 9.8698999 35.09460449 10.55749512 C35.08935808 13.0591808 35.07539691 15.56084206 35.0625 18.0625 C35.041875 23.651875 35.02125 29.24125 35 35 C23.45 35 11.9 35 0 35 C0 23.45 0 11.9 0 0 Z " fill="#EFEFEF" transform="translate(0,747)"/>
<path d="M0 0 C5.589375 -0.020625 11.17875 -0.04125 16.9375 -0.0625 C18.70343506 -0.071604 20.46937012 -0.08070801 22.28881836 -0.09008789 C23.68082605 -0.09300714 25.07283459 -0.09555567 26.46484375 -0.09765625 C27.55835144 -0.1053302 27.55835144 -0.1053302 28.6739502 -0.11315918 C30.44970076 -0.11347011 32.22534208 -0.06228515 34 0 C35 1 35 1 35.11352539 4.23461914 C35.11327438 5.66814125 35.10771608 7.10166942 35.09765625 8.53515625 C35.09664917 9.20252808 35.09564209 9.8698999 35.09460449 10.55749512 C35.08935808 13.0591808 35.07539691 15.56084206 35.0625 18.0625 C35.041875 23.651875 35.02125 29.24125 35 35 C23.45 35 11.9 35 0 35 C0 23.45 0 11.9 0 0 Z " fill="#EEEEEE" transform="translate(0,534)"/>
<path d="M0 0 C11.22 0 22.44 0 34 0 C34 11.88 34 23.76 34 36 C22.78 36 11.56 36 0 36 C0 24.12 0 12.24 0 0 Z " fill="#EEEEEE" transform="translate(893,142)"/>
<path d="M0 0 C11.22 0 22.44 0 34 0 C34 11.88 34 23.76 34 36 C22.78 36 11.56 36 0 36 C0 24.12 0 12.24 0 0 Z " fill="#EFEEEE" transform="translate(893,71)"/>
<path d="M0 0 C11.22 0 22.44 0 34 0 C34 11.88 34 23.76 34 36 C22.78 36 11.56 36 0 36 C0 24.12 0 12.24 0 0 Z " fill="#EFEEEF" transform="translate(107,71)"/>
<path d="M0 0 C11.55 0 23.1 0 35 0 C35.020625 5.589375 35.04125 11.17875 35.0625 16.9375 C35.071604 18.70343506 35.08070801 20.46937012 35.09008789 22.28881836 C35.09300714 23.68082605 35.09555567 25.07283459 35.09765625 26.46484375 C35.10277222 27.19384888 35.10788818 27.922854 35.11315918 28.6739502 C35.11347011 30.44970076 35.06228515 32.22534208 35 34 C34 35 34 35 30.76538086 35.11352539 C29.33185875 35.11327438 27.89833058 35.10771608 26.46484375 35.09765625 C25.46378601 35.09614563 25.46378601 35.09614563 24.44250488 35.09460449 C21.9408192 35.08935808 19.43915794 35.07539691 16.9375 35.0625 C8.5534375 35.0315625 8.5534375 35.0315625 0 35 C0 23.45 0 11.9 0 0 Z " fill="#EFEEEF" transform="translate(321,0)"/>
<path d="M0 0 C1.3912047 0.00025098 2.78241565 0.0058083 4.17358398 0.01586914 C4.82129761 0.01687622 5.46901123 0.0178833 6.13635254 0.0189209 C8.56414552 0.02416696 10.99191334 0.03812814 13.41967773 0.05102539 C21.55624023 0.08196289 21.55624023 0.08196289 29.85717773 0.11352539 C29.85717773 11.99352539 29.85717773 23.87352539 29.85717773 36.11352539 C18.63717773 36.11352539 7.41717773 36.11352539 -4.14282227 36.11352539 C-4.16573183 31.14724105 -4.18565869 26.18113876 -4.19775391 21.21484375 C-4.20279416 19.52408224 -4.20962631 17.8333251 -4.21826172 16.14257812 C-4.23034083 13.71751832 -4.2360535 11.29251595 -4.24047852 8.86743164 C-4.2456398 8.10701065 -4.25080109 7.34658966 -4.25611877 6.56312561 C-4.25631464 4.74619969 -4.20479503 2.92939412 -4.14282227 1.11352539 C-3.14282227 0.11352539 -3.14282227 0.11352539 0 0 Z " fill="#EEEEEF" transform="translate(111.142822265625,781.886474609375)"/>
<path d="M0 0 C0.33 0 0.66 0 1 0 C1.16604736 1.20160767 1.16604736 1.20160767 1.33544922 2.42749023 C1.84485606 6.09802895 2.35988444 9.76775827 2.875 13.4375 C3.04902344 14.69755859 3.22304687 15.95761719 3.40234375 17.25585938 C4.1577803 22.61386306 4.91553559 27.92087423 6.15234375 33.19140625 C6.99131342 36.96097042 7.01622242 39.30464575 6 43 C5 44 5 44 1.67358398 44.11352539 C0.19774445 44.11327435 -1.27810097 44.10771514 -2.75390625 44.09765625 C-3.44093628 44.09664917 -4.12796631 44.09564209 -4.83581543 44.09460449 C-7.41139384 44.08935776 -9.98694853 44.07539659 -12.5625 44.0625 C-18.316875 44.041875 -24.07125 44.02125 -30 44 C-30 32.45 -30 20.9 -30 9 C-20.1 9 -10.2 9 0 9 C0 6.03 0 3.06 0 0 Z " fill="#EFEEEE" transform="translate(65,561)"/>
<path d="M0 0 C11.55 0 23.1 0 35 0 C35.309375 4.455 35.61875 8.91 35.9375 13.5 C36.11140259 15.58344727 36.11140259 15.58344727 36.28881836 17.70898438 C36.58329774 23.37148381 36.74932706 28.11057641 33.4375 32.90625 C29.85192968 36.26752473 26.79690242 36.49430831 21.97265625 36.5625 C19.33287684 36.42463528 16.69610675 36.22706281 14.0625 36 C9.421875 35.67 4.78125 35.34 0 35 C0 23.45 0 11.9 0 0 Z " fill="#EEEEEE" transform="translate(142,178)"/>
<path d="M0 0 C11.22 0.33 22.44 0.66 34 1 C34 12.55 34 24.1 34 36 C22.78 36 11.56 36 0 36 C0 24.12 0 12.24 0 0 Z " fill="#EEEEEE" transform="translate(107,213)"/>
<path d="M0 0 C11.22 0 22.44 0 34 0 C34 11.55 34 23.1 34 35 C22.78 35 11.56 35 0 35 C0 23.45 0 11.9 0 0 Z " fill="#EEEEEE" transform="translate(787,960)"/>
<path d="M0 0 C11.22 0 22.44 0 34 0 C34 11.55 34 23.1 34 35 C22.78 35 11.56 35 0 35 C0 23.45 0 11.9 0 0 Z " fill="#EEEEEE" transform="translate(107,925)"/>
<path d="M0 0 C11.22 0 22.44 0 34 0 C34 11.55 34 23.1 34 35 C22.78 35 11.56 35 0 35 C0 23.45 0 11.9 0 0 Z " fill="#EEEEEE" transform="translate(752,925)"/>
<path d="M0 0 C11.22 0 22.44 0 34 0 C34 11.55 34 23.1 34 35 C22.78 35 11.56 35 0 35 C0 23.45 0 11.9 0 0 Z " fill="#EFEEEF" transform="translate(893,0)"/>
<path d="M0 0 C12.97202229 -0.60806354 22.26847051 0.42018163 34 6 C35 7 35 7 35.11352539 9.68383789 C35.10828857 10.85164795 35.10305176 12.01945801 35.09765625 13.22265625 C35.09515869 14.35711182 35.09266113 15.49156738 35.09008789 16.66040039 C35.08098389 18.11309326 35.07187988 19.56578613 35.0625 21.0625 C35.041875 25.661875 35.02125 30.26125 35 35 C23.45 35 11.9 35 0 35 C0 23.45 0 11.9 0 0 Z " fill="#EEEEEE" transform="translate(320,925)"/>
<path d="M0 0 C10.89 0 21.78 0 33 0 C33.83655922 5.01935534 33.90043876 8.69224535 33.22265625 13.5859375 C33.08735756 14.63861313 33.08735756 14.63861313 32.94932556 15.71255493 C32.66185242 17.93452244 32.36238095 20.15467662 32.0625 22.375 C31.86443694 23.88921882 31.66716322 25.40354112 31.47070312 26.91796875 C30.98959284 30.61322005 30.49771555 34.30694427 30 38 C29.34 37.34 28.68 36.68 28 36 C25.08512078 35.72123233 25.08512078 35.72123233 21.6796875 35.8046875 C20.54772949 35.80968262 19.41577148 35.81467773 18.24951172 35.81982422 C16.80592285 35.83803223 15.36233398 35.85624023 13.875 35.875 C7.006875 35.936875 7.006875 35.936875 0 36 C0 24.12 0 12.24 0 0 Z " fill="#EEEEEE" transform="translate(35,427)"/>
<path d="M0 0 C11.88 0 23.76 0 36 0 C36 11.00504935 35.73204499 22.0193251 35 33 C22.79 31.02 10.58 29.04 -2 27 C-1.34 26.67 -0.68 26.34 0 26 C0 17.42 0 8.84 0 0 Z " fill="#EFEEEE" transform="translate(571,35)"/>
<path d="M0 0 C11.88 0 23.76 0 36 0 C36 9.57 36 19.14 36 29 C24.12 29 12.24 29 0 29 C0 19.43 0 9.86 0 0 Z " fill="#EFEEEF" transform="translate(535,995)"/>
<path d="M0 0 C1.47583955 0.0001591 2.95168467 0.00585225 4.42749023 0.01586914 C5.20293686 0.01728409 5.97838348 0.01869904 6.77732849 0.02015686 C9.26361893 0.02577194 11.74982059 0.03832693 14.23608398 0.05102539 C15.91772331 0.05603845 17.59936405 0.06060169 19.28100586 0.06469727 C23.41192728 0.07489707 27.5426558 0.09446934 31.67358398 0.11352539 C31.67358398 9.68352539 31.67358398 19.25352539 31.67358398 29.11352539 C19.79358398 29.11352539 7.91358398 29.11352539 -4.32641602 29.11352539 C-4.34704102 24.51415039 -4.36766602 19.91477539 -4.38891602 15.17602539 C-4.39802002 13.72333252 -4.40712402 12.27063965 -4.41650391 10.77392578 C-4.41900146 9.63947021 -4.42149902 8.50501465 -4.42407227 7.33618164 C-4.42930908 6.16837158 -4.4345459 5.00056152 -4.43994141 3.79736328 C-4.27215231 -0.16931519 -4.06467895 0.13872115 0 0 Z " fill="#FEFEFE" transform="translate(288.326416015625,994.886474609375)"/>
<path d="M0 0 C11.55 0 23.1 0 35 0 C35 9.57 35 19.14 35 29 C23.45 29 11.9 29 0 29 C0 19.43 0 9.86 0 0 Z " fill="#EFEFEF" transform="translate(893,995)"/>
<path d="M0 0 C11.55 0 23.1 0 35 0 C35 9.57 35 19.14 35 29 C23.45 29 11.9 29 0 29 C0 19.43 0 9.86 0 0 Z " fill="#EFEFEF" transform="translate(822,995)"/>
<path d="M0 0 C11.55 0 23.1 0 35 0 C35 9.57 35 19.14 35 29 C23.45 29 11.9 29 0 29 C0 19.43 0 9.86 0 0 Z " fill="#EFEEEF" transform="translate(680,995)"/>
<path d="M0 0 C11.55 0 23.1 0 35 0 C35 9.57 35 19.14 35 29 C23.45 29 11.9 29 0 29 C0 19.43 0 9.86 0 0 Z " fill="#EEEEEE" transform="translate(608,995)"/>
<path d="M0 0 C11.55 0 23.1 0 35 0 C35 9.57 35 19.14 35 29 C23.45 29 11.9 29 0 29 C0 19.43 0 9.86 0 0 Z " fill="#EEEEEE" transform="translate(320,995)"/>
<path d="M0 0 C11.55 0 23.1 0 35 0 C35 9.57 35 19.14 35 29 C23.45 29 11.9 29 0 29 C0 19.43 0 9.86 0 0 Z " fill="#FEFEFE" transform="translate(71,995)"/>
<path d="M0 0 C11.55 0 23.1 0 35 0 C35 9.57 35 19.14 35 29 C23.45 29 11.9 29 0 29 C0 19.43 0 9.86 0 0 Z " fill="#FEFEFE" transform="translate(0,995)"/>
<path d="M0 0 C4.82387067 -0.0229102 9.64755389 -0.04283686 14.47143555 -0.05493164 C16.11369464 -0.05997174 17.75594923 -0.06680378 19.39819336 -0.07543945 C21.75375479 -0.08751926 24.10925709 -0.09323139 26.46484375 -0.09765625 C27.20339096 -0.10281754 27.94193817 -0.10797882 28.7028656 -0.11329651 C30.46898088 -0.1134925 32.23497146 -0.06194719 34 0 C35 1 35 1 35.11352539 3.68383789 C35.10828857 4.85164795 35.10305176 6.01945801 35.09765625 7.22265625 C35.09515869 8.35711182 35.09266113 9.49156738 35.09008789 10.66040039 C35.08098389 12.11309326 35.07187988 13.56578613 35.0625 15.0625 C35.041875 19.661875 35.02125 24.26125 35 29 C23.45 29 11.9 29 0 29 C0 19.43 0 9.86 0 0 Z " fill="#EFEFEF" transform="translate(178,995)"/>
<path d="M0 0 C1.43352212 0.00015908 2.86704998 0.00585132 4.30053711 0.01586914 C5.43041298 0.01799156 5.43041298 0.01799156 6.58311462 0.02015686 C8.99807646 0.02577163 11.41294687 0.03832656 13.82788086 0.05102539 C15.46134307 0.05603849 17.09480672 0.06060173 18.72827148 0.06469727 C22.74070516 0.07489664 26.75294021 0.09446894 30.76538086 0.11352539 C30.76538086 9.68352539 30.76538086 19.25352539 30.76538086 29.11352539 C19.21538086 29.11352539 7.66538086 29.11352539 -4.23461914 29.11352539 C-4.25524414 24.51415039 -4.27586914 19.91477539 -4.29711914 15.17602539 C-4.30622314 13.72333252 -4.31532715 12.27063965 -4.32470703 10.77392578 C-4.32720459 9.63947021 -4.32970215 8.50501465 -4.33227539 7.33618164 C-4.33751221 6.16837158 -4.34274902 5.00056152 -4.34814453 3.79736328 C-4.18235834 -0.12196498 -4.00060085 0.14040904 0 0 Z " fill="#EFEFEF" transform="translate(395.234619140625,994.886474609375)"/>
<path d="M0 0 C11.22 0 22.44 0 34 0 C34 9.57 34 19.14 34 29 C22.78 29 11.56 29 0 29 C0 19.43 0 9.86 0 0 Z " fill="#EFEEEF" transform="translate(752,995)"/>
<path d="M0 0 C6.373125 -0.0309375 6.373125 -0.0309375 12.875 -0.0625 C14.2141748 -0.071604 15.55334961 -0.08070801 16.93310547 -0.09008789 C18.50922607 -0.09383423 18.50922607 -0.09383423 20.1171875 -0.09765625 C21.73536377 -0.10551147 21.73536377 -0.10551147 23.38623047 -0.11352539 C26 0 26 0 28 1 C28.0493651 5.94790177 28.08570269 10.89566083 28.10986328 15.84375 C28.11993317 17.52769466 28.13358988 19.21162179 28.15087891 20.89550781 C28.17508426 23.31319501 28.18647296 25.73065143 28.1953125 28.1484375 C28.20563507 28.9036972 28.21595764 29.65895691 28.22659302 30.43710327 C28.22699318 32.2929398 28.12222716 34.1481928 28 36 C27.34 36.66 26.68 37.32 26 38 C26 37.34 26 36.68 26 36 C17.42 36 8.84 36 0 36 C0 24.12 0 12.24 0 0 Z " fill="#EFEDED" transform="translate(35,498)"/>
<path d="M0 0 C11.55 0 23.1 0 35 0 C35.04125 3.91875 35.0825 7.8375 35.125 11.875 C35.14320801 13.10976074 35.16141602 14.34452148 35.18017578 15.61669922 C35.1851709 16.58623535 35.19016602 17.55577148 35.1953125 18.5546875 C35.21102295 20.04718018 35.21102295 20.04718018 35.22705078 21.56982422 C35 24 35 24 33 26 C30.40551758 26.57836914 30.40551758 26.57836914 27.14453125 27.03515625 C25.96439453 27.20466797 24.78425781 27.37417969 23.56835938 27.54882812 C22.32892578 27.71833984 21.08949219 27.88785156 19.8125 28.0625 C18.59240234 28.23587891 17.37230469 28.40925781 16.11523438 28.58789062 C13.82449815 28.91265008 11.53328245 29.23405783 9.24145508 29.55102539 C5.82624378 30.02406701 2.41316391 30.51240516 -1 31 C-0.67 20.77 -0.34 10.54 0 0 Z " fill="#EFEEEE" transform="translate(428,35)"/>
<path d="M0 0 C11.55 0 23.1 0 35 0 C35 10.56 35 21.12 35 32 C31.43980058 33.18673314 30.41220957 32.48997084 27.16308594 30.90307617 C26.53176758 30.58443604 25.90044922 30.2657959 25.25 29.9375 C18.62609774 26.7062685 11.92309063 23.90920683 5.046875 21.26171875 C2 20 2 20 -1 18 C-1.2487793 16.12060547 -1.2487793 16.12060547 -1.07421875 13.8671875 C-1.02612061 13.14128418 -0.97802246 12.41538086 -0.9284668 11.66748047 C-0.84894775 10.74596191 -0.76942871 9.82444336 -0.6875 8.875 C-0.460625 5.94625 -0.23375 3.0175 0 0 Z " fill="#EEEEEE" transform="translate(679,71)"/>
<path d="M0 0 C8.25 0 16.5 0 25 0 C25 11.88 25 23.76 25 36 C16.75 36 8.5 36 0 36 C0 24.12 0 12.24 0 0 Z " fill="#EFEEEF" transform="translate(999,391)"/>
<path d="M0 0 C8.25 0 16.5 0 25 0 C25 11.88 25 23.76 25 36 C16.75 36 8.5 36 0 36 C0 24.12 0 12.24 0 0 Z " fill="#EFEEEF" transform="translate(999,35)"/>
<path d="M0 0 C8.25 0 16.5 0 25 0 C25 11.88 25 23.76 25 36 C21.060625 36.020625 17.12125 36.04125 13.0625 36.0625 C11.19670288 36.07615601 11.19670288 36.07615601 9.29321289 36.09008789 C8.3211792 36.09258545 7.34914551 36.09508301 6.34765625 36.09765625 C4.84730835 36.10551147 4.84730835 36.10551147 3.31665039 36.11352539 C1 36 1 36 0 35 C-0.08851529 32.40640678 -0.11525945 29.83960309 -0.09765625 27.24609375 C-0.09553383 26.08292381 -0.09553383 26.08292381 -0.09336853 24.89625549 C-0.08775345 22.40996506 -0.07519846 19.9237634 -0.0625 17.4375 C-0.05748694 15.75586067 -0.0529237 14.07421994 -0.04882812 12.39257812 C-0.03862832 8.26165671 -0.01905605 4.13092818 0 0 Z " fill="#EFEEEF" transform="translate(999,889)"/>
<path d="M0 0 C0 11.55 0 23.1 0 35 C-11.88 35 -23.76 35 -36 35 C-36 30.05 -36 25.1 -36 20 C-34.71867188 19.31035156 -33.43734375 18.62070312 -32.1171875 17.91015625 C-22.68291743 12.79634681 -13.4649738 7.5676471 -4.5546875 1.58203125 C-2 0 -2 0 0 0 Z " fill="#EFEEEE" transform="translate(752,890)"/>
<path d="M0 0 C8.25 0 16.5 0 25 0 C25 11.55 25 23.1 25 35 C16.75 35 8.5 35 0 35 C0 23.45 0 11.9 0 0 Z " fill="#EFEEEE" transform="translate(999,960)"/>
<path d="M0 0 C8.25 0 16.5 0 25 0 C25 11.55 25 23.1 25 35 C16.75 35 8.5 35 0 35 C0 23.45 0 11.9 0 0 Z " fill="#EEEEEE" transform="translate(999,818)"/>
<path d="M0 0 C8.25 0 16.5 0 25 0 C25 11.55 25 23.1 25 35 C16.75 35 8.5 35 0 35 C0 23.45 0 11.9 0 0 Z " fill="#EEEEEE" transform="translate(999,747)"/>
<path d="M0 0 C8.25 0 16.5 0 25 0 C25 11.55 25 23.1 25 35 C16.75 35 8.5 35 0 35 C0 23.45 0 11.9 0 0 Z " fill="#FEFEFE" transform="translate(999,712)"/>
<path d="M0 0 C8.25 0 16.5 0 25 0 C25 11.55 25 23.1 25 35 C16.75 35 8.5 35 0 35 C0 23.45 0 11.9 0 0 Z " fill="#FEFEFE" transform="translate(999,641)"/>
<path d="M0 0 C8.25 0 16.5 0 25 0 C25 11.55 25 23.1 25 35 C16.75 35 8.5 35 0 35 C0 23.45 0 11.9 0 0 Z " fill="#EEEEEE" transform="translate(999,534)"/>
<path d="M0 0 C8.25 0 16.5 0 25 0 C25 11.55 25 23.1 25 35 C16.75 35 8.5 35 0 35 C0 23.45 0 11.9 0 0 Z " fill="#EEEEEE" transform="translate(999,463)"/>
<path d="M0 0 C8.25 0 16.5 0 25 0 C25 11.55 25 23.1 25 35 C16.75 35 8.5 35 0 35 C0 23.45 0 11.9 0 0 Z " fill="#EEEEEE" transform="translate(999,320)"/>
<path d="M0 0 C8.25 0 16.5 0 25 0 C25 11.55 25 23.1 25 35 C16.75 35 8.5 35 0 35 C0 23.45 0 11.9 0 0 Z " fill="#EEEEEE" transform="translate(999,178)"/>
<path d="M0 0 C8.25 0 16.5 0 25 0 C25 11.55 25 23.1 25 35 C16.75 35 8.5 35 0 35 C0 23.45 0 11.9 0 0 Z " fill="#EFEEEF" transform="translate(999,107)"/>
<path d="M0 0 C8.25 0 16.5 0 25 0 C25 11.55 25 23.1 25 35 C16.75 35 8.5 35 0 35 C0 23.45 0 11.9 0 0 Z " fill="#FEFEFE" transform="translate(999,0)"/>
<path d="M0 0 C9.9 0 19.8 0 30 0 C31 2 31 2 30.44262695 3.79663086 C29.97022583 4.86989624 29.97022583 4.86989624 29.48828125 5.96484375 C29.14434326 6.76019531 28.80040527 7.55554688 28.44604492 8.375 C27.88494019 9.6434375 27.88494019 9.6434375 27.3125 10.9375 C24.58772671 17.21409403 22.00005639 23.4534847 19.88671875 29.96875 C19 32 19 32 16 35 C10.72 35 5.44 35 0 35 C0 23.45 0 11.9 0 0 Z " fill="#EFEEEE" transform="translate(71,320)"/>
<path d="M0 0 C1.9172691 3.38750385 2.72486552 6.69369418 3.55859375 10.484375 C3.85905074 11.8111935 4.1606153 13.13776156 4.46313477 14.46411133 C4.70061935 15.51183212 4.70061935 15.51183212 4.94290161 16.58071899 C8.24570899 31.06664835 12.44283379 45.00282847 17.58178711 58.94238281 C17.8166684 59.58968857 18.05154968 60.23699432 18.29354858 60.90391541 C18.92925948 62.65031349 19.57946476 64.39141628 20.23071289 66.13208008 C21 69 21 69 20 73 C13.07 72.67 6.14 72.34 -1 72 C-1.02257965 63.05533037 -1.04093173 54.11067963 -1.05181217 45.16598797 C-1.05703386 41.0127475 -1.06411859 36.85952751 -1.07543945 32.70629883 C-1.08629366 28.69926057 -1.09228223 24.69224203 -1.09487724 20.6851902 C-1.09672691 19.15535992 -1.10033877 17.62553074 -1.10573006 16.09570885 C-1.11297407 13.95530223 -1.11398952 11.81497743 -1.11352539 9.67456055 C-1.115746 8.45544479 -1.11796661 7.23632904 -1.12025452 5.98027039 C-1 3 -1 3 0 0 Z " fill="#FDFCFC" transform="translate(72,604)"/>
<path d="M0 0 C11.55 0 23.1 0 35 0 C35 7.26 35 14.52 35 22 C23.45 22 11.9 22 0 22 C0 14.74 0 7.48 0 0 Z " fill="#EEEEEE" transform="translate(499,35)"/>
<path d="M0 0 C4.82387067 -0.0229102 9.64755389 -0.04283686 14.47143555 -0.05493164 C16.11369464 -0.05997174 17.75594923 -0.06680378 19.39819336 -0.07543945 C21.75375479 -0.08751926 24.10925709 -0.09323139 26.46484375 -0.09765625 C27.20339096 -0.10281754 27.94193817 -0.10797882 28.7028656 -0.11329651 C30.46898088 -0.1134925 32.23497146 -0.06194719 34 0 C35 1 35 1 35.09765625 3.72265625 C35.08605469 4.82480469 35.07445312 5.92695312 35.0625 7.0625 C35.05347656 8.16722656 35.04445313 9.27195312 35.03515625 10.41015625 C35.02355469 11.26480469 35.01195312 12.11945313 35 13 C34.38125 13.28875 33.7625 13.5775 33.125 13.875 C30.86674235 14.93720042 30.86674235 14.93720042 29 17 C27.182025 17.83496866 25.33558622 18.60857808 23.4765625 19.34765625 C22.373125 19.78787109 21.2696875 20.22808594 20.1328125 20.68164062 C18.97523438 21.13732422 17.81765625 21.59300781 16.625 22.0625 C15.47515625 22.52205078 14.3253125 22.98160156 13.140625 23.45507812 C4.56222098 26.85944475 4.56222098 26.85944475 0 28 C0 18.76 0 9.52 0 0 Z " fill="#EEEEEE" transform="translate(321,71)"/>
<path d="M0 0 C8.25 0 16.5 0 25 0 C25 9.57 25 19.14 25 29 C16.75 29 8.5 29 0 29 C0 19.43 0 9.86 0 0 Z " fill="#FEFEFE" transform="translate(999,995)"/>
<path d="M0 0 C2.26262624 1.04995682 4.39179299 2.15681384 6.5625 3.375 C7.91243848 4.1151708 9.26271266 4.85472958 10.61328125 5.59375 C11.32436035 5.985625 12.03543945 6.3775 12.76806641 6.78125 C17.29821927 9.25494537 21.87986317 11.63276127 26.45141602 14.02880859 C29.39667074 15.58172942 32.22702579 17.15135052 35 19 C34.505 19.495 34.505 19.495 34 20 C34 21.155 34 22.31 34 23.5 C34 24.655 34 25.81 34 27 C33 28 33 28 29.67358398 28.11352539 C28.19774444 28.11336629 26.72189931 28.10767314 25.24609375 28.09765625 C24.47064713 28.0962413 23.6952005 28.09482635 22.89625549 28.09336853 C20.40996506 28.08775345 17.9237634 28.07519846 15.4375 28.0625 C13.75586067 28.05748694 12.07421994 28.0529237 10.39257812 28.04882812 C6.26165671 28.03862832 2.13092818 28.01905605 -2 28 C-2 19.09 -2 10.18 -2 1 C-1.34 0.67 -0.68 0.34 0 0 Z " fill="#EFEEEE" transform="translate(286,897)"/>
<path d="M0 0 C0.33 0 0.66 0 1 0 C1 1.98 1 3.96 1 6 C4.3 6 7.6 6 11 6 C11 17.88 11 29.76 11 42 C4.4 42 -2.2 42 -9 42 C-7.87642196 31.8877976 -7.87642196 31.8877976 -6.66015625 27.6953125 C-6.40169922 26.78136719 -6.14324219 25.86742187 -5.87695312 24.92578125 C-5.60818359 24.00152344 -5.33941406 23.07726562 -5.0625 22.125 C-2.94383811 14.79473916 -1.23310094 7.53369 0 0 Z " fill="#EFEDED" transform="translate(952,599)"/>
<path d="M0 0 C-0.13857841 3.12536637 -0.28709569 6.25018217 -0.4375 9.375 C-0.47681641 10.26445313 -0.51613281 11.15390625 -0.55664062 12.0703125 C-0.61948242 13.34648438 -0.61948242 13.34648438 -0.68359375 14.6484375 C-0.72025146 15.43395996 -0.75690918 16.21948242 -0.79467773 17.02880859 C-1 19 -1 19 -2 21 C-13.55 21 -25.1 21 -37 21 C-37 17.04 -37 13.08 -37 9 C-36.1529248 8.79842285 -35.30584961 8.5968457 -34.43310547 8.38916016 C-31.26803967 7.63462372 -28.10356165 6.87768049 -24.93945312 6.11914062 C-23.57412144 5.79233938 -22.20856455 5.46647739 -20.84277344 5.14160156 C-18.87113369 4.67243765 -16.90034876 4.1998174 -14.9296875 3.7265625 C-13.74616699 3.44377441 -12.56264648 3.16098633 -11.34326172 2.86962891 C-9.1047126 2.28735112 -6.88519788 1.62664413 -4.69189453 0.89208984 C-2 0 -2 0 0 0 Z " fill="#EFEEEE" transform="translate(645,939)"/>
<path d="M0 0 C11.55 0 23.1 0 35 0 C31.29931153 3.70068847 27.68693184 6.91561207 23.5625 10.0625 C17.67371144 14.6055281 12.00542565 19.35334794 6.44360352 24.29125977 C2.21146478 28 2.21146478 28 0 28 C0 18.76 0 9.52 0 0 Z " fill="#FDFCFC" transform="translate(213,142)"/>
<path d="M0 0 C12.57887009 1.41191399 24.69762876 4.04958892 37 7 C36.67 7.66 36.34 8.32 36 9 C36 11.64 36 14.28 36 17 C24.12 17 12.24 17 0 17 C0 11.39 0 5.78 0 0 Z " fill="#EFEDED" transform="translate(391,943)"/>
<path d="M0 0 C4.95 0 9.9 0 15 0 C15 11.88 15 23.76 15 36 C12.36 36 9.72 36 7 36 C6.67 37.32 6.34 38.64 6 40 C5.85900879 39.21874756 5.71801758 38.43749512 5.57275391 37.63256836 C4.92713813 34.0668763 4.27611855 30.50219114 3.625 26.9375 C3.40328125 25.70837891 3.1815625 24.47925781 2.953125 23.21289062 C1.88194554 17.36866151 0.71612496 11.68614676 -1 6 C-1.1875 3.125 -1.1875 3.125 -1 1 C-0.67 0.67 -0.34 0.34 0 0 Z " fill="#EFEDED" transform="translate(948,391)"/>
<path d="M0 0 C0.66 0.33 1.32 0.66 2 1 C1.5155542 1.38969971 1.0311084 1.77939941 0.53198242 2.1809082 C-1.47673728 4.56608279 -1.42236982 6.01399593 -1.51171875 9.10546875 C-1.54483154 9.99129639 -1.57794434 10.87712402 -1.61206055 11.78979492 C-1.63695557 12.9110376 -1.66185059 14.03228027 -1.6875 15.1875 C-1.790625 18.755625 -1.89375 22.32375 -2 26 C-11.9 26 -21.8 26 -32 26 C-32 25.01 -32 24.02 -32 23 C-30.44628906 21.60888672 -30.44628906 21.60888672 -28.265625 20.1796875 C-27.46882324 19.64827148 -26.67202148 19.11685547 -25.85107422 18.56933594 C-24.56354248 17.73063965 -24.56354248 17.73063965 -23.25 16.875 C-21.50640915 15.71304056 -19.7642219 14.5489722 -18.0234375 13.3828125 C-17.16717773 12.81079102 -16.31091797 12.23876953 -15.42871094 11.64941406 C-7.33864527 6.28344527 -7.33864527 6.28344527 0 0 Z " fill="#EFEEEE" transform="translate(788,863)"/>
<path d="M0 0 C2 2 2 2 2.22705078 4.88916016 C2.21657715 6.09362793 2.20610352 7.2980957 2.1953125 8.5390625 C2.18886719 9.84101562 2.18242188 11.14296875 2.17578125 12.484375 C2.15906929 13.86458595 2.14213939 15.24479429 2.125 16.625 C2.11497006 18.01301452 2.10584423 19.40103589 2.09765625 20.7890625 C2.07401863 24.19288026 2.04106867 27.59635506 2 31 C1.01604248 31.03758423 1.01604248 31.03758423 0.01220703 31.07592773 C-2.95040183 31.1917326 -5.91268031 31.31452886 -8.875 31.4375 C-9.90753906 31.47681641 -10.94007813 31.51613281 -12.00390625 31.55664062 C-12.99003906 31.59853516 -13.97617187 31.64042969 -14.9921875 31.68359375 C-16.35899658 31.73858032 -16.35899658 31.73858032 -17.75341797 31.79467773 C-20.03483481 31.86577065 -20.03483481 31.86577065 -22 33 C-20.64435467 30.11990523 -19.09647521 27.6177534 -17.20703125 25.05859375 C-16.66199951 24.31464355 -16.11696777 23.57069336 -15.55541992 22.80419922 C-14.98025635 22.02318848 -14.40509277 21.24217773 -13.8125 20.4375 C-8.94315826 13.76980272 -4.27971273 7.06541665 0 0 Z " fill="#F0EEEE" transform="translate(891,751)"/>
<path d="M0 0 C6.61989665 -0.23502592 12.686943 0.68194299 19.1875 1.875 C36.71353588 4.93463227 54.24163522 6.22877959 72 7 C72 7.33 72 7.66 72 8 C67.72663098 8.81499746 63.6997862 9.12198402 59.35205078 9.11352539 C58.05115509 9.11344986 56.7502594 9.11337433 55.40994263 9.11329651 C54.00506552 9.10819101 52.60018881 9.10297504 51.1953125 9.09765625 C49.74657236 9.09578923 48.29783158 9.09436667 46.84909058 9.09336853 C43.05153637 9.08956573 39.25402092 9.07975474 35.45648193 9.06866455 C31.57515995 9.05840215 27.69383166 9.05386059 23.8125 9.04882812 C16.20831574 9.0381303 8.60416332 9.02108098 1 9 C0.67 6.03 0.34 3.06 0 0 Z " fill="#FDFCFB" transform="translate(426,951)"/>
<path d="M0 0 C9.9 0 19.8 0 30 0 C30 5.94 30 11.88 30 18 C28.02 16.865625 26.04 15.73125 24 14.5625 C16.02391679 9.99910282 8.01409015 5.49621681 0 1 C0 0.67 0 0.34 0 0 Z " fill="#EFEEEE" transform="translate(720,107)"/>
<path d="M0 0 C2.94735197 5.20658419 3.85723169 11.18000233 5.1965332 16.9543457 C5.68718525 19.0611485 6.19176108 21.16429622 6.69726562 23.26757812 C7.01126842 24.60657138 7.32444794 25.94575802 7.63671875 27.28515625 C7.92248779 28.50082275 8.20825684 29.71648926 8.50268555 30.96899414 C9 34 9 34 8 37 C5.03 37 2.06 37 -1 37 C-1.02471738 32.21281308 -1.04286825 27.4256633 -1.05493164 22.63842773 C-1.05996065 21.00984042 -1.06678465 19.38125763 -1.07543945 17.75268555 C-1.08756769 15.41193528 -1.09324263 13.0712447 -1.09765625 10.73046875 C-1.10281754 10.00224411 -1.10797882 9.27401947 -1.11329651 8.52372742 C-1.11364279 5.40397712 -0.99455604 2.98366812 0 0 Z " fill="#EDEEEE" transform="translate(72,604)"/>
<path d="M0 0 C7.88106622 4.50346641 7.88106622 4.50346641 10.89453125 6.7265625 C11.86229492 7.438125 11.86229492 7.438125 12.84960938 8.1640625 C13.49736328 8.64617188 14.14511719 9.12828125 14.8125 9.625 C15.81313477 10.35976563 15.81313477 10.35976563 16.83398438 11.109375 C19.37297435 12.98479444 21.76423671 14.76423671 24 17 C21.45017567 18.27491216 19.83534576 18.02596616 16.9921875 17.87890625 C16.00605469 17.83056641 15.01992188 17.78222656 14.00390625 17.73242188 C12.97136719 17.67634766 11.93882812 17.62027344 10.875 17.5625 C9.83472656 17.51029297 8.79445313 17.45808594 7.72265625 17.40429688 C5.14818761 17.27439249 2.57405702 17.13782019 0 17 C0 11.39 0 5.78 0 0 Z " fill="#EFEEEE" transform="translate(248,872)"/>
<path d="M0 0 C0.66 0 1.32 0 2 0 C2 8.58 2 17.16 2 26 C-2.29 26 -6.58 26 -11 26 C-11.33 26.66 -11.66 27.32 -12 28 C-11.32726517 22.94429579 -9.20845138 18.60002168 -7.125 14 C-6.77308594 13.2059375 -6.42117188 12.411875 -6.05859375 11.59375 C-2.36044093 3.34508201 -2.36044093 3.34508201 0 0 Z " fill="#FDFBFB" transform="translate(926,686)"/>
<path d="M0 0 C0.66 0.33 1.32 0.66 2 1 C1.44570313 1.38027344 0.89140625 1.76054688 0.3203125 2.15234375 C-4.60531875 6.15770582 -6.4760245 9.45123073 -7.27783203 15.64282227 C-7.60327927 19.09578167 -7.84249585 22.53490874 -8 26 C-9.27617188 26.06058594 -10.55234375 26.12117187 -11.8671875 26.18359375 C-13.53647016 26.26799568 -15.20574037 26.35264386 -16.875 26.4375 C-17.71675781 26.47681641 -18.55851563 26.51613281 -19.42578125 26.55664062 C-20.23144531 26.59853516 -21.03710938 26.64042969 -21.8671875 26.68359375 C-22.98262939 26.73858032 -22.98262939 26.73858032 -24.12060547 26.79467773 C-26.08864312 26.89955865 -26.08864312 26.89955865 -28 28 C-26.42818336 23.67240093 -23.07784129 21.31206033 -19.625 18.5 C-12.67481143 12.7084784 -6.28876558 6.49608752 0 0 Z " fill="#F0EEEE" transform="translate(829,827)"/>
<path d="M0 0 C0 5.61 0 11.22 0 17 C-5.61 17 -11.22 17 -17 17 C-14.65678722 13.09464536 -12.55762335 10.15107763 -9.5625 6.8125 C-8.41974609 5.52279297 -8.41974609 5.52279297 -7.25390625 4.20703125 C-2.95752212 0 -2.95752212 0 0 0 Z " fill="#EFEEED" transform="translate(857,801)"/>
<path d="M0 0 C1.51400391 0.01740234 1.51400391 0.01740234 3.05859375 0.03515625 C4.07050781 0.04417969 5.08242187 0.05320312 6.125 0.0625 C7.29869141 0.07990234 7.29869141 0.07990234 8.49609375 0.09765625 C7.99266573 5.82758243 5.66476912 10.03730107 2.93359375 14.97265625 C2.50884766 15.75640625 2.08410156 16.54015625 1.64648438 17.34765625 C0.60398837 19.26866012 -0.4462307 21.18498115 -1.50390625 23.09765625 C-2.16390625 22.76765625 -2.82390625 22.43765625 -3.50390625 22.09765625 C-3.53278439 18.61850684 -3.55066312 15.13938794 -3.56640625 11.66015625 C-3.57478516 10.66693359 -3.58316406 9.67371094 -3.59179688 8.65039062 C-3.59501953 7.70615234 -3.59824219 6.76191406 -3.6015625 5.7890625 C-3.60679932 4.91451416 -3.61203613 4.03996582 -3.61743164 3.13891602 C-3.44783341 0.08943037 -3.06749301 0.11963701 0 0 Z " fill="#EFEFEF" transform="translate(110.50390625,283.90234375)"/>
<path d="M0 0 C0.33 0.66 0.66 1.32 1 2 C1.66 2 2.32 2 3 2 C3 13.55 3 25.1 3 37 C2.01 37 1.02 37 0 37 C-2 35 -2 35 -2.1875 31.3125 C-2.16201213 28.76881061 -1.90889433 26.40407932 -1.5234375 23.8828125 C-0.88017144 19.11112249 -0.64861436 14.3696778 -0.4375 9.5625 C-0.39431641 8.64017578 -0.35113281 7.71785156 -0.30664062 6.76757812 C-0.20145069 4.51183837 -0.09930893 2.25600501 0 0 Z " fill="#EFE8E7" transform="translate(960,532)"/>
<path d="M0 0 C2.62527189 -0.05382106 5.24944713 -0.09358313 7.875 -0.125 C8.62136719 -0.14175781 9.36773437 -0.15851563 10.13671875 -0.17578125 C12.09194461 -0.1933959 14.04742021 -0.10320189 16 0 C16.66 0.66 17.32 1.32 18 2 C15.56401192 3.31537364 13.1263175 4.62739143 10.6875 5.9375 C9.99720703 6.31068359 9.30691406 6.68386719 8.59570312 7.06835938 C7.92861328 7.42607422 7.26152344 7.78378906 6.57421875 8.15234375 C5.65515747 8.6472229 5.65515747 8.6472229 4.7175293 9.15209961 C3 10 3 10 0 11 C0 7.37 0 3.74 0 0 Z " fill="#EDEBEA" transform="translate(285,107)"/>
<path d="M0 0 C0.99 0 1.98 0 3 0 C3.11539677 20.36309107 3.01978606 40.65581056 2 61 C1.67 61 1.34 61 1 61 C0.67 40.87 0.34 20.74 0 0 Z " fill="#F4F0EF" transform="translate(960,463)"/>
<path d="M0 0 C5.69230769 5.69230769 5.69230769 5.69230769 7.8125 9.125 C8.23144531 9.78757812 8.65039062 10.45015625 9.08203125 11.1328125 C10 13 10 13 10 16 C6.7 16 3.4 16 0 16 C0 10.72 0 5.44 0 0 Z " fill="#EEEDED" transform="translate(142,766)"/>
<path d="M0 0 C0.495 1.98 0.495 1.98 1 4 C-3.16259361 4.0248456 -7.32514713 4.04292862 -11.48779297 4.05493164 C-12.90186313 4.0599392 -14.31592816 4.06674718 -15.72998047 4.07543945 C-17.77052073 4.08766256 -19.81099212 4.0932642 -21.8515625 4.09765625 C-23.68968506 4.10551147 -23.68968506 4.10551147 -25.56494141 4.11352539 C-28.80432849 4.00646676 -31.82183197 3.61478618 -35 3 C-35 2.67 -35 2.34 -35 2 C-30.66703867 1.66171232 -26.33357981 1.33026252 -22 1 C-20.16888672 0.85691406 -20.16888672 0.85691406 -18.30078125 0.7109375 C-12.18152207 0.24785843 -6.13685286 -0.12273706 0 0 Z " fill="#EEEFEF" transform="translate(570,956)"/>
<path d="M0 0 C2.59794461 0.05472368 5.16243433 0.17316516 7.75390625 0.33984375 C8.52935287 0.38565079 9.3047995 0.43145782 10.10374451 0.47865295 C12.59032059 0.62667964 15.07638035 0.78201271 17.5625 0.9375 C19.24411175 1.03889153 20.92575213 1.13980928 22.60742188 1.24023438 C26.73863411 1.48798491 30.86939752 1.74229078 35 2 C35 2.33 35 2.66 35 3 C30.63106263 3.84062776 26.5164802 4.11732956 22.0703125 4.09765625 C20.78125 4.09443359 19.4921875 4.09121094 18.1640625 4.08789062 C16.81770764 4.07953733 15.47135348 4.07107241 14.125 4.0625 C12.75520996 4.0574783 11.38541815 4.05291657 10.015625 4.04882812 C6.6770381 4.03707254 3.33854185 4.02063964 0 4 C-0.33 3.01 -0.66 2.02 -1 1 C-0.67 0.67 -0.34 0.34 0 0 Z " fill="#F2EDEC" transform="translate(463,956)"/>
<path d="M0 0 C2.97 0 5.94 0 9 0 C9 4.29 9 8.58 9 13 C8.01 13.495 8.01 13.495 7 14 C4.36 10.04 1.72 6.08 -1 2 C-0.67 1.34 -0.34 0.68 0 0 Z " fill="#EFEAEB" transform="translate(883,249)"/>
<path d="M0 0 C0.66 0.33 1.32 0.66 2 1 C2.51831055 2.77832031 2.51831055 2.77832031 2.88671875 5.078125 C3.02013672 5.90957031 3.15355469 6.74101563 3.29101562 7.59765625 C3.42185547 8.47292969 3.55269531 9.34820313 3.6875 10.25 C3.82994141 11.10980469 3.97238281 11.96960938 4.11914062 12.85546875 C4.78356953 17.14615892 5.30514985 20.76045285 4 25 C3.01 24.34 2.02 23.68 1 23 C1.33 20.36 1.66 17.72 2 15 C1.01 14.67 0.02 14.34 -1 14 C-1.02705729 12.22925083 -1.04642195 10.45838289 -1.0625 8.6875 C-1.07410156 7.70136719 -1.08570312 6.71523438 -1.09765625 5.69921875 C-1 3 -1 3 0 0 Z " fill="#F1E6E6" transform="translate(66,573)"/>
<path d="M0 0 C1.65 0 3.3 0 5 0 C6.39682559 3.82239436 5.64083517 6.78791269 4.75 10.6875 C4.49734375 11.84636719 4.2446875 13.00523437 3.984375 14.19921875 C3.65953125 15.12347656 3.3346875 16.04773438 3 17 C2.01 17.33 1.02 17.66 0 18 C0 12.06 0 6.12 0 0 Z " fill="#EDEDEE" transform="translate(71,391)"/>
<path d="M0 0 C5.56260539 -0.42789272 9.87826813 1.08763431 15 3 C15.94875 3.33 16.8975 3.66 17.875 4 C20 5 20 5 21.5 6.5625 C23.50706089 8.48593335 25.29667526 8.63468585 28 9 C28 9.66 28 10.32 28 11 C24.26594569 12.24468477 23.49099704 11.60006558 20 9.98046875 C19.030625 9.53509766 18.06125 9.08972656 17.0625 8.63085938 C16.051875 8.15455078 15.04125 7.67824219 14 7.1875 C12.989375 6.72279297 11.97875 6.25808594 10.9375 5.77929688 C3.49604689 2.33069793 3.49604689 2.33069793 0 0 Z " fill="#F2E8E7" transform="translate(684,91)"/>
<path d="M0 0 C3.93130898 0.59197146 6.79661817 1.79502813 10.23828125 3.765625 C11.71651367 4.60673828 11.71651367 4.60673828 13.22460938 5.46484375 C14.24361328 6.05394531 15.26261719 6.64304687 16.3125 7.25 C17.31990234 7.82363281 18.32730469 8.39726563 19.36523438 8.98828125 C24.99055474 12.2058912 30.53085418 15.52379262 36 19 C33 20 33 20 29.875 18.6875 C27 17 27 17 26 15 C25.34 15 24.68 15 24 15 C24 14.34 24 13.68 24 13 C23.4225 12.87625 22.845 12.7525 22.25 12.625 C19.9593626 11.98871183 18.12258801 11.06129401 16 10 C15.01 9.71125 14.02 9.4225 13 9.125 C9.70001854 7.88750695 8.41940952 6.49501607 6 4 C4.03120677 2.93988057 2.03564133 1.92529151 0 1 C0 0.67 0 0.34 0 0 Z " fill="#ED645D" transform="translate(720,109)"/>
<path d="M0 0 C1.90739027 3.38354448 2.76734743 6.72286344 3.625 10.5 C3.88539062 11.6240625 4.14578125 12.748125 4.4140625 13.90625 C5 17 5 17 5 21 C4.34 21 3.68 21 3 21 C2.67 19.35 2.34 17.7 2 16 C1.34 16.99 0.68 17.98 0 19 C-0.82481968 15.39959663 -1.13516938 12.06648597 -1.125 8.375 C-1.12757812 7.43398438 -1.13015625 6.49296875 -1.1328125 5.5234375 C-1 3 -1 3 0 0 Z " fill="#F2E7E6" transform="translate(72,604)"/>
<path d="M0 0 C2.31 0 4.62 0 7 0 C7 0.99 7 1.98 7 3 C7.70640625 2.95230469 8.4128125 2.90460937 9.140625 2.85546875 C12.48479628 3.02450473 14.70084762 3.94522135 17.75 5.3125 C22.77504564 7.50162879 27.77635822 9.34584677 33 11 C28.98657536 12.60276374 26.21139945 11.31194454 22.265625 9.91015625 C21.62759949 9.68678085 20.98957397 9.46340546 20.33221436 9.23326111 C18.30114141 8.51960431 16.27567807 7.79131157 14.25 7.0625 C12.87143809 6.57519665 11.49253507 6.08885714 10.11328125 5.60351562 C6.738162 4.41349004 3.3679152 3.2102852 0 2 C0 1.34 0 0.68 0 0 Z " fill="#EA6861" transform="translate(342,924)"/>
<path d="M0 0 C2.97 0.495 2.97 0.495 6 1 C6.33 5.95 6.66 10.9 7 16 C4.13780065 13.13780065 3.22860944 11.64607487 1.8125 8 C1.46832031 7.13375 1.12414062 6.2675 0.76953125 5.375 C0 3 0 3 0 0 Z " fill="#FAF8F7" transform="translate(922,319)"/>
<path d="M0 0 C1.27617188 0.02320312 2.55234375 0.04640625 3.8671875 0.0703125 C5.78917969 0.09738281 5.78917969 0.09738281 7.75 0.125 C9.23113281 0.15980469 9.23113281 0.15980469 10.7421875 0.1953125 C10.7421875 1.5153125 10.7421875 2.8353125 10.7421875 4.1953125 C5.10937151 4.4350068 0.19679919 3.58061071 -5.2578125 2.1953125 C-3.2578125 0.1953125 -3.2578125 0.1953125 0 0 Z " fill="#EFEAE9" transform="translate(631.2578125,70.8046875)"/>
<path d="M0 0 C0.33 1.32 0.66 2.64 1 4 C-1.31 4 -3.62 4 -6 4 C-6 3.67 -6 3.34 -6 3 C-12.93 2.505 -12.93 2.505 -20 2 C-20 1.67 -20 1.34 -20 1 C-13.31184516 0.37577221 -6.71884955 -0.12920865 0 0 Z " fill="#F4EBE8" transform="translate(570,956)"/>
<path d="M0 0 C0.66 0.66 1.32 1.32 2 2 C0.9312194 4.72053242 0.05132446 5.96115987 -2.3125 7.75 C-5.80513935 10.67407015 -7.76233922 14.07695217 -10 18 C-10.33 17.34 -10.66 16.68 -11 16 C-9.82528366 13.71879579 -8.61112263 11.60271048 -7.25 9.4375 C-6.70859375 8.53354492 -6.70859375 8.53354492 -6.15625 7.61132812 C-3.37732054 3.12577351 -3.37732054 3.12577351 0 2 C0 1.34 0 0.68 0 0 Z " fill="#F15F58" transform="translate(135,262)"/>
<path d="M0 0 C5.78461538 3.44615385 5.78461538 3.44615385 6.875 6.25 C6.936875 7.11625 6.936875 7.11625 7 8 C4.69 8 2.38 8 0 8 C0 5.36 0 2.72 0 0 Z " fill="#EFEDEB" transform="translate(213,845)"/>
<path d="M0 0 C0.99 0.33 1.98 0.66 3 1 C2.071875 1.721875 1.14375 2.44375 0.1875 3.1875 C-2.60190719 5.49778549 -4.26792607 7.79566322 -6 11 C-6.66 11.66 -7.32 12.32 -8 13 C-8.99 12.67 -9.98 12.34 -11 12 C-7.37 8.04 -3.74 4.08 0 0 Z " fill="#F0645E" transform="translate(180,203)"/>
<path d="M0 0 C-0.53675903 3.85103301 -2.11600923 5.31797587 -5.0625 7.75 C-6.16271484 8.67039063 -6.16271484 8.67039063 -7.28515625 9.609375 C-7.85105469 10.06828125 -8.41695312 10.5271875 -9 11 C-9.66 10.67 -10.32 10.34 -11 10 C-10.67 9.34 -10.34 8.68 -10 8 C-9.34 8 -8.68 8 -8 8 C-7.7525 7.4225 -7.505 6.845 -7.25 6.25 C-5.58207452 3.24773413 -3.67725381 0 0 0 Z " fill="#F26760" transform="translate(203,181)"/>
<path d="M0 0 C6.46712188 1.16194152 12.09622349 3.1248748 18 6 C18 6.33 18 6.66 18 7 C12.96396546 6.49639655 9.48761076 5.24380538 5 3 C2.24853726 2.74715633 2.24853726 2.74715633 0 3 C0 2.01 0 1.02 0 0 Z " fill="#ED5E57" transform="translate(675,89)"/>
<path d="M0 0 C2.99876322 2.80319171 5.16322727 5.59434917 7.25 9.125 C7.77078125 9.99382812 8.2915625 10.86265625 8.828125 11.7578125 C10 14 10 14 10 16 C7 15 7 15 5.71875 12.78515625 C5.11546875 11.43744141 5.11546875 11.43744141 4.5 10.0625 C2.62124857 5.85626537 2.62124857 5.85626537 -1 3 C-0.67 2.01 -0.34 1.02 0 0 Z " fill="#EC625A" transform="translate(897,275)"/>
<path d="M0 0 C1.32 0.33 2.64 0.66 4 1 C5.1875 3.4375 5.1875 3.4375 6 6 C6.33 6.66 6.66 7.32 7 8 C5.35 8 3.7 8 2 8 C1.34 5.36 0.68 2.72 0 0 Z " fill="#ECEAEB" transform="translate(176,810)"/>
<path d="M0 0 C1.98 0 3.96 0 6 0 C6 1.65 6 3.3 6 5 C3 5 3 5 1.3125 3.625 C0 2 0 2 0 0 Z " fill="#F1ECEC" transform="translate(779,142)"/>
<path d="M0 0 C5.625387 3.30185759 5.625387 3.30185759 7.375 6.5625 C8 9 8 9 8 12 C6.66081194 10.37982158 5.3288031 8.75370657 4 7.125 C3.2575 6.22007812 2.515 5.31515625 1.75 4.3828125 C0 2 0 2 0 0 Z " fill="#EE635B" transform="translate(151,776)"/>
<path d="M0 0 C-3.96 1.98 -7.92 3.96 -12 6 C-12 5.34 -12 4.68 -12 4 C-11.34 4 -10.68 4 -10 4 C-9.67 3.01 -9.34 2.02 -9 1 C-3.79245283 -1.26415094 -3.79245283 -1.26415094 0 0 Z " fill="#EE6059" transform="translate(709,914)"/>
<path d="M0 0 C0 0.66 0 1.32 0 2 C2.64 2.33 5.28 2.66 8 3 C8 3.33 8 3.66 8 4 C6.04098546 3.88617347 4.0827662 3.75858875 2.125 3.625 C1.03445313 3.55539062 -0.05609375 3.48578125 -1.1796875 3.4140625 C-4 3 -4 3 -6 1 C-4 0 -4 0 0 0 Z " fill="#E8F4F4" transform="translate(414,947)"/>
<path d="M0 0 C-1.78810766 0.69670416 -3.58062052 1.38211189 -5.375 2.0625 C-6.37273438 2.44535156 -7.37046875 2.82820312 -8.3984375 3.22265625 C-11 4 -11 4 -13 3 C-11.00584635 0.30202742 -9.87486211 -0.02681526 -6.5 -0.75 C-3 -1 -3 -1 0 0 Z " fill="#EF5B53" transform="translate(674,929)"/>
<path d="M0 0 C-0.33 0.99 -0.66 1.98 -1 3 C-5.0527516 3.98248524 -8.83861737 4.08159574 -13 4 C-13 3.67 -13 3.34 -13 3 C-11.2092015 2.49689942 -9.41733089 1.99761372 -7.625 1.5 C-6.62726562 1.2215625 -5.62953125 0.943125 -4.6015625 0.65625 C-2 0 -2 0 0 0 Z " fill="#F7E3E1" transform="translate(645,939)"/>
<path d="M0 0 C0.81210937 0.29003906 1.62421875 0.58007812 2.4609375 0.87890625 C3.27820313 1.16636719 4.09546875 1.45382812 4.9375 1.75 C5.56398438 1.97816406 6.19046875 2.20632813 6.8359375 2.44140625 C6.8359375 2.77140625 6.8359375 3.10140625 6.8359375 3.44140625 C5.18927547 3.32784335 3.54357668 3.20023244 1.8984375 3.06640625 C0.98191406 2.99679687 0.06539063 2.9271875 -0.87890625 2.85546875 C-2.01005859 2.65050781 -2.01005859 2.65050781 -3.1640625 2.44140625 C-3.4940625 1.78140625 -3.8240625 1.12140625 -4.1640625 0.44140625 C-2.1640625 -0.55859375 -2.1640625 -0.55859375 0 0 Z " fill="#EE5B54" transform="translate(424.1640625,946.55859375)"/>
<path d="M0 0 C2.15377564 2.62198774 3.40072174 4.64404172 4 8 C2.68 8 1.36 8 0 8 C0 5.36 0 2.72 0 0 Z " fill="#F4E7E4" transform="translate(113,718)"/>
<path d="M0 0 C2.69504819 2.69504819 5 6.08360477 5 10 C3.35 9.67 1.7 9.34 0 9 C0.66 8.67 1.32 8.34 2 8 C1.67 7.4225 1.34 6.845 1 6.25 C0 4 0 4 0 0 Z " fill="#F5E2E1" transform="translate(97,685)"/>
<path d="M0 0 C1.65 0 3.3 0 5 0 C5.33 1.32 5.66 2.64 6 4 C5.67 3.34 5.34 2.68 5 2 C4.01 2 3.02 2 2 2 C2 3.98 2 5.96 2 8 C1.67 8 1.34 8 1 8 C0.67 5.36 0.34 2.72 0 0 Z " fill="#F1E7E7" transform="translate(71,391)"/>
<path d="M0 0 C-2.8125 2.0625 -2.8125 2.0625 -6 4 C-6.99 3.67 -7.98 3.34 -9 3 C-6.38220849 -0.01046024 -3.86655673 -1.93327837 0 0 Z " fill="#F2F2F3" transform="translate(296,112)"/>
<path d="M0 0 C2.15377564 2.62198774 3.40072174 4.64404172 4 8 C3.34 7.67 2.68 7.34 2 7 C2 6.34 2 5.68 2 5 C1.34 5 0.68 5 0 5 C-0.33 5.66 -0.66 6.32 -1 7 C-0.67 4.69 -0.34 2.38 0 0 Z " fill="#EB685E" transform="translate(913,303)"/>
<path d="M0 0 C0.66 0.33 1.32 0.66 2 1 C0.29374499 3.78388975 -0.47626739 4.85384206 -3.6875 5.75 C-4.8321875 5.87375 -4.8321875 5.87375 -6 6 C-4 4 -2 2 0 0 Z " fill="#F05C55" transform="translate(242,147)"/>
<path d="M0 0 C-1.32 0.33 -2.64 0.66 -4 1 C-4 1.66 -4 2.32 -4 3 C-6.31 2.67 -8.62 2.34 -11 2 C-7.36576791 -0.32590854 -4.22911669 -0.16265833 0 0 Z " fill="#F25B53" transform="translate(466,61)"/>
</svg>
