<?xml version="1.0" encoding="UTF-8"?>
<svg version="1.1" xmlns="http://www.w3.org/2000/svg" width="384" height="384">
<path d="M0 0 C0.77182617 0.17160645 1.54365234 0.34321289 2.33886719 0.52001953 C33.5856654 7.62387309 62.92462947 21.70255684 87 43 C87.51369141 43.45342773 88.02738281 43.90685547 88.55664062 44.37402344 C120.16265263 72.43701274 140.84041465 108.8033673 150 150 C150.16516113 150.71510742 150.33032227 151.43021484 150.50048828 152.16699219 C155.71758716 175.78690829 155.4371839 204.45831985 150 228 C149.82839355 228.77182617 149.65678711 229.54365234 149.47998047 230.33886719 C142.37612691 261.5856654 128.29744316 290.92462947 107 315 C106.54657227 315.51369141 106.09314453 316.02738281 105.62597656 316.55664062 C77.56298726 348.16265263 41.1966327 368.84041465 0 378 C-0.71510742 378.16516113 -1.43021484 378.33032227 -2.16699219 378.50048828 C-25.78690829 383.71758716 -54.45831985 383.4371839 -78 378 C-78.77182617 377.82839355 -79.54365234 377.65678711 -80.33886719 377.47998047 C-111.5856654 370.37612691 -140.92462947 356.29744316 -165 335 C-165.51369141 334.54657227 -166.02738281 334.09314453 -166.55664062 333.62597656 C-198.16265263 305.56298726 -218.84041465 269.1966327 -228 228 C-228.16516113 227.28489258 -228.33032227 226.56978516 -228.50048828 225.83300781 C-233.71758716 202.21309171 -233.4371839 173.54168015 -228 150 C-227.82839355 149.22817383 -227.65678711 148.45634766 -227.47998047 147.66113281 C-220.37612691 116.4143346 -206.29744316 87.07537053 -185 63 C-184.54657227 62.48630859 -184.09314453 61.97261719 -183.62597656 61.44335938 C-155.56298726 29.83734737 -119.1966327 9.15958535 -78 0 C-77.28489258 -0.16516113 -76.56978516 -0.33032227 -75.83300781 -0.50048828 C-52.21309171 -5.71758716 -23.54168015 -5.4371839 0 0 Z " fill="#FEFEFE" transform="translate(231,3)"/>
<path d="M0 0 C0.7321875 -0.01289063 1.464375 -0.02578125 2.21875 -0.0390625 C5.732226 0.98369592 7.21047162 2.80591191 9.5 5.625 C9.9835941 8.44960915 10.16360082 10.66958145 10.11181641 13.48535156 C10.11748123 14.26166428 10.12314606 15.03797699 10.12898254 15.83781433 C10.1424574 18.3975797 10.12155306 20.95592191 10.1015625 23.515625 C10.10706562 25.30296799 10.11519289 27.09030466 10.12582397 28.87762451 C10.14870933 33.58264552 10.14449398 38.28720207 10.13201904 42.99224854 C10.11371947 50.50796385 10.12381812 58.02340412 10.15787888 65.53905487 C10.16394894 68.15420083 10.1507622 70.76875096 10.13589478 73.3838501 C10.12846328 85.04822737 10.9828092 94.84910948 19.5 103.625 C28.05031339 110.11476489 38.21273594 110.6733836 48.5 109.625 C55.12237122 108.11718973 61.13512931 104.90695789 65.5 99.625 C69.41181461 92.76739816 70.64834894 86.6477649 70.62597656 78.81469727 C70.6278447 78.03210541 70.62971283 77.24951355 70.63163757 76.44320679 C70.63563523 74.74681998 70.63771583 73.05042781 70.63809967 71.35403633 C70.64152119 67.74649464 70.66288786 64.13913223 70.68333054 60.5316534 C70.72133321 53.81754567 70.75261214 47.10363195 70.75048828 40.3894043 C70.74970153 35.71611697 70.77304525 31.04348967 70.8123703 26.37037468 C70.8228344 24.59103296 70.82435129 22.81161511 70.81671906 21.03225899 C70.8071023 18.542344 70.82826586 16.05443138 70.85644531 13.56469727 C70.84624863 12.831548 70.83605194 12.09839874 70.82554626 11.34303284 C70.90521283 7.41424515 71.38875056 5.76209781 73.89764404 2.67027283 C76.58293639 0.5598177 77.65019162 -0.0589755 81 0 C81.7321875 -0.01289063 82.464375 -0.02578125 83.21875 -0.0390625 C86.74354298 0.98699025 88.21053897 2.78767641 90.5 5.625 C90.97998856 8.54242546 91.15651913 10.86804838 91.09936523 13.77661133 C91.10330795 14.58379105 91.10725067 15.39097076 91.11131287 16.22261047 C91.11801238 18.88472045 91.08887618 21.54510535 91.05859375 24.20703125 C91.05434084 26.06401742 91.05201476 27.92100891 91.05152893 29.77799988 C91.04536561 33.66938392 91.02268209 37.56019192 90.98706055 41.45141602 C90.94188312 46.42448616 90.92703908 51.39703339 90.92332363 56.3702898 C90.91887992 60.20604045 90.90354795 64.04168272 90.8844471 67.87738609 C90.87560306 69.71009116 90.86885469 71.54280763 90.86428642 73.37552834 C90.8551768 75.9456147 90.83272606 78.51524433 90.80639648 81.08520508 C90.80573181 81.83404968 90.80506714 82.58289429 90.80438232 83.35443115 C90.64194591 94.92529953 86.34933935 105.87192671 78.5 114.4375 C65.98494297 126.00604011 50.82273934 128.20019122 34.40625 127.80078125 C20.88554919 127.19234971 8.74465928 121.24103936 -0.44140625 111.30078125 C-7.45211605 102.18818882 -9.79620007 91.35252453 -9.80639648 80.06347656 C-9.81472 79.26064743 -9.82304352 78.4578183 -9.83161926 77.63066101 C-9.8554801 75.00893146 -9.86445739 72.38745116 -9.87109375 69.765625 C-9.88007137 67.92958507 -9.8891934 66.09354585 -9.89845276 64.25750732 C-9.91487515 60.42474597 -9.92263173 56.59207134 -9.92553711 52.75927734 C-9.93094437 47.85080871 -9.96874919 42.94315381 -10.01428127 38.03491592 C-10.04401416 34.24992883 -10.05125968 30.46513982 -10.05226326 26.68004608 C-10.0564654 24.86993391 -10.06889949 23.05982113 -10.08978081 21.24982452 C-10.11664581 18.72224919 -10.11188791 16.1965906 -10.09936523 13.66894531 C-10.11419952 12.9249498 -10.12903381 12.18095428 -10.14431763 11.41441345 C-10.08848815 7.45610645 -9.62752159 5.7826789 -7.1051178 2.66375732 C-4.41870866 0.56138164 -3.34623697 -0.05891262 0 0 Z " fill="#5543AB" transform="translate(93.5,129.375)"/>
<path d="M0 0 C5.428668 3.30838016 8.44320159 8.68567073 11.875 13.875 C13.19637692 15.84390952 14.51799921 17.81265439 15.83984375 19.78125 C16.51901855 20.79832031 17.19819336 21.81539062 17.89794922 22.86328125 C21.37807561 28.05638971 24.90997325 33.21402886 28.4375 38.375 C29.70727296 40.23681434 30.97682684 42.09877813 32.24609375 43.9609375 C32.77904053 44.74259277 33.3119873 45.52424805 33.86108398 46.32958984 C34.23692627 46.8808252 34.61276855 47.43206055 35 48 C38.29968545 44.84696724 40.98595195 41.7818444 43.4375 37.9375 C47.21075274 32.15567166 51.10775218 26.47178128 55.0625 20.8125 C55.92862915 19.56617798 55.92862915 19.56617798 56.81225586 18.29467773 C66.3774804 4.6225196 66.3774804 4.6225196 71 0 C75.50969701 -0.44357676 77.94084495 -0.52957752 82 1.5 C84.3024788 4.3780985 84.48752626 6.18881194 84.38378906 9.82373047 C83.67551793 13.83997022 81.32421857 16.64451386 78.875 19.8125 C78.3402002 20.53606689 77.80540039 21.25963379 77.25439453 22.00512695 C76.10991739 23.55008851 74.95715188 25.08893897 73.796875 26.62207031 C71.99049678 29.01257627 70.21041693 31.42053259 68.4375 33.8359375 C59.31136522 46.26466176 59.31136522 46.26466176 54.85546875 52.171875 C53.9240561 53.42676944 52.99304028 54.68195854 52.0625 55.9375 C51.63114746 56.49848389 51.19979492 57.05946777 50.75537109 57.63745117 C48.53571317 60.49297449 48.53571317 60.49297449 48.24487305 63.94311523 C49.06638043 66.18081316 50.06959605 67.77882119 51.484375 69.6953125 C52.00104736 70.40228271 52.51771973 71.10925293 53.05004883 71.83764648 C53.61103271 72.59247314 54.1720166 73.3472998 54.75 74.125 C55.93637729 75.7433581 57.12256988 77.36185162 58.30859375 78.98046875 C58.91944824 79.80981934 59.53030273 80.63916992 60.15966797 81.49365234 C63.62252214 86.20971243 67.03812766 90.96022466 70.44506836 95.71679688 C72.77192297 98.95727409 75.10748663 102.17251398 77.59375 105.29296875 C83.47345348 112.79787196 83.47345348 112.79787196 83.8125 117.375 C82.80675188 121.86218392 81.82984619 123.4467692 78 126 C75.16016251 126.69850841 72.79507516 126.8999295 70 126 C66.0986384 122.59801268 63.07040992 118.62163063 60.0625 114.4375 C59.60085449 113.80199219 59.13920898 113.16648437 58.66357422 112.51171875 C53.41044333 105.24641862 48.28670338 97.88882275 43.1640625 90.53125 C42.62813477 89.76425781 42.09220703 88.99726563 41.54003906 88.20703125 C40.53738692 86.77012963 39.53910283 85.33016691 38.54589844 83.88671875 C36.27728064 80.40380805 36.27728064 80.40380805 33 78 C32.77054688 78.68578125 32.54109375 79.3715625 32.3046875 80.078125 C30.69907103 83.67393673 28.49164008 86.63334505 26.125 89.75 C25.13134641 91.07963479 24.13921661 92.4104094 23.1484375 93.7421875 C22.3745166 94.78197754 22.3745166 94.78197754 21.58496094 95.84277344 C18.91384433 99.47832279 16.3357732 103.17852339 13.75 106.875 C3.45549492 121.54450508 3.45549492 121.54450508 -1 126 C-5.87833311 126.55980872 -7.91563693 126.74549961 -12 123.9375 C-14.59696845 120.12320259 -14.60455086 118.57535082 -14 114 C-12.24699996 110.62881686 -10.02436 107.66121748 -7.75 104.625 C-6.45831572 102.84376278 -5.16664935 101.06251256 -3.875 99.28125 C-3.22273437 98.394375 -2.57046875 97.5075 -1.8984375 96.59375 C0.87199594 92.80863106 3.5588492 88.96664443 6.25 85.125 C11.46888878 77.7278 16.72818862 70.35954199 22 63 C17.65560384 55.77973596 12.86554682 49.05261434 7.77441406 42.35009766 C3.91748847 37.25919618 0.1770087 32.09725294 -3.5 26.875 C-4.23802856 25.82771729 -4.23802856 25.82771729 -4.9909668 24.75927734 C-5.91180605 23.44687888 -6.82853963 22.13158683 -7.74047852 20.81298828 C-8.91119138 19.12783345 -10.10885375 17.46148887 -11.30859375 15.796875 C-13.73281161 11.78823762 -13.97461576 8.54533192 -13 4 C-9.67292081 -0.26282021 -5.16043879 -1.32920393 0 0 Z " fill="#4E63BD" transform="translate(218,130)"/>
</svg>
